<svg width="104" height="47" viewBox="0 0 104 47" fill="none" xmlns="http://www.w3.org/2000/svg">
<g clip-path="url(#clip0_209_30781)">
<path d="M23.1539 15.2033V11.799C23.1539 10.5632 22.4078 9.46727 21.2652 8.97761L0.163147 0.280273V2.16897L18.9801 9.93362C19.633 10.1901 19.633 11.1228 18.9801 11.3793L0.163147 19.1439V26.722L11.4953 22.0353L18.9568 25.1131C19.6097 25.3696 19.6097 26.3023 18.9568 26.5588L0.163147 34.3235V46.3318L21.2652 37.6345C22.4078 37.1682 23.1539 36.0489 23.1539 34.8131V27.0018C23.1539 25.766 22.4078 24.6701 21.2652 24.1805L13.7804 21.1026L21.2652 18.0247C22.4078 17.5584 23.1539 16.4391 23.1539 15.2033Z" fill="#32253E"/>
<path d="M33.8781 17.2822L37.1892 30.1767L40.8966 17.2822H44.4408L47.9384 30.1767L51.3894 17.2822H54.0009L49.5473 32.8348H46.2363L42.5755 19.4274L38.7747 32.8348H35.4171L31.1034 17.2822H33.8781Z" fill="#32253E"/>
<path d="M57.9898 25.8127C58.083 27.0952 58.2229 27.7481 58.6426 28.5642C59.4121 30.0331 61.1609 30.9892 62.9097 30.9892C65.0315 30.9892 66.4073 29.9865 66.9902 28.0045H69.8815C69.1587 31.3622 66.6171 33.2276 62.863 33.2276C58.1763 33.2276 55.1917 30.0098 55.1917 24.9733C55.1917 20.0534 58.1763 16.7656 62.6299 16.7656C67.3633 16.7656 69.9282 19.9834 69.9282 25.7661H57.9898V25.8127ZM66.3373 21.056C65.6145 19.8202 64.1455 19.074 62.6299 19.074C60.0184 19.074 58.3628 20.7296 58.0364 23.7142H67.0835C66.9436 22.3385 66.757 21.6856 66.3373 21.056Z" fill="#32253E"/>
<path d="M72.54 11.3564H75.1981V19.6108C76.2941 17.7687 77.8097 16.906 80.0248 16.906C83.8721 16.906 86.6236 20.2636 86.6236 25.067C86.6236 29.8703 84.012 33.1348 80.0481 33.1348C77.8796 33.1348 76.4573 32.272 75.0816 30.2434V32.8083H72.5167V11.3564H72.54ZM75.2448 24.997C75.2448 28.4014 77.1801 30.9196 79.6984 30.9196C82.1234 30.9196 83.7322 28.6345 83.7322 25.0903C83.7322 21.3829 82.1234 19.0745 79.6051 19.0745C77.0868 19.0745 75.2448 21.4995 75.2448 24.997Z" fill="#32253E"/>
<path d="M91.4474 26.2787C91.4007 29.0301 93.1495 30.8256 95.9009 30.8256C98.3726 30.8256 100.168 29.2633 100.168 27.1181C100.168 24.9263 98.4658 23.5739 95.7144 23.5739C95.4346 23.5739 95.2014 23.5739 94.805 23.6205V21.2422C95.1315 21.2422 95.318 21.2422 95.5045 21.2422C98.3492 21.2422 100.005 20.0064 100.005 17.7912C100.005 15.716 98.3959 14.3869 95.9709 14.3869C93.3594 14.3869 91.8437 15.9492 91.7505 18.7006H88.9058C89.0923 14.4335 91.7038 11.9619 96.0175 11.9619C100.005 11.9619 102.803 14.247 102.803 17.5581C102.803 19.7499 101.241 21.7785 99.142 22.3381C101.707 22.991 103.083 24.7165 103.083 27.3047C103.083 30.8023 100.098 33.2739 95.8776 33.2739C91.4707 33.2739 88.4861 30.4292 88.5327 26.302C88.5094 26.2787 91.4474 26.2787 91.4474 26.2787Z" fill="#32253E"/>
</g>
<defs>
<clipPath id="clip0_209_30781">
<rect width="103.995" height="46.6345" fill="white"/>
</clipPath>
</defs>
</svg>
