<svg width="680" height="345" viewBox="0 0 680 345" fill="none" xmlns="http://www.w3.org/2000/svg">
<path d="M491.7 79.3699C476.204 73.7236 459.825 70.8902 443.333 71.0033C390 71.0033 352.333 97.8699 352.067 136.437C351.733 164.77 378.833 180.737 399.333 190.203C420.367 199.937 427.4 206.07 427.333 214.77C427.2 228.003 410.533 234.003 395.033 234.003C373.733 234.003 362.1 231.037 344.2 223.603L337.567 220.503L330 264.903C342.967 270.303 366.333 274.937 390.467 275.337C447.167 275.337 484.233 248.637 484.667 207.603C485.133 184.97 470.467 167.87 439.6 153.737C420.833 144.57 409.2 138.437 409.2 129.137C409.2 120.903 419.167 112.103 440 112.103C453.865 111.768 467.645 114.369 480.433 119.737L485.433 121.97L493 79.0699L491.7 79.3699ZM630.1 74.6032H588.433C575.467 74.6032 565.7 78.1699 560.033 91.0366L479.9 272.57H536.6L547.933 242.803L617.133 242.87C618.767 249.837 623.767 272.57 623.767 272.57H673.767L630.1 74.6032ZM275.367 72.9366H329.4L295.6 271.003H241.633L275.367 72.8699V72.9366ZM138.2 182.103L143.8 209.603L196.6 74.6032H253.833L168.8 272.303H111.7L65.0333 104.903C64.2775 102.143 62.5025 99.7723 60.0667 98.2699C43.2467 89.5812 25.4248 82.9875 7 78.6366L7.73333 74.4699H94.7C106.5 74.9366 116 78.6366 119.167 91.2366L138.167 182.203L138.2 182.103ZM563.433 202.303L584.967 146.903C584.7 147.503 589.4 135.47 592.133 128.037L595.833 145.137L608.333 202.27H563.4L563.433 202.303Z" fill="black"/>
</svg>
