<svg xmlns="http://www.w3.org/2000/svg" width="78" height="16" viewBox="0 0 78 16" fill="none">
    <g clip-path="url(#clip0_55_3755)">
        <path d="M7.73937 0.322754C3.68175 0.322754 0.344638 3.47275 0.155029 7.44775H3.58694C3.77655 5.34775 5.57783 3.69775 7.73937 3.69775C9.9009 3.69775 11.7022 5.34775 11.8918 7.44775H15.3237C15.1341 3.47275 11.797 0.322754 7.73937 0.322754Z"
              fill="#295acc"></path>
        <path d="M15.3237 8.19775H11.8918C11.7022 10.2978 9.9009 11.9478 7.73937 11.9478C5.57783 11.9478 3.77655 10.2978 3.58694 8.19775H0.155029C0.344638 12.1728 3.68175 15.3228 7.73937 15.3228C11.797 15.3228 15.1341 12.1728 15.3237 8.19775Z"
              fill="#295acc"></path>
        <path d="M7.73937 4.44775C5.84328 4.44775 4.32642 5.94775 4.32642 7.82275C4.32642 9.69775 5.84328 11.1978 7.73937 11.1978C9.63545 11.1978 11.1523 9.69775 11.1523 7.82275C11.1523 5.94775 9.63545 4.44775 7.73937 4.44775Z"
              fill="#295acc"></path>
        <path d="M17.4094 11.1227C18.3764 11.9665 19.571 12.379 20.9361 12.379C22.927 12.379 24.1784 11.404 24.1784 9.71648C24.1784 8.47898 23.3821 7.29773 21.6567 7.09148C21.2206 7.03523 20.8603 6.99773 20.6138 6.94148C19.6847 6.79148 19.3055 6.28523 19.3055 5.77898C19.3055 4.91648 19.9881 4.46648 20.8413 4.46648C21.6946 4.46648 22.453 4.74773 23.1166 5.17898L23.894 4.03523C23.0598 3.49148 22.0359 3.07898 20.8982 3.07898C18.9832 3.07898 17.8834 4.18523 17.8834 5.74148C17.8834 7.05398 18.7367 8.08523 20.3294 8.31023C20.8034 8.36648 21.1258 8.42273 21.5429 8.47898C22.3772 8.57273 22.7564 9.06023 22.7564 9.71648C22.7564 10.4665 22.0738 10.9915 20.9361 10.9915C19.9502 10.9915 19.0211 10.6352 18.3195 10.0727L17.4094 11.1227Z"
              fill="#295acc"></path>
        <path d="M28.9945 12.304H30.3217V7.87902C30.3217 6.28527 29.203 5.74152 27.5914 5.74152C26.6054 5.74152 25.8849 6.00402 25.3729 6.69777L26.4158 7.48527C26.6433 7.11027 26.9656 6.97902 27.6672 6.97902C28.6152 6.97902 29.0134 7.20402 29.0134 7.80402V8.47902H27.1932C25.7711 8.47902 25.0506 9.36027 25.0506 10.4103C25.0506 11.5353 25.9038 12.3978 27.3638 12.3978C28.255 12.3978 28.71 12.1915 28.9755 11.7415H28.9945V12.304ZM28.9945 10.0353C28.9945 11.0478 28.6152 11.1603 27.5155 11.1603C26.6243 11.1603 26.2641 10.7665 26.2641 10.3353C26.2641 9.86652 26.6243 9.54777 27.4017 9.54777H28.9755V10.0353"
              fill="#295acc"></path>
        <path d="M32.1041 5.81648H31.4404V6.81023H32.1041V10.7102C32.1041 11.7415 32.7866 12.304 33.6968 12.304H34.3794V11.0665H33.8864C33.564 11.0665 33.4124 10.9352 33.4124 10.579V6.81023H34.3794V5.81648H33.4124V3.82898H32.0851V5.81648"
              fill="#295acc"></path>
        <path d="M35.2894 9.06027C35.2894 10.4665 35.498 11.0103 36.0099 11.554C36.3702 11.9478 36.9769 12.379 38.0008 12.379C39.0247 12.379 39.6315 11.9478 39.9917 11.554C40.5037 11.0103 40.7122 10.4665 40.7122 9.06027C40.7122 7.65402 40.5037 7.12902 39.9917 6.56652C39.6315 6.17277 39.0247 5.74152 38.0008 5.74152C36.9769 5.74152 36.3702 6.17277 36.0099 6.56652C35.498 7.11027 35.2894 7.65402 35.2894 9.06027ZM39.385 9.06027C39.385 9.99777 39.3091 10.2603 39.0626 10.5978C38.873 10.8603 38.4559 11.0665 38.0008 11.0665C37.5458 11.0665 37.1286 10.8603 36.939 10.5978C36.6925 10.2603 36.6167 9.99777 36.6167 9.04152C36.6167 8.08527 36.6925 7.84152 36.939 7.50402C37.1286 7.24152 37.5458 7.03527 38.0008 7.03527C38.4559 7.03527 38.873 7.24152 39.0626 7.50402C39.3091 7.86027 39.385 8.12277 39.385 9.06027Z"
              fill="#295acc"></path>
        <path d="M41.3759 11.2165C42.2101 12.004 43.1961 12.379 44.2579 12.379C45.7937 12.379 46.9883 11.6477 46.9883 10.3727C46.9883 9.34148 46.4384 8.51648 45.0732 8.42273L43.9925 8.34773C43.3288 8.29148 43.1203 8.01023 43.1203 7.72898C43.1203 7.27898 43.4047 6.94148 44.2389 6.94148C44.9595 6.94148 45.4904 7.18523 46.0023 7.54148L46.8176 6.58523C46.173 6.04148 45.3956 5.70398 44.2389 5.70398C42.8548 5.70398 41.793 6.37898 41.793 7.71023C41.793 8.81648 42.5894 9.47273 43.6891 9.54773L44.8647 9.64148C45.3197 9.67898 45.661 9.82898 45.661 10.279C45.661 10.8227 45.1111 11.104 44.3717 11.104C43.4995 11.104 42.8738 10.8227 42.3049 10.279L41.3759 11.2165Z"
              fill="#295acc"></path>
        <path d="M48.3346 12.304H49.6619V8.44148C49.6619 7.56023 50.2117 7.03523 50.9702 7.03523C51.7286 7.03523 52.2595 7.54148 52.2595 8.44148V12.304H53.5867V7.99148C53.5867 6.51023 52.4112 5.74148 51.3873 5.74148C50.6857 5.74148 50.098 6.00398 49.6808 6.51023H49.6619V3.17273H48.3346V12.304Z"
              fill="#295acc"></path>
        <path d="M55.3311 12.304H56.6583V5.81648H55.3311V12.304ZM55.3311 4.48523H56.6583V3.17273H55.3311V4.48523Z"
              fill="#295acc"></path>
        <path d="M59.9196 4.48528H61.9484C62.3466 4.48528 62.631 4.54153 62.9533 4.74778C63.2946 4.97278 63.5411 5.34778 63.5411 5.96653C63.5411 6.67903 63.0292 7.44778 62.0053 7.44778H59.9385V4.48528M58.5165 12.304H59.9196V8.74153H62.0432C63.9393 8.74153 64.9252 7.29778 64.9252 6.00403C64.9252 5.01028 64.4891 4.24153 63.9203 3.82903C63.1998 3.28528 62.5741 3.19153 61.8536 3.19153H58.5165V12.304Z"
              fill="#295acc"></path>
        <path d="M69.2294 12.304H70.5566V7.87902C70.5566 6.28527 69.4379 5.74152 67.8263 5.74152C66.8403 5.74152 66.1198 6.00402 65.6079 6.69777L66.6507 7.48527C66.8782 7.11027 67.2006 6.97902 67.9021 6.97902C68.8502 6.97902 69.2483 7.20402 69.2483 7.80402V8.47902H67.4281C66.025 8.47902 65.2855 9.36027 65.2855 10.4103C65.2855 11.5353 66.1388 12.3978 67.5987 12.3978C68.4899 12.3978 68.945 12.1915 69.2104 11.7415H69.2294V12.304ZM69.2294 10.0353C69.2294 11.0478 68.8502 11.1603 67.7504 11.1603C66.8593 11.1603 66.499 10.7665 66.499 10.3353C66.499 9.86652 66.8593 9.54777 67.6367 9.54777H69.2104V10.0353"
              fill="#295acc"></path>
        <path d="M73.5904 12.0603L73.2302 13.1478C73.0975 13.5415 72.7751 13.7103 72.4338 13.7103H72.0357V14.9478H72.4718C73.2681 14.9478 73.9697 14.6665 74.3299 13.6728L77.1551 5.83527H75.752L74.1972 10.3915H74.1782L72.6234 5.83527H71.2203L73.5904 12.0603Z"
              fill="#295acc"></path>
    </g>
    <defs>
        <clipPath id="clip0_55_3755">
            <rect width="77" height="15" fill="white" transform="translate(0.155029 0.322754)"></rect>
        </clipPath>
    </defs>
</svg>
