<svg width="1004" height="566" viewBox="0 0 1004 566" fill="none" xmlns="http://www.w3.org/2000/svg">
    <path d="M374.086 73.0205H630.777V492.272H374.086V73.0205Z" fill="#FF5F00"/>
    <path d="M400.525 282.684C400.494 242.313 409.645 202.465 427.288 166.154C444.93 129.842 470.601 98.0201 502.357 73.0948C463.025 42.184 415.79 22.9623 366.051 17.6267C316.311 12.2911 266.074 21.0569 221.08 42.9221C176.087 64.7874 138.153 98.87 111.613 141.275C85.074 183.679 71 232.695 71 282.72C71 332.745 85.074 381.761 111.613 424.165C138.153 466.57 176.087 500.653 221.08 522.518C266.074 544.383 316.311 553.149 366.051 547.813C415.79 542.478 463.025 523.256 502.357 492.345C470.591 467.412 444.914 435.578 427.271 399.253C409.629 362.928 400.482 323.065 400.525 282.682V282.684Z"
          fill="#EB001B"/>
    <path d="M908.277 447.909V439.319H911.98V437.541H903.167V439.319H906.648V447.91L908.277 447.909ZM925.385 447.909V437.543H922.718L919.608 444.947L916.497 437.541H913.832V447.909H915.757V440.059L918.646 446.8H920.645L923.534 440.059V447.909H925.385Z"
          fill="#F79E1B"/>
    <path d="M933.753 282.683C933.752 332.712 919.675 381.731 893.131 424.137C866.587 466.543 828.646 500.625 783.647 522.487C738.648 544.35 688.406 553.11 638.663 547.766C588.921 542.423 541.685 523.192 502.356 492.271C534.1 467.323 559.763 435.492 577.41 399.179C595.057 362.866 604.227 323.02 604.227 282.646C604.227 242.272 595.057 202.425 577.41 166.112C559.763 129.799 534.1 97.968 502.356 73.0206C541.685 42.0998 588.921 22.8686 638.664 17.5252C688.406 12.1818 738.649 20.942 783.648 42.8042C828.647 64.6665 866.587 98.7487 893.131 141.155C919.675 183.561 933.753 232.58 933.753 282.609V282.683Z"
          fill="#F79E1B"/>
</svg>
