<svg width="1178" height="430" viewBox="0 0 1178 430" fill="none" xmlns="http://www.w3.org/2000/svg">
<path d="M1 217.024H82.2158C82.2158 220.395 82.001 223.617 82.2532 226.81C83.7473 245.618 91.7596 254.05 110.586 254.545C128.908 255.022 147.286 254.564 165.607 253.752C179.4 253.135 188.02 244.077 188.627 230.378C188.907 224.093 188.823 217.575 187.478 211.477C185.62 203.007 179.671 197.609 170.874 196.685C153.729 194.873 136.528 193.547 119.355 191.988C97.2599 189.989 74.9226 189.69 53.3696 183.592C40.6601 179.997 28.8844 174.572 19.8262 164.458C11.3096 154.961 7.34075 143.428 5.31432 131.176C1.18676 106.261 1.26147 81.3746 6.45361 56.5719C11.5804 32.1054 27.6891 18.0418 50.344 10.2349C68.8433 3.85681 88.1737 3.14709 107.42 2.70819C129.02 2.22259 150.647 2.23195 172.247 2.78291C187.609 3.17512 202.98 4.58521 217.678 9.74933C242.5 18.462 256.283 36.5785 261.111 61.8014C262.68 69.9912 262.839 78.4611 263.362 86.8189C263.67 91.7402 263.418 96.6989 263.418 102.022H182.865C182.305 96.3441 181.838 90.8064 181.184 85.2874C180.259 77.4245 176.132 71.9055 168.446 69.7577C162.946 68.2262 157.268 66.9002 151.6 66.4799C135.911 65.3313 120.232 65.4434 104.712 68.6931C94.4771 70.841 88.4912 76.9949 87.3146 87.2765C86.6515 93.0943 86.278 99.1362 87.0718 104.898C88.734 116.991 95.2522 122.818 108.158 123.976C125.182 125.517 142.271 126.442 159.313 127.814C179.736 129.458 200.346 129.775 220.293 135.248C236.037 139.571 250.344 146.314 260.215 160.125C266.807 169.351 269.908 179.764 271.047 190.96C273.391 213.98 273.092 236.924 269.413 259.775C264.809 288.304 247.066 305.355 220.312 313.078C207.742 316.711 194.491 318.747 181.417 319.69C150.208 321.94 118.897 321.436 87.7348 318.719C74.5023 317.57 61.0644 315.637 48.4109 311.799C24.57 304.562 9.62865 287.967 5.60381 263.127C3.12914 248.046 2.49414 232.666 1 217.024Z" fill="#0F298F" stroke="#0F298F" stroke-width="0.933837" stroke-miterlimit="10"/>
<path d="M1175.29 320.605H1088.23C1085.4 311.201 1082.5 301.611 1079.63 292.02C1077.37 284.437 1075.12 276.845 1072.95 269.235C1072.24 266.751 1071.17 265.453 1068.2 265.462C1032.26 265.602 996.321 265.639 960.378 265.527C957.044 265.518 955.895 266.629 955.064 269.692C950.47 286.613 945.642 303.469 940.832 320.586H851.726C853.799 313.62 855.834 306.719 857.908 299.827C884.223 212.14 910.529 124.453 936.854 36.7652C940.197 25.6152 943.709 14.5119 946.94 3.33385C947.696 0.719103 948.891 0.00936981 951.506 0.0187082C992.268 0.112092 1033.04 0.149456 1073.8 4.16934e-05C1077.43 -0.00929668 1078.53 1.55021 1079.43 4.51981C1094.88 55.4513 1110.41 106.364 1125.89 157.286C1141.96 210.141 1158.01 263.006 1174.05 315.88C1174.48 317.337 1174.82 318.831 1175.29 320.605ZM1054.6 202.867C1041.22 156.894 1027.98 111.36 1014.73 65.8262C1014.33 65.8542 1013.93 65.8729 1013.53 65.9009C1000.69 111.444 987.842 156.987 974.908 202.867H1054.6ZM616.389 0.0840836H621.488C673.316 0.0840836 725.144 -0.102669 776.963 0.186821C794.341 0.280204 811.813 0.625728 828.632 6.17272C860.027 16.5103 878.461 38.4835 883.803 70.5608C889.583 105.3 889.032 140.337 882.99 175.038C877.35 207.415 854.499 229.705 822.02 234.776C810.105 236.634 797.871 236.784 785.769 237.017C759.173 237.531 732.568 237.587 705.963 237.848C704.908 237.858 703.843 237.998 702.302 238.119V320.53H616.38C616.389 213.811 616.389 107.27 616.389 0.0840836ZM702.704 70.3273C702.405 71.4946 702.2 71.9335 702.2 72.3724C702.172 101.779 702.19 131.185 702.097 160.592C702.088 163.431 703.423 163.982 705.814 163.926C729.43 163.356 753.075 163.197 776.673 162.152C789.401 161.582 795.331 155.428 797.442 142.877C799.879 128.365 799.935 113.713 798.17 99.1829C795.639 78.349 786.609 70.6448 765.402 70.346C754.046 70.1872 742.682 70.3273 731.326 70.3273H702.704Z" fill="#0F298F"/>
<path d="M601.336 43.4327C560.023 7.78816 512.164 -5.463 459.001 5.01465C404.773 15.6977 365.402 47.0467 341.841 97.4459C340.571 100.163 339.105 101.05 336.22 100.994C326.881 100.836 317.543 101.032 308.214 100.873C305.207 100.817 303.535 101.573 302.209 104.571C297.643 114.946 292.647 125.125 287.856 135.406C285.802 139.823 283.859 144.296 281.469 149.647H328.403V175.347C322.053 175.347 315.871 175.477 309.689 175.291C306.953 175.206 305.543 176.131 304.413 178.652C300.174 188.159 295.672 197.544 291.283 206.985C288.753 212.42 286.241 217.864 283.486 223.822H289.322C305.347 223.822 321.381 223.869 337.406 223.794C339.964 223.785 341.514 224.317 342.822 226.913C372.042 285.007 419.397 315.992 484.083 319.998C518.411 322.118 550.264 313.256 579.55 295.111C582.398 293.346 583.612 291.563 583.556 288.145C583.341 275.389 583.462 262.623 583.462 249.867V232.273C558.426 259.952 528.338 274.259 491.713 272.578C455.134 270.897 426.522 254.256 404.978 225.27C405.118 224.793 405.268 224.317 405.408 223.841H410.768C446.095 223.841 481.422 223.775 516.749 223.953C520.475 223.971 522.184 222.785 523.585 219.489C526.61 212.345 530.103 205.388 533.371 198.338C536.817 190.923 540.226 183.49 543.98 175.365H538.218C489.35 175.356 440.492 175.356 391.624 175.347C390.382 175.347 389 175.673 387.926 175.244C386.74 174.768 384.966 173.619 384.938 172.722C384.695 165.149 384.798 157.557 384.798 149.377H390.476C444.321 149.386 498.166 149.367 552.011 149.489C555.158 149.498 556.783 148.452 558.034 145.716C564.347 131.867 570.8 118.074 577.168 104.244C577.579 103.348 577.757 102.339 578.27 100.658H401.308C435.524 41.0608 529.729 21.8891 585.507 89.5456C591.54 76.612 597.143 64.1639 603.176 51.94C605.015 48.1393 604.446 46.1128 601.336 43.4327Z" fill="#FFBE01" stroke="#0F298F" stroke-width="2.80151" stroke-miterlimit="10"/>
<path d="M4.14709 389.354L16.8846 388.112C17.6504 392.389 19.2099 395.527 21.5538 397.535C23.8978 399.542 27.0635 400.542 31.0416 400.542C35.2626 400.542 38.4376 399.645 40.5761 397.861C42.7146 396.078 43.7791 393.995 43.7791 391.605C43.7791 390.073 43.3309 388.766 42.4344 387.692C41.5379 386.618 39.9598 385.675 37.7279 384.881C36.1964 384.349 32.7038 383.406 27.2409 382.052C20.2184 380.315 15.2971 378.176 12.4676 375.636C8.48944 372.069 6.50038 367.717 6.50038 362.59C6.50038 359.285 7.4342 356.203 9.31121 353.327C11.1789 350.451 13.8777 348.265 17.4076 346.762C20.9282 345.258 25.1865 344.502 30.1638 344.502C38.2975 344.502 44.4235 346.286 48.5417 349.853C52.6506 353.42 54.8171 358.183 55.0226 364.141L41.9302 364.72C41.3699 361.386 40.1652 358.995 38.3255 357.529C36.4859 356.072 33.7217 355.344 30.0331 355.344C26.2323 355.344 23.2534 356.128 21.0962 357.688C19.7142 358.687 19.0138 360.032 19.0138 361.713C19.0138 363.244 19.6581 364.561 20.9562 365.653C22.6091 367.035 26.6152 368.483 32.984 369.986C39.3528 371.49 44.0593 373.049 47.1129 374.656C50.1666 376.262 52.5572 378.456 54.2755 381.248C56.0031 384.031 56.8622 387.477 56.8622 391.577C56.8622 395.293 55.8256 398.777 53.7619 402.017C51.6981 405.257 48.7752 407.676 45.0025 409.245C41.2298 410.823 36.5232 411.607 30.8922 411.607C22.6931 411.607 16.3991 409.712 12.01 405.92C7.62098 402.129 4.99689 396.61 4.14709 389.354ZM67.7881 357.118V345.623H80.2175V357.118H67.7881ZM67.7881 410.459V363.487H80.2175V410.459H67.7881ZM135.687 410.459H123.258V386.487C123.258 381.417 122.997 378.139 122.464 376.645C121.932 375.15 121.073 374.002 119.878 373.171C118.682 372.349 117.244 371.929 115.563 371.929C113.406 371.929 111.482 372.517 109.773 373.694C108.065 374.87 106.888 376.439 106.253 378.382C105.618 380.324 105.3 383.929 105.3 389.177V410.45H92.871V363.478H104.413V370.379C108.513 365.074 113.668 362.413 119.896 362.413C122.642 362.413 125.144 362.908 127.414 363.898C129.683 364.888 131.401 366.148 132.568 367.68C133.736 369.211 134.548 370.958 135.006 372.9C135.463 374.842 135.687 377.634 135.687 381.258V410.459ZM147.136 413.55L161.331 415.277C161.564 416.93 162.115 418.06 162.965 418.686C164.141 419.573 166 420.012 168.54 420.012C171.78 420.012 174.218 419.526 175.833 418.555C176.926 417.902 177.747 416.856 178.308 415.418C178.691 414.381 178.887 412.485 178.887 409.712V402.857C175.17 407.928 170.482 410.468 164.823 410.468C158.51 410.468 153.514 407.797 149.826 402.465C146.94 398.244 145.493 392.996 145.493 386.721C145.493 378.849 147.388 372.835 151.18 368.679C154.971 364.523 159.678 362.441 165.309 362.441C171.117 362.441 175.908 364.99 179.68 370.089V363.496H191.316V405.65C191.316 411.197 190.858 415.333 189.943 418.079C189.028 420.824 187.749 422.972 186.096 424.541C184.443 426.101 182.239 427.324 179.484 428.211C176.73 429.098 173.237 429.537 169.025 429.537C161.06 429.537 155.419 428.174 152.086 425.447C148.752 422.72 147.09 419.265 147.09 415.072C147.099 414.642 147.108 414.138 147.136 413.55ZM158.24 385.992C158.24 390.979 159.201 394.621 161.134 396.937C163.068 399.253 165.449 400.411 168.278 400.411C171.313 400.411 173.881 399.225 175.973 396.853C178.065 394.481 179.111 390.96 179.111 386.301C179.111 381.435 178.112 377.821 176.104 375.468C174.096 373.105 171.565 371.929 168.493 371.929C165.514 371.929 163.058 373.087 161.125 375.403C159.201 377.719 158.24 381.248 158.24 385.992ZM203.624 410.459V345.623H216.053V410.459H203.624ZM255.984 395.508L268.367 397.591C266.77 402.129 264.258 405.594 260.822 407.966C257.385 410.337 253.089 411.523 247.925 411.523C239.754 411.523 233.712 408.853 229.79 403.52C226.69 399.243 225.149 393.846 225.149 387.328C225.149 379.54 227.185 373.451 231.256 369.043C235.328 364.635 240.473 362.432 246.693 362.432C253.678 362.432 259.197 364.738 263.231 369.351C267.274 373.964 269.198 381.034 269.021 390.559H237.887C237.971 394.247 238.979 397.114 240.893 399.159C242.808 401.214 245.199 402.232 248.056 402.232C249.998 402.232 251.642 401.699 252.968 400.635C254.294 399.57 255.312 397.861 255.984 395.508ZM256.694 382.948C256.61 379.353 255.676 376.617 253.911 374.74C252.146 372.872 249.989 371.929 247.449 371.929C244.732 371.929 242.5 372.919 240.725 374.889C238.96 376.869 238.083 379.549 238.12 382.939H256.694V382.948ZM304.422 410.459V345.623H352.496V356.595H317.515V370.967H350.068V381.893H317.515V399.542H353.738V410.468H304.422V410.459ZM395.668 410.459V403.427C393.959 405.93 391.708 407.91 388.925 409.357C386.143 410.804 383.201 411.523 380.101 411.523C376.944 411.523 374.115 410.832 371.612 409.441C369.109 408.059 367.288 406.107 366.168 403.604C365.047 401.102 364.487 397.637 364.487 393.211V363.487H376.916V385.068C376.916 391.67 377.14 395.723 377.598 397.208C378.055 398.693 378.887 399.878 380.101 400.747C381.305 401.615 382.846 402.054 384.704 402.054C386.824 402.054 388.729 401.475 390.41 400.308C392.091 399.141 393.24 397.703 393.856 395.975C394.472 394.247 394.781 390.026 394.781 383.303V363.487H407.21V410.459H395.668ZM431.975 410.459H419.546V363.487H431.088V370.164C433.068 367.007 434.842 364.934 436.42 363.926C437.998 362.927 439.791 362.422 441.79 362.422C444.619 362.422 447.346 363.207 449.97 364.766L446.123 375.599C444.031 374.245 442.079 373.563 440.286 373.563C438.549 373.563 437.074 374.039 435.86 375.001C434.655 375.963 433.703 377.691 433.012 380.203C432.321 382.705 431.975 387.953 431.975 395.947V410.459ZM452.454 386.301C452.454 382.173 453.472 378.176 455.508 374.319C457.544 370.463 460.42 367.512 464.155 365.476C467.881 363.44 472.046 362.422 476.65 362.422C483.757 362.422 489.584 364.729 494.122 369.342C498.661 373.955 500.93 379.792 500.93 386.833C500.93 393.939 498.633 399.832 494.047 404.501C489.462 409.17 483.691 411.514 476.734 411.514C472.429 411.514 468.32 410.543 464.417 408.591C460.513 406.649 457.544 403.791 455.508 400.028C453.472 396.283 452.454 391.698 452.454 386.301ZM465.192 386.963C465.192 391.623 466.294 395.191 468.507 397.665C470.72 400.14 473.447 401.382 476.687 401.382C479.928 401.382 482.655 400.14 484.849 397.665C487.044 395.191 488.146 391.595 488.146 386.87C488.146 382.266 487.044 378.736 484.849 376.252C482.655 373.778 479.928 372.536 476.687 372.536C473.447 372.536 470.72 373.778 468.507 376.252C466.294 378.727 465.192 382.313 465.192 386.963ZM535.911 410.459V345.623H556.923C564.888 345.623 570.071 345.949 572.49 346.594C576.206 347.565 579.316 349.685 581.819 352.944C584.321 356.203 585.582 360.415 585.582 365.569C585.582 369.547 584.863 372.9 583.416 375.608C581.968 378.326 580.138 380.455 577.906 381.996C575.683 383.546 573.414 384.573 571.117 385.068C567.989 385.684 563.469 386.002 557.539 386.002H549.004V410.459H535.911ZM549.004 356.586V374.982H556.166C561.33 374.982 564.776 374.646 566.513 373.965C568.25 373.283 569.613 372.228 570.603 370.78C571.593 369.333 572.088 367.652 572.088 365.737C572.088 363.375 571.397 361.432 570.006 359.901C568.624 358.369 566.868 357.408 564.739 357.025C563.179 356.726 560.032 356.586 555.316 356.586H549.004ZM605.538 377.812L594.257 375.776C595.528 371.238 597.713 367.876 600.804 365.691C603.904 363.506 608.498 362.422 614.606 362.422C620.153 362.422 624.28 363.076 626.988 364.393C629.697 365.709 631.611 367.372 632.713 369.389C633.815 371.406 634.375 375.113 634.375 380.511L634.244 395.023C634.244 399.15 634.44 402.194 634.842 404.155C635.244 406.117 635.981 408.218 637.074 410.459H624.775C624.448 409.637 624.047 408.414 623.58 406.789C623.375 406.051 623.225 405.566 623.141 405.332C621.021 407.396 618.743 408.946 616.333 409.973C613.915 411.01 611.337 411.523 608.592 411.523C603.755 411.523 599.945 410.216 597.162 407.592C594.379 404.968 592.978 401.653 592.978 397.637C592.978 394.985 593.613 392.613 594.883 390.54C596.153 388.458 597.927 386.87 600.215 385.759C602.503 384.657 605.79 383.686 610.105 382.864C615.913 381.771 619.938 380.754 622.179 379.81V378.568C622.179 376.178 621.591 374.478 620.414 373.46C619.238 372.442 617.006 371.938 613.737 371.938C611.524 371.938 609.806 372.377 608.564 373.245C607.303 374.105 606.304 375.636 605.538 377.812ZM622.161 387.897C620.564 388.43 618.052 389.065 614.596 389.802C611.151 390.54 608.891 391.259 607.826 391.969C606.201 393.118 605.389 394.574 605.389 396.349C605.389 398.086 606.043 399.589 607.331 400.859C608.62 402.129 610.282 402.764 612.28 402.764C614.522 402.764 616.66 402.026 618.696 400.551C620.199 399.43 621.189 398.058 621.656 396.442C621.983 395.377 622.142 393.36 622.142 390.381V387.897H622.161ZM640.744 363.487H653.967L665.201 396.834L676.174 363.487H689.042L672.457 408.694L669.497 416.874C668.404 419.62 667.368 421.712 666.378 423.159C665.388 424.606 664.258 425.774 662.969 426.67C661.69 427.567 660.112 428.267 658.235 428.771C656.358 429.276 654.247 429.528 651.885 429.528C649.494 429.528 647.15 429.276 644.853 428.771L643.751 419.041C645.693 419.424 647.449 419.62 649.008 419.62C651.903 419.62 654.032 418.77 655.424 417.08C656.806 415.38 657.871 413.223 658.608 410.599L640.744 363.487ZM696.074 363.487H707.532V369.902C711.632 364.916 716.515 362.432 722.174 362.432C725.181 362.432 727.796 363.048 730 364.29C732.213 365.532 734.025 367.4 735.444 369.912C737.508 367.409 739.731 365.532 742.121 364.29C744.512 363.048 747.061 362.432 749.769 362.432C753.225 362.432 756.138 363.132 758.529 364.533C760.919 365.934 762.703 367.988 763.88 370.705C764.739 372.713 765.159 375.954 765.159 380.436V410.468H752.73V383.62C752.73 378.961 752.3 375.954 751.45 374.6C750.302 372.835 748.527 371.947 746.146 371.947C744.409 371.947 742.766 372.48 741.234 373.544C739.703 374.609 738.591 376.159 737.919 378.213C737.237 380.268 736.901 383.499 736.901 387.925V410.487H724.472V384.713C724.472 380.147 724.248 377.196 723.809 375.87C723.37 374.544 722.679 373.554 721.754 372.909C720.83 372.265 719.56 371.938 717.972 371.938C716.058 371.938 714.33 372.452 712.799 373.488C711.267 374.525 710.165 376.01 709.502 377.952C708.839 379.894 708.503 383.125 708.503 387.636V410.459H696.074V363.487ZM804.744 395.508L817.127 397.591C815.53 402.129 813.018 405.594 809.582 407.966C806.145 410.337 801.849 411.523 796.685 411.523C788.514 411.523 782.472 408.853 778.55 403.52C775.45 399.243 773.909 393.846 773.909 387.328C773.909 379.54 775.945 373.451 780.016 369.043C784.088 364.635 789.233 362.432 795.453 362.432C802.438 362.432 807.957 364.738 811.991 369.351C816.025 373.964 817.958 381.034 817.781 390.559H786.647C786.74 394.247 787.739 397.114 789.654 399.159C791.568 401.214 793.959 402.232 796.816 402.232C798.759 402.232 800.402 401.699 801.728 400.635C803.064 399.57 804.063 397.861 804.744 395.508ZM805.454 382.948C805.361 379.353 804.436 376.617 802.671 374.74C800.906 372.872 798.749 371.929 796.209 371.929C793.501 371.929 791.26 372.919 789.485 374.889C787.72 376.869 786.843 379.549 786.88 382.939H805.454V382.948ZM870.645 410.459H858.216V386.487C858.216 381.417 857.954 378.139 857.422 376.645C856.89 375.15 856.031 374.002 854.835 373.171C853.64 372.349 852.202 371.929 850.521 371.929C848.364 371.929 846.431 372.517 844.722 373.694C843.013 374.87 841.836 376.439 841.201 378.382C840.566 380.324 840.249 383.929 840.249 389.177V410.45H827.819V363.478H839.362V370.379C843.461 365.074 848.616 362.413 854.845 362.413C857.59 362.413 860.093 362.908 862.362 363.898C864.631 364.888 866.35 366.148 867.517 367.68C868.684 369.211 869.497 370.958 869.954 372.9C870.412 374.842 870.636 377.634 870.636 381.258V410.459H870.645ZM904.796 363.487V373.395H896.307V392.324C896.307 396.162 896.391 398.394 896.55 399.029C896.709 399.664 897.082 400.187 897.652 400.598C898.231 401.008 898.931 401.214 899.753 401.214C900.902 401.214 902.573 400.812 904.749 400.019L905.814 409.665C902.928 410.907 899.65 411.523 895.999 411.523C893.758 411.523 891.741 411.15 889.938 410.393C888.136 409.646 886.819 408.666 885.979 407.471C885.138 406.275 884.559 404.66 884.233 402.624C883.971 401.177 883.831 398.263 883.831 393.865V373.386H878.125V363.478H883.831V354.149L896.307 346.893V363.478H904.796V363.487ZM909.035 397.049L921.511 395.144C922.044 397.563 923.118 399.393 924.742 400.654C926.358 401.905 928.636 402.531 931.55 402.531C934.762 402.531 937.181 401.942 938.806 400.766C939.899 399.944 940.44 398.833 940.44 397.451C940.44 396.507 940.141 395.723 939.553 395.107C938.937 394.518 937.545 393.977 935.397 393.472C925.368 391.259 919.018 389.242 916.338 387.412C912.621 384.872 910.763 381.351 910.763 376.841C910.763 372.769 912.369 369.351 915.581 366.578C918.794 363.804 923.781 362.422 930.532 362.422C936.957 362.422 941.738 363.468 944.867 365.56C947.995 367.652 950.143 370.752 951.329 374.852L939.609 377.018C939.105 375.188 938.152 373.787 936.752 372.816C935.351 371.845 933.352 371.359 930.756 371.359C927.479 371.359 925.135 371.817 923.724 372.732C922.781 373.376 922.305 374.217 922.305 375.253C922.305 376.14 922.716 376.887 923.547 377.513C924.668 378.335 928.534 379.502 935.155 381.006C941.776 382.509 946.398 384.349 949.022 386.534C951.618 388.747 952.916 391.829 952.916 395.779C952.916 400.084 951.114 403.782 947.519 406.882C943.923 409.973 938.601 411.523 931.55 411.523C925.153 411.523 920.083 410.225 916.357 407.629C912.631 405.033 910.184 401.503 909.035 397.049ZM1044.16 410.459H1029.92L1024.26 395.732H998.347L992.997 410.459H979.11L1004.36 345.623H1018.2L1044.16 410.459ZM1020.05 384.797L1011.11 360.732L1002.35 384.797H1020.05ZM1062.91 410.459H1050.48V363.487H1062.03V370.164C1064.01 367.007 1065.78 364.934 1067.36 363.926C1068.94 362.927 1070.73 362.422 1072.74 362.422C1075.57 362.422 1078.29 363.207 1080.92 364.766L1077.07 375.599C1074.98 374.245 1073.03 373.563 1071.23 373.563C1069.5 373.563 1068.02 374.039 1066.81 375.001C1065.6 375.963 1064.65 377.691 1063.96 380.203C1063.27 382.705 1062.92 387.953 1062.92 395.947V410.459H1062.91ZM1113.47 395.508L1125.85 397.591C1124.26 402.129 1121.74 405.594 1118.31 407.966C1114.87 410.337 1110.58 411.523 1105.41 411.523C1097.24 411.523 1091.2 408.853 1087.28 403.52C1084.18 399.243 1082.64 393.846 1082.64 387.328C1082.64 379.54 1084.67 373.451 1088.74 369.043C1092.81 364.635 1097.96 362.432 1104.18 362.432C1111.16 362.432 1116.68 364.738 1120.72 369.351C1124.75 373.964 1126.68 381.034 1126.51 390.559H1095.37C1095.47 394.247 1096.47 397.114 1098.38 399.159C1100.29 401.214 1102.69 402.232 1105.54 402.232C1107.49 402.232 1109.13 401.699 1110.45 400.635C1111.78 399.57 1112.79 397.861 1113.47 395.508ZM1114.17 382.948C1114.08 379.353 1113.15 376.617 1111.39 374.74C1109.62 372.872 1107.47 371.929 1104.93 371.929C1102.22 371.929 1099.98 372.919 1098.2 374.889C1096.44 376.869 1095.56 379.549 1095.6 382.939H1114.17V382.948ZM1145.93 377.812L1134.65 375.776C1135.92 371.238 1138.1 367.876 1141.2 365.691C1144.29 363.506 1148.89 362.422 1155 362.422C1160.55 362.422 1164.67 363.076 1167.38 364.393C1170.09 365.709 1172 367.372 1173.11 369.389C1174.21 371.406 1174.77 375.113 1174.77 380.511L1174.64 395.023C1174.64 399.15 1174.83 402.194 1175.23 404.155C1175.64 406.117 1176.37 408.218 1177.47 410.459H1165.17C1164.84 409.637 1164.45 408.414 1163.97 406.789C1163.77 406.051 1163.62 405.566 1163.53 405.332C1161.41 407.396 1159.14 408.946 1156.73 409.973C1154.31 411.01 1151.73 411.523 1148.98 411.523C1144.15 411.523 1140.34 410.216 1137.55 407.592C1134.77 404.968 1133.37 401.653 1133.37 397.637C1133.37 394.985 1134.01 392.613 1135.28 390.54C1136.55 388.458 1138.32 386.87 1140.61 385.759C1142.9 384.657 1146.19 383.686 1150.5 382.864C1156.31 381.771 1160.33 380.754 1162.57 379.81V378.568C1162.57 376.178 1161.98 374.478 1160.81 373.46C1159.63 372.442 1157.4 371.938 1154.13 371.938C1151.92 371.938 1150.19 372.377 1148.96 373.245C1147.7 374.105 1146.7 375.636 1145.93 377.812ZM1162.56 387.897C1160.97 388.43 1158.45 389.065 1155 389.802C1151.54 390.54 1149.29 391.259 1148.23 391.969C1146.6 393.118 1145.8 394.574 1145.8 396.349C1145.8 398.086 1146.44 399.589 1147.74 400.859C1149.04 402.129 1150.69 402.764 1152.69 402.764C1154.93 402.764 1157.07 402.026 1159.11 400.551C1160.61 399.43 1161.6 398.058 1162.07 396.442C1162.39 395.377 1162.55 393.36 1162.55 390.381V387.897H1162.56Z" fill="black"/>
</svg>
