<svg width="119" height="119" viewBox="0 0 119 119" fill="none" xmlns="http://www.w3.org/2000/svg">
<path d="M54.8201 79.8386C52.4501 81.4286 50.0201 81.7386 47.6501 79.9086C45.3001 78.0986 45.0801 75.6185 45.9901 72.5785C42.9101 73.2485 40.1401 73.2285 38.3201 70.4885C36.7601 68.1385 37.1401 65.8386 38.6801 63.6186C38.8701 63.4286 39.0601 63.2486 39.2501 63.0586C40.3501 62.2686 41.6301 61.4986 42.9101 61.7586C45.2501 62.2286 44.82 61.1486 44.95 59.4986C45.12 57.2186 44.8801 56.2886 42.3301 56.6586C41.4001 56.7886 40.3301 55.9685 39.3301 55.5785C39.0601 55.3085 38.7901 55.0386 38.5201 54.7786C37.1701 52.5086 36.75 50.1986 38.39 47.9086C40.21 45.3686 42.7801 45.1486 45.9401 45.9886C45.1401 42.8786 45.2601 40.1486 47.9901 38.3386C50.3301 36.7986 52.6301 37.1785 54.8301 38.7085C55.0201 38.8985 55.2 39.0886 55.39 39.2786C55.84 40.3886 56.81 41.5786 56.64 42.5786C56.19 45.2786 57.4701 44.7886 59.3401 44.9386C61.5901 45.1186 61.7801 44.5086 61.7201 42.5886C61.6801 41.4986 62.5401 40.3886 62.9901 39.2786C63.1901 39.0786 63.3901 38.8686 63.5901 38.6686C65.9501 37.0086 68.3801 36.7286 70.7501 38.5286C73.1101 40.3286 73.39 42.7886 72.48 45.8086C75.48 45.2886 78.2801 45.1585 80.1201 47.9285C81.6801 50.2785 81.3201 52.5786 79.8401 54.8186C79.6101 55.0486 79.3801 55.2686 79.1601 55.4986C78.0401 55.9386 76.8701 56.8386 75.8101 56.7186C73.5201 56.4586 73.5501 57.2685 73.5801 59.2085C73.6101 61.0885 73.5001 61.9886 75.8201 61.7286C76.8801 61.6086 78.0501 62.5185 79.1601 62.9585C79.3901 63.1885 79.62 63.4186 79.8601 63.6486C81.4401 66.0086 81.7501 68.4386 79.9401 70.7886C78.1401 73.1186 75.72 73.4885 72.67 72.4885C73.29 75.6285 73.1901 78.4886 70.2901 80.2886C68.0601 81.6686 65.8601 81.2886 63.7401 79.9386C63.4501 79.6486 63.1701 79.3585 62.8801 79.0785C61.7601 77.4185 61.4701 75.5685 61.7801 73.6385C58.5901 73.2785 55.9401 73.3686 56.2701 77.5986C56.3101 78.1086 55.7501 78.6586 55.4601 79.1886C55.2401 79.4186 55.0301 79.6286 54.8201 79.8386ZM70.1001 70.1085C68.2701 68.9985 72.1101 65.5085 68.0301 65.4885C65.9501 65.4785 65.46 66.1886 65.48 68.1186C65.51 72.1686 68.9501 68.3385 70.1001 70.1085ZM48.45 70.1586C49.58 68.6286 53.6501 72.2586 52.9401 67.2786C52.3701 63.3186 49.8601 66.4386 48.4701 65.4186C49.0401 67.0686 48.44 68.4486 48.45 70.1586ZM70.2401 48.4486C65.4101 48.9486 65.53 48.9686 65.39 50.0886C64.92 53.9786 67.86 52.6585 70.14 53.2685C69.46 51.4585 69.9901 49.9786 70.2401 48.4486ZM48.4101 48.2386C48.6801 49.9986 48.8501 51.5085 48.5801 53.2085C49.9101 52.0185 52.5801 54.9586 53.0301 51.0386C53.5801 46.1886 49.4901 50.0386 48.4101 48.2386ZM57.3701 58.9486C57.4501 59.9786 56.6701 61.4586 58.7801 61.0386C59.8501 60.8286 61.2301 61.5886 61.0501 59.3686C60.9301 57.8586 60.8501 57.2686 59.1201 57.3786C57.8201 57.4586 56.8901 57.3286 57.3701 58.9486Z" fill="#1D4ED8"/>
<path d="M55.4101 39.2786C55.2201 39.0886 55.0401 38.8985 54.8501 38.7085C54.8201 38.4685 54.8501 38.1986 54.7601 37.9886C53.5301 35.2786 53.4901 32.7186 56.0101 30.7386C58.0601 29.1286 60.3701 29.1186 62.4301 30.7186C64.9601 32.6786 64.9301 35.2485 63.7301 37.9585C63.6401 38.1685 63.6601 38.4385 63.6301 38.6785C63.4301 38.8785 63.2301 39.0885 63.0301 39.2885C60.4801 40.3185 57.9401 40.2986 55.4101 39.2786Z" fill="#1D4ED8"/>
<path d="M79.8601 63.6585C79.6301 63.4285 79.4001 63.1985 79.1601 62.9685C78.0901 60.4785 78.1101 57.9985 79.1601 55.5085C79.3901 55.2785 79.6201 55.0585 79.8401 54.8285C80.6501 54.5785 81.4401 54.2685 82.2701 54.1085C84.6201 53.6585 86.6401 54.2285 87.9901 56.3185C89.2201 58.2285 89.2201 60.2385 88.0001 62.1485C86.6601 64.2385 84.6301 64.8185 82.2801 64.3685C81.4601 64.2285 80.6701 63.9085 79.8601 63.6585Z" fill="#1D4ED8"/>
<path d="M62.87 79.0886C63.16 79.3786 63.44 79.6686 63.73 79.9486C63.89 80.5286 64.05 81.1186 64.2 81.6986C64.86 84.1786 64.4601 86.3886 62.2601 87.9186C60.2401 89.3186 58.0601 89.2886 56.0701 87.8386C53.9101 86.2586 53.5601 84.0386 54.2901 81.5786C54.4601 80.9986 54.6501 80.4186 54.8201 79.8386C55.0301 79.6286 55.24 79.4086 55.45 79.1986C57.91 78.1586 60.39 78.1886 62.87 79.0886Z" fill="#1D4ED8"/>
<path d="M39.2601 63.0585C39.0701 63.2485 38.8801 63.4285 38.6901 63.6185C35.7201 64.5685 32.7401 65.4185 30.5301 62.2185C29.2401 60.3585 29.2101 58.3285 30.4401 56.4085C32.5501 53.1385 35.5401 53.8585 38.5401 54.7585C38.8101 55.0285 39.0801 55.2985 39.3501 55.5585C40.3201 58.0785 40.2301 60.5785 39.2601 63.0585Z" fill="#1D4ED8"/>
<path d="M88.6701 75.3886C88.7301 78.1386 86.2501 80.6186 83.5001 80.5686C80.8901 80.5186 78.5601 78.1986 78.5101 75.5786C78.4501 72.8186 80.9201 70.3486 83.6801 70.3986C86.2801 70.4586 88.6101 72.7786 88.6701 75.3886Z" fill="#1D4ED8"/>
<path d="M34.9 80.5285C32.18 80.5585 29.73 78.0685 29.82 75.3585C29.9 72.7685 32.22 70.4885 34.81 70.4585C37.53 70.4285 39.98 72.9185 39.89 75.6285C39.82 78.2185 37.49 80.4985 34.9 80.5285Z" fill="#1D4ED8"/>
<path d="M48.0301 83.4285C48.1401 86.1485 45.7101 88.6585 42.9701 88.6585C40.3801 88.6585 38.0301 86.3785 37.9201 83.7885C37.8101 81.0685 40.2401 78.5585 42.9801 78.5585C45.5801 78.5585 47.9301 80.8285 48.0301 83.4285Z" fill="#1D4ED8"/>
<path d="M83.3001 48.0685C80.5401 47.8985 78.2602 45.2485 78.5402 42.5385C78.8102 39.9185 81.2901 37.7785 83.8601 37.9385C86.6201 38.1085 88.9002 40.7685 88.6202 43.4685C88.3602 46.0885 85.8801 48.2285 83.3001 48.0685Z" fill="#1D4ED8"/>
<path d="M34.6801 37.9685C37.2401 37.8685 39.6701 40.0485 39.8801 42.6485C40.1001 45.3385 37.7701 47.9386 35.0301 48.0486C32.3201 48.1586 29.8101 45.7385 29.8201 43.0085C29.8301 40.4185 32.0901 38.0685 34.6801 37.9685Z" fill="#1D4ED8"/>
<path d="M80.5301 34.9086C80.5201 37.6586 77.9901 40.0786 75.2601 39.9486C72.6501 39.8286 70.3901 37.4686 70.4001 34.8586C70.4101 32.1086 72.94 29.6885 75.67 29.8185C78.28 29.9385 80.5401 32.3086 80.5301 34.9086Z" fill="#1D4ED8"/>
<path d="M43.0001 29.8486C45.7301 29.8586 48.1401 32.3785 48.0101 35.0885C47.8901 37.6885 45.5301 39.9385 42.9501 39.9185C40.2201 39.9085 37.8101 37.3885 37.9301 34.6785C38.0601 32.0885 40.4201 29.8286 43.0001 29.8486Z" fill="#1D4ED8"/>
<path d="M80.5301 83.5485C80.5701 86.2985 78.0801 88.7485 75.3401 88.6785C72.7301 88.6085 70.4301 86.2786 70.4001 83.6686C70.3601 80.9186 72.8401 78.4685 75.5901 78.5485C78.2001 78.6185 80.4901 80.9385 80.5301 83.5485Z" fill="#1D4ED8"/>
<path d="M46.4102 91.4386C46.8202 88.5786 48.4402 87.0486 51.3202 87.0786C54.0702 87.1086 56.0801 89.4486 55.7301 92.2086C55.3601 95.0986 53.5601 96.5486 50.7101 96.3486C47.8001 96.1386 46.4902 94.2586 46.4102 91.4386Z" fill="#1D4ED8"/>
<path d="M91.7 72.0885C88.84 71.8385 87.17 70.3485 87.03 67.4485C86.9 64.6885 89.14 62.4885 91.9 62.6885C94.78 62.8985 96.42 64.5885 96.36 67.4685C96.31 70.3685 94.55 71.8485 91.7 72.0885Z" fill="#1D4ED8"/>
<path d="M31.4001 67.3186C31.1801 70.1786 29.7301 71.9386 26.7901 71.9586C23.8801 71.9786 22.1801 70.3386 22.1401 67.4186C22.1101 64.5086 23.76 62.8186 26.67 62.7686C29.61 62.7286 31.1201 64.4486 31.4001 67.3186Z" fill="#1D4ED8"/>
<path d="M72.0701 91.6785C71.8601 94.5085 70.4101 96.2985 67.5101 96.3885C64.6401 96.4685 62.9201 94.8686 62.6701 91.9786C62.4301 89.2186 64.6101 86.9485 67.3701 87.0485C70.2701 87.1585 71.7801 88.8085 72.0701 91.6785Z" fill="#1D4ED8"/>
<path d="M91.6301 55.8486C88.7601 55.5486 87.1201 54.0186 87.0301 51.1186C86.9501 48.3586 89.2301 46.1886 91.9901 46.4486C94.8701 46.7186 96.4701 48.4386 96.3701 51.3086C96.2601 54.2186 94.4601 55.6486 91.6301 55.8486Z" fill="#1D4ED8"/>
<path d="M26.9301 46.4686C29.7901 46.8186 31.4401 48.3986 31.3301 51.3086C31.2201 54.2286 29.4501 55.8186 26.5601 55.7186C23.6401 55.6186 22.0601 53.8486 22.1501 50.9486C22.2401 48.0086 24.0601 46.6186 26.9301 46.4686Z" fill="#1D4ED8"/>
<path d="M55.8001 26.6586C55.4901 29.7086 53.9701 31.4286 51.0401 31.3786C48.1201 31.3286 46.4601 29.6186 46.5001 26.6986C46.5401 23.7786 48.2601 22.1286 51.1701 22.1486C54.1301 22.1686 55.5301 23.9886 55.8001 26.6586Z" fill="#1D4ED8"/>
<path d="M72.04 26.8185C71.77 29.6685 70.27 31.3185 67.37 31.4185C64.6 31.5185 62.46 29.2886 62.69 26.5186C62.92 23.6386 64.62 22.0486 67.49 22.1286C70.39 22.2086 71.83 23.9785 72.04 26.8185Z" fill="#1D4ED8"/>
<path d="M34.9801 96.0086C32.4301 95.7186 30.7301 94.3786 30.6701 91.8186C30.6201 89.2686 32.2201 87.6086 34.7601 87.5486C37.3101 87.4886 38.9701 89.0986 39.0301 91.6386C39.1101 94.1986 37.4401 95.5886 34.9801 96.0086Z" fill="#1D4ED8"/>
<path d="M59.2902 104.149C56.7802 103.849 55.0702 102.509 55.0102 99.9385C54.9602 97.3785 56.5801 95.7085 59.1201 95.6385C61.6801 95.5785 63.3501 97.1985 63.4201 99.7485C63.5001 102.339 61.8302 103.739 59.2902 104.149Z" fill="#1D4ED8"/>
<path d="M100.13 54.9686C102.4 55.3386 103.95 56.6986 104.09 59.2486C104.21 61.5586 101.82 63.8086 99.5601 63.4986C97.0701 63.1586 95.6101 61.6086 95.5801 59.0586C95.5401 56.8786 97.7601 54.9086 100.13 54.9686Z" fill="#1D4ED8"/>
<path d="M22.8801 59.2085C22.4701 61.8385 21.0701 63.4786 18.5201 63.4086C15.9901 63.3386 14.3901 61.6885 14.4501 59.1485C14.5101 56.6185 16.1701 55.0285 18.7101 55.0785C21.2701 55.1285 22.5501 56.8685 22.8801 59.2085Z" fill="#1D4ED8"/>
<path d="M59.1601 14.3685C61.6601 14.6585 63.3601 15.9985 63.4001 18.5585C63.4501 21.1085 61.8401 22.7685 59.3001 22.8185C56.7501 22.8685 55.1001 21.2585 55.0401 18.7185C54.9801 16.1585 56.6401 14.7685 59.1601 14.3685Z" fill="#1D4ED8"/>
<path d="M39.1101 26.6985C38.8301 29.1885 37.5001 30.8685 34.9501 30.9285C32.4101 30.9785 30.7601 29.3885 30.7001 26.8585C30.6401 24.3185 32.2401 22.6685 34.7701 22.6085C37.3201 22.5385 38.7101 24.1785 39.1101 26.6985Z" fill="#1D4ED8"/>
<path d="M87.88 91.8085C87.46 94.3385 86.06 96.0085 83.49 95.9385C80.94 95.8685 79.32 94.1985 79.38 91.6385C79.45 89.0885 81.12 87.4685 83.68 87.5285C86.25 87.5785 87.59 89.2985 87.88 91.8085Z" fill="#1D4ED8"/>
<path d="M83.5201 22.4686C86.0301 22.7686 87.7401 24.1086 87.8001 26.6786C87.8501 29.2386 86.2301 30.9086 83.6801 30.9686C81.1201 31.0286 79.4501 29.3986 79.3901 26.8486C79.3101 24.2786 80.9801 22.8786 83.5201 22.4686Z" fill="#1D4ED8"/>
<path d="M26.7 79.3486C29.33 79.7486 30.9701 81.1486 30.9001 83.6986C30.8401 86.2286 29.1901 87.8286 26.6501 87.7786C24.1201 87.7186 22.5301 86.0686 22.5701 83.5286C22.6201 80.9586 24.35 79.6786 26.7 79.3486Z" fill="#1D4ED8"/>
<path d="M91.7701 39.1785C89.2601 38.8785 87.5501 37.5285 87.5001 34.9585C87.4501 32.3985 89.0702 30.7285 91.6302 30.6685C94.1902 30.6085 95.8501 32.2385 95.9201 34.7885C95.9801 37.3785 94.3001 38.7785 91.7701 39.1785Z" fill="#1D4ED8"/>
<path d="M30.9901 34.7585C30.7001 37.3085 29.3701 38.9986 26.8201 39.0486C24.2801 39.0986 22.6301 37.4986 22.5701 34.9686C22.5101 32.4286 24.1101 30.7886 26.6401 30.7186C29.2101 30.6486 30.5801 32.3185 30.9901 34.7585Z" fill="#1D4ED8"/>
<path d="M96.0201 83.6986C95.6101 86.1886 94.2401 87.7385 91.6901 87.8585C89.3801 87.9785 87.1401 85.5785 87.4501 83.3085C87.8001 80.8185 89.3601 79.2385 91.9001 79.3685C94.4301 79.5085 95.7501 81.2086 96.0201 83.6986Z" fill="#1D4ED8"/>
<path d="M99.9501 39.0986C102.44 39.3586 103.8 40.7286 103.68 43.2186C103.55 45.7386 101.98 46.9986 99.5201 46.8486C97.2101 46.7086 95.9401 45.2786 95.9701 42.9586C96.0001 40.4486 97.4901 39.2286 99.9501 39.0986Z" fill="#1D4ED8"/>
<path d="M99.9301 79.4285C97.3301 79.1885 95.91 77.8985 95.95 75.4285C95.99 72.9585 97.4201 71.5785 99.8801 71.6085C102.35 71.6385 103.71 73.0785 103.71 75.5385C103.7 78.0585 102.17 79.2185 99.9301 79.4285Z" fill="#1D4ED8"/>
<path d="M18.46 79.3586C16.01 79.0786 14.67 77.7186 14.81 75.2486C14.95 72.7486 16.51 71.5186 18.95 71.6786C21.25 71.8286 22.48 73.2586 22.43 75.5486C22.39 78.0586 20.9 79.2386 18.46 79.3586Z" fill="#1D4ED8"/>
<path d="M75.4601 14.7585C77.9201 14.9485 79.3501 16.2285 79.3001 18.7285C79.2401 21.2385 77.7601 22.5485 75.2901 22.4785C72.9801 22.4085 71.6701 21.0486 71.6301 18.7386C71.5901 16.2286 73.0001 14.9485 75.4601 14.7585Z" fill="#1D4ED8"/>
<path d="M18.8701 46.8785C16.2701 46.7285 14.8 45.5085 14.8 43.0085C14.81 40.5185 16.22 39.1585 18.7 39.1885C21 39.2085 22.3301 40.5185 22.4301 42.8185C22.5401 45.3285 21.1301 46.5885 18.8701 46.8785Z" fill="#1D4ED8"/>
<path d="M79.3901 99.8486C79.1001 102.489 77.7101 103.839 75.2301 103.699C72.7101 103.559 71.4601 101.969 71.6201 99.5086C71.7701 97.1886 73.2201 95.9486 75.5301 95.9786C78.0801 96.0286 79.2101 97.5786 79.3901 99.8486Z" fill="#1D4ED8"/>
<path d="M43.1101 103.749C40.4801 103.529 39.0701 102.219 39.1501 99.7185C39.2301 97.2085 40.7301 95.9186 43.2001 96.0086C45.5101 96.0986 46.7901 97.4786 46.8201 99.7886C46.8601 102.339 45.3601 103.519 43.1101 103.749Z" fill="#1D4ED8"/>
<path d="M46.8501 18.7986C46.5701 21.2486 45.2101 22.5885 42.7401 22.4485C40.2401 22.3085 39.0101 20.7485 39.1701 18.3085C39.3201 16.0085 40.7501 14.7786 43.0401 14.8286C45.5501 14.8686 46.7301 16.3586 46.8501 18.7986Z" fill="#1D4ED8"/>
<path d="M107.92 70.8985C105.7 70.4685 104.33 69.2485 104.52 67.1085C104.7 65.0285 106.14 63.7285 108.3 63.9485C110.23 64.1385 111.46 65.4785 111.39 67.4485C111.31 69.5985 109.85 70.6385 107.92 70.8985Z" fill="#1D4ED8"/>
<path d="M10.5101 70.7685C8.44006 70.5585 7.11005 69.4086 7.16005 67.2586C7.20005 65.2986 8.47005 64.0386 10.4401 64.0286C12.5801 64.0186 13.8901 65.3386 13.8501 67.4886C13.8001 69.4386 12.5201 70.5286 10.5101 70.7685Z" fill="#1D4ED8"/>
<path d="M67.2401 7.08856C69.1301 7.21856 70.5101 8.18856 70.7001 10.1686C70.9001 12.3386 69.6501 13.7686 67.5201 13.8886C65.3701 14.0086 64.0001 12.6686 63.9701 10.5186C63.9401 8.53857 65.2101 7.40856 67.2401 7.08856Z" fill="#1D4ED8"/>
<path d="M111.46 51.0085C111.26 53.0785 110.16 54.5185 108.02 54.5585C105.89 54.5985 104.54 53.2285 104.51 51.0985C104.49 49.1385 105.77 47.8185 107.7 47.6885C109.84 47.5485 111.05 48.8885 111.46 51.0085Z" fill="#1D4ED8"/>
<path d="M10.4001 47.7285C12.2701 47.8485 13.6302 48.7985 13.8202 50.7685C14.0202 52.9185 12.7901 54.3385 10.6701 54.4585C8.54013 54.5685 7.18014 53.2685 7.15014 51.1185C7.13014 49.1485 8.37014 48.0285 10.4001 47.7285Z" fill="#1D4ED8"/>
<path d="M54.5801 107.899C54.3701 109.949 53.2601 111.369 51.1401 111.379C49.0301 111.389 47.7001 110.039 47.7001 107.919C47.7001 105.969 48.9801 104.679 50.9001 104.569C53.0201 104.449 54.2201 105.769 54.5801 107.899Z" fill="#1D4ED8"/>
<path d="M54.5301 10.4585C54.3801 12.3785 53.36 13.7285 51.39 13.8785C49.23 14.0385 47.8 12.7685 47.73 10.6285C47.65 8.47855 49.01 7.12854 51.17 7.13854C53.14 7.15854 54.2501 8.44854 54.5301 10.4585Z" fill="#1D4ED8"/>
<path d="M67.35 111.449C65.27 111.179 63.88 110.029 63.93 107.899C63.98 105.789 65.38 104.489 67.5 104.559C69.43 104.629 70.71 105.919 70.75 107.859C70.8 109.999 69.45 111.149 67.35 111.449Z" fill="#1D4ED8"/>
<path d="M99.7902 94.8385C97.7802 94.6785 96.6602 93.5986 96.7502 91.5386C96.8302 89.6686 97.9602 88.6285 99.8202 88.6485C101.89 88.6685 102.97 89.8685 102.89 91.9085C102.83 93.7985 101.67 94.7185 99.7902 94.8385Z" fill="#1D4ED8"/>
<path d="M91.4102 15.5385C93.5902 15.6485 94.7702 16.6285 94.7502 18.6985C94.7302 20.5585 93.6802 21.6486 91.8202 21.6886C89.7802 21.7386 88.6501 20.6285 88.6401 18.5885C88.6501 16.6985 89.7902 15.7885 91.4102 15.5385Z" fill="#1D4ED8"/>
<path d="M91.7501 96.7385C93.6301 96.8985 94.7501 97.8585 94.7801 99.7485C94.8101 101.799 93.6902 102.949 91.6302 102.929C89.7602 102.909 88.6802 101.839 88.6302 99.9585C88.5902 97.8885 89.7501 96.8585 91.7501 96.7385Z" fill="#1D4ED8"/>
<path d="M99.5501 23.6385C101.73 23.7485 102.92 24.7385 102.9 26.8185C102.88 28.6885 101.83 29.7886 99.9501 29.8286C97.9001 29.8786 96.7501 28.7585 96.7501 26.6985C96.7501 24.8085 97.8901 23.8785 99.5501 23.6385Z" fill="#1D4ED8"/>
<path d="M29.7901 18.7086C29.6101 20.5486 28.6401 21.6586 26.7601 21.6486C24.6901 21.6386 23.6101 20.4186 23.7401 18.3986C23.8501 16.5386 25.0401 15.5586 26.9001 15.6386C28.7801 15.7186 29.6801 16.8686 29.7901 18.7086Z" fill="#1D4ED8"/>
<path d="M18.7301 88.6586C20.5801 88.8586 21.6701 89.8486 21.6401 91.7486C21.6001 93.8386 20.3601 94.8986 18.3201 94.7486C16.4401 94.6186 15.4801 93.3986 15.5801 91.5286C15.7001 89.6286 16.8701 88.7386 18.7301 88.6586Z" fill="#1D4ED8"/>
<path d="M86.4801 10.4185C86.3301 12.0985 85.4501 13.2585 83.7701 13.3485C81.9001 13.4485 80.7301 12.3085 80.7501 10.4385C80.7701 8.75854 81.8801 7.69853 83.5701 7.67853C85.2801 7.66853 86.1901 8.77854 86.4801 10.4185Z" fill="#1D4ED8"/>
<path d="M37.7301 10.5285C37.4901 12.1685 36.6001 13.3185 34.9301 13.3285C33.0901 13.3385 31.9401 12.1685 32.0501 10.3285C32.1501 8.69854 33.2701 7.63853 34.9601 7.70853C36.6401 7.77853 37.5101 8.89854 37.7301 10.5285Z" fill="#1D4ED8"/>
<path d="M26.7301 96.7786C28.5901 96.9086 29.7401 97.8486 29.7701 99.7486C29.8001 101.819 28.6301 102.949 26.5701 102.869C24.6801 102.799 23.6701 101.639 23.7101 99.7686C23.7501 97.8686 24.8701 96.9286 26.7301 96.7786Z" fill="#1D4ED8"/>
<path d="M107.93 86.5485C106.14 86.2985 104.98 85.3185 105.08 83.4385C105.17 81.7685 106.26 80.7085 107.94 80.7285C109.8 80.7585 110.91 81.9085 110.83 83.7785C110.75 85.4685 109.62 86.3485 107.93 86.5485Z" fill="#1D4ED8"/>
<path d="M10.2801 80.7186C12.0701 80.9186 13.2301 81.7886 13.3001 83.4486C13.3801 85.2886 12.2301 86.4586 10.3901 86.4186C8.74011 86.3886 7.69012 85.2686 7.68012 83.5986C7.67012 81.8886 8.85012 81.0686 10.2801 80.7186Z" fill="#1D4ED8"/>
<path d="M18.7301 29.8386C16.7001 29.6186 15.5901 28.6586 15.6101 26.7786C15.6301 24.7086 16.8501 23.6386 18.8801 23.7686C20.7401 23.8886 21.7101 25.0786 21.6301 26.9386C21.5501 28.8386 20.3301 29.6586 18.7301 29.8386Z" fill="#1D4ED8"/>
<path d="M107.77 37.7985C106.04 37.4285 104.9 36.4185 105.11 34.5585C105.29 32.9385 106.42 31.8985 108.09 32.0185C109.91 32.1585 110.98 33.3485 110.79 35.1885C110.62 36.8385 109.47 37.6985 107.77 37.7985Z" fill="#1D4ED8"/>
<path d="M37.7601 108.089C37.4601 109.729 36.5401 110.829 34.8401 110.809C33.1501 110.789 32.0501 109.719 32.0401 108.039C32.0301 106.169 33.2101 105.039 35.0701 105.149C36.7301 105.239 37.6101 106.409 37.7601 108.089Z" fill="#1D4ED8"/>
<path d="M83.39 105.019C85.34 105.299 86.5101 106.249 86.4401 108.109C86.37 109.759 85.29 110.829 83.62 110.819C81.78 110.809 80.68 109.669 80.72 107.819C80.77 106.149 81.97 105.349 83.39 105.019Z" fill="#1D4ED8"/>
<path d="M13.3501 34.9585C13.0401 36.6185 12.11 37.7386 10.4 37.6586C8.72004 37.5886 7.65004 36.4686 7.71004 34.7786C7.78004 33.0986 8.89005 32.0286 10.59 32.0886C12.28 32.1586 13.1601 33.3085 13.3501 34.9585Z" fill="#1D4ED8"/>
<path d="M118.63 59.1785C118.46 60.8285 117.61 61.7785 116.05 61.7585C114.49 61.7385 113.54 60.7785 113.56 59.2185C113.58 57.6585 114.54 56.7185 116.1 56.7285C117.67 56.7385 118.47 57.7385 118.63 59.1785Z" fill="#1D4ED8"/>
<path d="M77.6901 115.809C77.6301 117.299 76.9901 118.159 75.7301 118.279C74.2901 118.419 73.3401 117.659 73.2901 116.179C73.2401 114.709 74.1101 113.889 75.5701 113.909C76.8801 113.929 77.4701 114.809 77.6901 115.809Z" fill="#1D4ED8"/>
<path d="M56.7301 116.139C56.9601 114.389 57.8801 113.529 59.4401 113.659C61.0301 113.789 61.8101 114.869 61.6501 116.409C61.5101 117.779 60.5901 118.579 59.1701 118.539C57.5701 118.499 56.8601 117.489 56.7301 116.139Z" fill="#1D4ED8"/>
<path d="M45.1901 116.079C45.0301 117.459 44.3001 118.319 42.8501 118.259C41.6001 118.199 40.8201 117.399 40.8201 116.149C40.8201 114.719 41.68 113.889 43.11 113.939C44.37 113.979 45.0201 114.819 45.1901 116.079Z" fill="#1D4ED8"/>
<path d="M45.1601 2.41856C44.9901 3.66856 44.3201 4.51856 43.0501 4.52856C41.6001 4.53856 40.7401 3.63856 40.8601 2.19856C40.9601 0.968555 41.8101 0.188563 43.1001 0.268563C44.3601 0.338563 45.0101 1.16856 45.1601 2.41856Z" fill="#1D4ED8"/>
<path d="M61.6602 2.40855C61.4602 4.16855 60.4802 4.94855 58.9102 4.79855C57.4902 4.65855 56.7302 3.69855 56.8202 2.27855C56.9202 0.62855 57.9702 -0.131445 59.5402 0.0185553C60.9702 0.138555 61.6102 1.12855 61.6602 2.40855Z" fill="#1D4ED8"/>
<path d="M77.7 2.31854C77.44 3.87854 76.63 4.70855 75.21 4.55855C74 4.42855 73.22 3.58855 73.31 2.32855C73.4 0.898554 74.31 0.118552 75.73 0.248552C76.97 0.358552 77.54 1.27854 77.7 2.31854Z" fill="#1D4ED8"/>
<path d="M4.55007 42.9986C4.40007 44.2486 3.73009 45.1086 2.47009 45.1286C1.02009 45.1586 0.160086 44.2686 0.250086 42.8186C0.330086 41.5786 1.18008 40.8086 2.46008 40.8586C3.74008 40.9286 4.39007 41.7586 4.55007 42.9986Z" fill="#1D4ED8"/>
<path d="M118.32 42.7686C118.22 44.3686 117.5 45.2086 116.04 45.2086C114.77 45.2086 113.97 44.4886 113.87 43.2386C113.75 41.8286 114.46 40.8986 115.92 40.7886C117.39 40.6886 118.09 41.5686 118.32 42.7686Z" fill="#1D4ED8"/>
<path d="M4.77007 59.2585C4.67007 60.7885 3.84007 61.6785 2.24007 61.6185C0.820072 61.5685 0.0100816 60.7185 8.15587e-05 59.2985C-0.00991844 57.6885 0.900082 56.8285 2.50008 56.8785C3.93008 56.9185 4.66007 57.7885 4.77007 59.2585Z" fill="#1D4ED8"/>
<path d="M4.55008 75.5486C4.36008 76.7886 3.6801 77.6386 2.4101 77.6186C0.9601 77.5986 0.110097 76.6886 0.250097 75.2486C0.370097 74.0286 1.24009 73.2486 2.52009 73.3486C3.78009 73.4486 4.44008 74.2886 4.55008 75.5486Z" fill="#1D4ED8"/>
<path d="M118.31 75.4386C118.22 76.8486 117.5 77.6986 116.04 77.6986C114.77 77.6986 113.97 76.9786 113.87 75.7286C113.75 74.3186 114.46 73.3786 115.92 73.2786C117.36 73.1886 118.14 73.9986 118.31 75.4386Z" fill="#1D4ED8"/>
</svg>
