<svg width="196" height="191" viewBox="0 0 196 191" fill="none" xmlns="http://www.w3.org/2000/svg">
<path d="M2.12 4.24002C3.29084 4.24002 4.23999 3.29084 4.23999 2.12C4.23999 0.949151 3.29084 0 2.12 0C0.949151 0 0 0.949151 0 2.12C0 3.29084 0.949151 4.24002 2.12 4.24002Z" fill="#1D4ED8"/>
<path d="M21.2201 4.24002C22.3909 4.24002 23.3401 3.29084 23.3401 2.12C23.3401 0.949151 22.3909 0 21.2201 0C20.0492 0 19.1001 0.949151 19.1001 2.12C19.1001 3.29084 20.0492 4.24002 21.2201 4.24002Z" fill="#1D4ED8"/>
<path d="M40.3202 4.24002C41.491 4.24002 42.4402 3.29084 42.4402 2.12C42.4402 0.949151 41.491 0 40.3202 0C39.1493 0 38.2002 0.949151 38.2002 2.12C38.2002 3.29084 39.1493 4.24002 40.3202 4.24002Z" fill="#1D4ED8"/>
<path d="M59.4199 4.24002C60.5907 4.24002 61.5399 3.29084 61.5399 2.12C61.5399 0.949151 60.5907 0 59.4199 0C58.249 0 57.2998 0.949151 57.2998 2.12C57.2998 3.29084 58.249 4.24002 59.4199 4.24002Z" fill="#1D4ED8"/>
<path d="M80.6399 2.12C80.6399 3.29 79.6899 4.24002 78.5199 4.24002C77.3499 4.24002 76.3999 3.29 76.3999 2.12C76.3999 0.949995 77.3499 0 78.5199 0C79.6899 0 80.6399 0.949995 80.6399 2.12Z" fill="#1D4ED8"/>
<path d="M97.6102 4.24002C98.7811 4.24002 99.7303 3.29084 99.7303 2.12C99.7303 0.949151 98.7811 0 97.6102 0C96.4394 0 95.4902 0.949151 95.4902 2.12C95.4902 3.29084 96.4394 4.24002 97.6102 4.24002Z" fill="#1D4ED8"/>
<path d="M116.71 4.24002C117.881 4.24002 118.83 3.29084 118.83 2.12C118.83 0.949151 117.881 0 116.71 0C115.539 0 114.59 0.949151 114.59 2.12C114.59 3.29084 115.539 4.24002 116.71 4.24002Z" fill="#1D4ED8"/>
<path d="M135.81 4.24002C136.981 4.24002 137.93 3.29084 137.93 2.12C137.93 0.949151 136.981 0 135.81 0C134.639 0 133.69 0.949151 133.69 2.12C133.69 3.29084 134.639 4.24002 135.81 4.24002Z" fill="#1D4ED8"/>
<path d="M154.91 4.24002C156.081 4.24002 157.03 3.29084 157.03 2.12C157.03 0.949151 156.081 0 154.91 0C153.739 0 152.79 0.949151 152.79 2.12C152.79 3.29084 153.739 4.24002 154.91 4.24002Z" fill="#1D4ED8"/>
<path d="M174.01 4.24002C175.181 4.24002 176.13 3.29084 176.13 2.12C176.13 0.949151 175.181 0 174.01 0C172.839 0 171.89 0.949151 171.89 2.12C171.89 3.29084 172.839 4.24002 174.01 4.24002Z" fill="#1D4ED8"/>
<path d="M193.11 4.24002C194.281 4.24002 195.23 3.29084 195.23 2.12C195.23 0.949151 194.281 0 193.11 0C191.939 0 190.99 0.949151 190.99 2.12C190.99 3.29084 191.939 4.24002 193.11 4.24002Z" fill="#1D4ED8"/>
<path d="M2.12 21.22C3.29084 21.22 4.23999 20.2708 4.23999 19.1C4.23999 17.9291 3.29084 16.98 2.12 16.98C0.949151 16.98 0 17.9291 0 19.1C0 20.2708 0.949151 21.22 2.12 21.22Z" fill="#1D4ED8"/>
<path d="M21.2201 21.22C22.3909 21.22 23.3401 20.2708 23.3401 19.1C23.3401 17.9291 22.3909 16.98 21.2201 16.98C20.0492 16.98 19.1001 17.9291 19.1001 19.1C19.1001 20.2708 20.0492 21.22 21.2201 21.22Z" fill="#1D4ED8"/>
<path d="M40.3202 21.22C41.491 21.22 42.4402 20.2708 42.4402 19.1C42.4402 17.9291 41.491 16.98 40.3202 16.98C39.1493 16.98 38.2002 17.9291 38.2002 19.1C38.2002 20.2708 39.1493 21.22 40.3202 21.22Z" fill="#1D4ED8"/>
<path d="M59.4199 21.22C60.5907 21.22 61.5399 20.2708 61.5399 19.1C61.5399 17.9291 60.5907 16.98 59.4199 16.98C58.249 16.98 57.2998 17.9291 57.2998 19.1C57.2998 20.2708 58.249 21.22 59.4199 21.22Z" fill="#1D4ED8"/>
<path d="M80.6399 19.1C80.6399 20.27 79.6899 21.22 78.5199 21.22C77.3499 21.22 76.3999 20.27 76.3999 19.1C76.3999 17.93 77.3499 16.98 78.5199 16.98C79.6899 16.98 80.6399 17.93 80.6399 19.1Z" fill="#1D4ED8"/>
<path d="M97.6102 21.22C98.7811 21.22 99.7303 20.2708 99.7303 19.1C99.7303 17.9291 98.7811 16.98 97.6102 16.98C96.4394 16.98 95.4902 17.9291 95.4902 19.1C95.4902 20.2708 96.4394 21.22 97.6102 21.22Z" fill="#1D4ED8"/>
<path d="M116.71 21.22C117.881 21.22 118.83 20.2708 118.83 19.1C118.83 17.9291 117.881 16.98 116.71 16.98C115.539 16.98 114.59 17.9291 114.59 19.1C114.59 20.2708 115.539 21.22 116.71 21.22Z" fill="#1D4ED8"/>
<path d="M135.81 21.22C136.981 21.22 137.93 20.2708 137.93 19.1C137.93 17.9291 136.981 16.98 135.81 16.98C134.639 16.98 133.69 17.9291 133.69 19.1C133.69 20.2708 134.639 21.22 135.81 21.22Z" fill="#1D4ED8"/>
<path d="M154.91 21.22C156.081 21.22 157.03 20.2708 157.03 19.1C157.03 17.9291 156.081 16.98 154.91 16.98C153.739 16.98 152.79 17.9291 152.79 19.1C152.79 20.2708 153.739 21.22 154.91 21.22Z" fill="#1D4ED8"/>
<path d="M174.01 21.22C175.181 21.22 176.13 20.2708 176.13 19.1C176.13 17.9291 175.181 16.98 174.01 16.98C172.839 16.98 171.89 17.9291 171.89 19.1C171.89 20.2708 172.839 21.22 174.01 21.22Z" fill="#1D4ED8"/>
<path d="M193.11 21.22C194.281 21.22 195.23 20.2708 195.23 19.1C195.23 17.9291 194.281 16.98 193.11 16.98C191.939 16.98 190.99 17.9291 190.99 19.1C190.99 20.2708 191.939 21.22 193.11 21.22Z" fill="#1D4ED8"/>
<path d="M2.12 38.19C3.29084 38.19 4.23999 37.2409 4.23999 36.07C4.23999 34.8992 3.29084 33.95 2.12 33.95C0.949151 33.95 0 34.8992 0 36.07C0 37.2409 0.949151 38.19 2.12 38.19Z" fill="#1D4ED8"/>
<path d="M21.2201 38.19C22.3909 38.19 23.3401 37.2409 23.3401 36.07C23.3401 34.8992 22.3909 33.95 21.2201 33.95C20.0492 33.95 19.1001 34.8992 19.1001 36.07C19.1001 37.2409 20.0492 38.19 21.2201 38.19Z" fill="#1D4ED8"/>
<path d="M40.3202 38.19C41.491 38.19 42.4402 37.2409 42.4402 36.07C42.4402 34.8992 41.491 33.95 40.3202 33.95C39.1493 33.95 38.2002 34.8992 38.2002 36.07C38.2002 37.2409 39.1493 38.19 40.3202 38.19Z" fill="#1D4ED8"/>
<path d="M59.4199 38.19C60.5907 38.19 61.5399 37.2409 61.5399 36.07C61.5399 34.8992 60.5907 33.95 59.4199 33.95C58.249 33.95 57.2998 34.8992 57.2998 36.07C57.2998 37.2409 58.249 38.19 59.4199 38.19Z" fill="#1D4ED8"/>
<path d="M80.6399 36.07C80.6399 37.24 79.6899 38.19 78.5199 38.19C77.3499 38.19 76.3999 37.24 76.3999 36.07C76.3999 34.9 77.3499 33.95 78.5199 33.95C79.6899 33.95 80.6399 34.9 80.6399 36.07Z" fill="#1D4ED8"/>
<path d="M97.6102 38.19C98.7811 38.19 99.7303 37.2409 99.7303 36.07C99.7303 34.8992 98.7811 33.95 97.6102 33.95C96.4394 33.95 95.4902 34.8992 95.4902 36.07C95.4902 37.2409 96.4394 38.19 97.6102 38.19Z" fill="#1D4ED8"/>
<path d="M116.71 38.19C117.881 38.19 118.83 37.2409 118.83 36.07C118.83 34.8992 117.881 33.95 116.71 33.95C115.539 33.95 114.59 34.8992 114.59 36.07C114.59 37.2409 115.539 38.19 116.71 38.19Z" fill="#1D4ED8"/>
<path d="M135.81 38.19C136.981 38.19 137.93 37.2409 137.93 36.07C137.93 34.8992 136.981 33.95 135.81 33.95C134.639 33.95 133.69 34.8992 133.69 36.07C133.69 37.2409 134.639 38.19 135.81 38.19Z" fill="#1D4ED8"/>
<path d="M154.91 38.19C156.081 38.19 157.03 37.2409 157.03 36.07C157.03 34.8992 156.081 33.95 154.91 33.95C153.739 33.95 152.79 34.8992 152.79 36.07C152.79 37.2409 153.739 38.19 154.91 38.19Z" fill="#1D4ED8"/>
<path d="M174.01 38.19C175.181 38.19 176.13 37.2409 176.13 36.07C176.13 34.8992 175.181 33.95 174.01 33.95C172.839 33.95 171.89 34.8992 171.89 36.07C171.89 37.2409 172.839 38.19 174.01 38.19Z" fill="#1D4ED8"/>
<path d="M193.11 38.19C194.281 38.19 195.23 37.2409 195.23 36.07C195.23 34.8992 194.281 33.95 193.11 33.95C191.939 33.95 190.99 34.8992 190.99 36.07C190.99 37.2409 191.939 38.19 193.11 38.19Z" fill="#1D4ED8"/>
<path d="M4.23999 53.05C4.23999 54.22 3.29 55.17 2.12 55.17C0.949995 55.17 0 54.22 0 53.05C0 51.88 0.949995 50.9301 2.12 50.9301C3.29 50.9301 4.23999 51.88 4.23999 53.05Z" fill="#1D4ED8"/>
<path d="M23.3401 53.05C23.3401 54.22 22.3901 55.17 21.2201 55.17C20.0501 55.17 19.1001 54.22 19.1001 53.05C19.1001 51.88 20.0501 50.9301 21.2201 50.9301C22.3901 50.9301 23.3401 51.88 23.3401 53.05Z" fill="#1D4ED8"/>
<path d="M42.4402 53.05C42.4402 54.22 41.4902 55.17 40.3202 55.17C39.1502 55.17 38.2002 54.22 38.2002 53.05C38.2002 51.88 39.1502 50.9301 40.3202 50.9301C41.4902 50.9301 42.4402 51.88 42.4402 53.05Z" fill="#1D4ED8"/>
<path d="M61.5399 53.05C61.5399 54.22 60.5899 55.17 59.4199 55.17C58.2499 55.17 57.2998 54.22 57.2998 53.05C57.2998 51.88 58.2499 50.9301 59.4199 50.9301C60.5899 50.9301 61.5399 51.88 61.5399 53.05Z" fill="#1D4ED8"/>
<path d="M80.6399 53.05C80.6399 54.22 79.6899 55.17 78.5199 55.17C77.3499 55.17 76.3999 54.22 76.3999 53.05C76.3999 51.88 77.3499 50.9301 78.5199 50.9301C79.6899 50.9301 80.6399 51.88 80.6399 53.05Z" fill="#1D4ED8"/>
<path d="M99.74 53.05C99.74 54.22 98.79 55.17 97.62 55.17C96.45 55.17 95.5 54.22 95.5 53.05C95.5 51.88 96.45 50.9301 97.62 50.9301C98.78 50.9301 99.74 51.88 99.74 53.05Z" fill="#1D4ED8"/>
<path d="M118.83 53.05C118.83 54.22 117.88 55.17 116.71 55.17C115.54 55.17 114.59 54.22 114.59 53.05C114.59 51.88 115.54 50.9301 116.71 50.9301C117.88 50.9301 118.83 51.88 118.83 53.05Z" fill="#1D4ED8"/>
<path d="M137.93 53.05C137.93 54.22 136.98 55.17 135.81 55.17C134.64 55.17 133.69 54.22 133.69 53.05C133.69 51.88 134.64 50.9301 135.81 50.9301C136.98 50.9301 137.93 51.88 137.93 53.05Z" fill="#1D4ED8"/>
<path d="M157.03 53.05C157.03 54.22 156.08 55.17 154.91 55.17C153.74 55.17 152.79 54.22 152.79 53.05C152.79 51.88 153.74 50.9301 154.91 50.9301C156.08 50.9301 157.03 51.88 157.03 53.05Z" fill="#1D4ED8"/>
<path d="M176.13 53.05C176.13 54.22 175.18 55.17 174.01 55.17C172.84 55.17 171.89 54.22 171.89 53.05C171.89 51.88 172.84 50.9301 174.01 50.9301C175.18 50.9301 176.13 51.88 176.13 53.05Z" fill="#1D4ED8"/>
<path d="M195.23 53.05C195.23 54.22 194.28 55.17 193.11 55.17C191.94 55.17 190.99 54.22 190.99 53.05C190.99 51.88 191.94 50.9301 193.11 50.9301C194.28 50.9301 195.23 51.88 195.23 53.05Z" fill="#1D4ED8"/>
<path d="M4.23999 70.03C4.23999 71.2 3.29 72.15 2.12 72.15C0.949995 72.15 0 71.2 0 70.03C0 68.86 0.949995 67.91 2.12 67.91C3.29 67.9 4.23999 68.85 4.23999 70.03Z" fill="#1D4ED8"/>
<path d="M23.3401 70.03C23.3401 71.2 22.3901 72.15 21.2201 72.15C20.0501 72.15 19.1001 71.2 19.1001 70.03C19.1001 68.86 20.0501 67.91 21.2201 67.91C22.3901 67.9 23.3401 68.85 23.3401 70.03Z" fill="#1D4ED8"/>
<path d="M42.4402 70.03C42.4402 71.2 41.4902 72.15 40.3202 72.15C39.1502 72.15 38.2002 71.2 38.2002 70.03C38.2002 68.86 39.1502 67.91 40.3202 67.91C41.4902 67.9 42.4402 68.85 42.4402 70.03Z" fill="#1D4ED8"/>
<path d="M61.5399 70.03C61.5399 71.2 60.5899 72.15 59.4199 72.15C58.2499 72.15 57.2998 71.2 57.2998 70.03C57.2998 68.86 58.2499 67.91 59.4199 67.91C60.5899 67.9 61.5399 68.85 61.5399 70.03Z" fill="#1D4ED8"/>
<path d="M80.6399 70.03C80.6399 71.2 79.6899 72.15 78.5199 72.15C77.3499 72.15 76.3999 71.2 76.3999 70.03C76.3999 68.86 77.3499 67.91 78.5199 67.91C79.6899 67.9 80.6399 68.85 80.6399 70.03Z" fill="#1D4ED8"/>
<path d="M99.74 70.03C99.74 71.2 98.79 72.15 97.62 72.15C96.45 72.15 95.5 71.2 95.5 70.03C95.5 68.86 96.45 67.91 97.62 67.91C98.78 67.9 99.74 68.85 99.74 70.03Z" fill="#1D4ED8"/>
<path d="M118.83 70.03C118.83 71.2 117.88 72.15 116.71 72.15C115.54 72.15 114.59 71.2 114.59 70.03C114.59 68.86 115.54 67.91 116.71 67.91C117.88 67.9 118.83 68.85 118.83 70.03Z" fill="#1D4ED8"/>
<path d="M137.93 70.0299C137.93 71.1999 136.98 72.1499 135.81 72.1499C134.64 72.1499 133.69 71.1999 133.69 70.0299C133.69 68.8599 134.64 67.9099 135.81 67.9099C136.98 67.9099 137.93 68.8499 137.93 70.0299Z" fill="#1D4ED8"/>
<path d="M157.03 70.03C157.03 71.2 156.08 72.15 154.91 72.15C153.74 72.15 152.79 71.2 152.79 70.03C152.79 68.86 153.74 67.91 154.91 67.91C156.08 67.9 157.03 68.85 157.03 70.03Z" fill="#1D4ED8"/>
<path d="M176.13 70.03C176.13 71.2 175.18 72.15 174.01 72.15C172.84 72.15 171.89 71.2 171.89 70.03C171.89 68.86 172.84 67.91 174.01 67.91C175.18 67.9 176.13 68.85 176.13 70.03Z" fill="#1D4ED8"/>
<path d="M195.23 70.03C195.23 71.2 194.28 72.15 193.11 72.15C191.94 72.15 190.99 71.2 190.99 70.03C190.99 68.86 191.94 67.91 193.11 67.91C194.28 67.9 195.23 68.85 195.23 70.03Z" fill="#1D4ED8"/>
<path d="M2.12 89.12C3.29084 89.12 4.23999 88.1708 4.23999 87C4.23999 85.8292 3.29084 84.88 2.12 84.88C0.949151 84.88 0 85.8292 0 87C0 88.1708 0.949151 89.12 2.12 89.12Z" fill="#1D4ED8"/>
<path d="M21.2201 89.12C22.3909 89.12 23.3401 88.1708 23.3401 87C23.3401 85.8292 22.3909 84.88 21.2201 84.88C20.0492 84.88 19.1001 85.8292 19.1001 87C19.1001 88.1708 20.0492 89.12 21.2201 89.12Z" fill="#1D4ED8"/>
<path d="M40.3202 89.12C41.491 89.12 42.4402 88.1708 42.4402 87C42.4402 85.8292 41.491 84.88 40.3202 84.88C39.1493 84.88 38.2002 85.8292 38.2002 87C38.2002 88.1708 39.1493 89.12 40.3202 89.12Z" fill="#1D4ED8"/>
<path d="M59.4199 89.12C60.5907 89.12 61.5399 88.1708 61.5399 87C61.5399 85.8292 60.5907 84.88 59.4199 84.88C58.249 84.88 57.2998 85.8292 57.2998 87C57.2998 88.1708 58.249 89.12 59.4199 89.12Z" fill="#1D4ED8"/>
<path d="M80.6399 87C80.6399 88.17 79.6899 89.12 78.5199 89.12C77.3499 89.12 76.3999 88.17 76.3999 87C76.3999 85.83 77.3499 84.88 78.5199 84.88C79.6899 84.88 80.6399 85.83 80.6399 87Z" fill="#1D4ED8"/>
<path d="M97.6102 89.12C98.7811 89.12 99.7303 88.1708 99.7303 87C99.7303 85.8292 98.7811 84.88 97.6102 84.88C96.4394 84.88 95.4902 85.8292 95.4902 87C95.4902 88.1708 96.4394 89.12 97.6102 89.12Z" fill="#1D4ED8"/>
<path d="M116.71 89.12C117.881 89.12 118.83 88.1708 118.83 87C118.83 85.8292 117.881 84.88 116.71 84.88C115.539 84.88 114.59 85.8292 114.59 87C114.59 88.1708 115.539 89.12 116.71 89.12Z" fill="#1D4ED8"/>
<path d="M135.81 89.12C136.981 89.12 137.93 88.1708 137.93 87C137.93 85.8292 136.981 84.88 135.81 84.88C134.639 84.88 133.69 85.8292 133.69 87C133.69 88.1708 134.639 89.12 135.81 89.12Z" fill="#1D4ED8"/>
<path d="M154.91 89.12C156.081 89.12 157.03 88.1708 157.03 87C157.03 85.8292 156.081 84.88 154.91 84.88C153.739 84.88 152.79 85.8292 152.79 87C152.79 88.1708 153.739 89.12 154.91 89.12Z" fill="#1D4ED8"/>
<path d="M174.01 89.12C175.181 89.12 176.13 88.1708 176.13 87C176.13 85.8292 175.181 84.88 174.01 84.88C172.839 84.88 171.89 85.8292 171.89 87C171.89 88.1708 172.839 89.12 174.01 89.12Z" fill="#1D4ED8"/>
<path d="M193.11 89.12C194.281 89.12 195.23 88.1708 195.23 87C195.23 85.8292 194.281 84.88 193.11 84.88C191.939 84.88 190.99 85.8292 190.99 87C190.99 88.1708 191.939 89.12 193.11 89.12Z" fill="#1D4ED8"/>
<path d="M2.12 106.1C3.29084 106.1 4.23999 105.151 4.23999 103.98C4.23999 102.809 3.29084 101.86 2.12 101.86C0.949151 101.86 0 102.809 0 103.98C0 105.151 0.949151 106.1 2.12 106.1Z" fill="#1D4ED8"/>
<path d="M21.2201 106.1C22.3909 106.1 23.3401 105.151 23.3401 103.98C23.3401 102.809 22.3909 101.86 21.2201 101.86C20.0492 101.86 19.1001 102.809 19.1001 103.98C19.1001 105.151 20.0492 106.1 21.2201 106.1Z" fill="#1D4ED8"/>
<path d="M40.3202 106.1C41.491 106.1 42.4402 105.151 42.4402 103.98C42.4402 102.809 41.491 101.86 40.3202 101.86C39.1493 101.86 38.2002 102.809 38.2002 103.98C38.2002 105.151 39.1493 106.1 40.3202 106.1Z" fill="#1D4ED8"/>
<path d="M59.4199 106.1C60.5907 106.1 61.5399 105.151 61.5399 103.98C61.5399 102.809 60.5907 101.86 59.4199 101.86C58.249 101.86 57.2998 102.809 57.2998 103.98C57.2998 105.151 58.249 106.1 59.4199 106.1Z" fill="#1D4ED8"/>
<path d="M80.6399 103.98C80.6399 105.15 79.6899 106.1 78.5199 106.1C77.3499 106.1 76.3999 105.15 76.3999 103.98C76.3999 102.81 77.3499 101.86 78.5199 101.86C79.6899 101.86 80.6399 102.81 80.6399 103.98Z" fill="#1D4ED8"/>
<path d="M97.6102 106.1C98.7811 106.1 99.7303 105.151 99.7303 103.98C99.7303 102.809 98.7811 101.86 97.6102 101.86C96.4394 101.86 95.4902 102.809 95.4902 103.98C95.4902 105.151 96.4394 106.1 97.6102 106.1Z" fill="#1D4ED8"/>
<path d="M116.71 106.1C117.881 106.1 118.83 105.151 118.83 103.98C118.83 102.809 117.881 101.86 116.71 101.86C115.539 101.86 114.59 102.809 114.59 103.98C114.59 105.151 115.539 106.1 116.71 106.1Z" fill="#1D4ED8"/>
<path d="M135.81 106.1C136.981 106.1 137.93 105.151 137.93 103.98C137.93 102.809 136.981 101.86 135.81 101.86C134.639 101.86 133.69 102.809 133.69 103.98C133.69 105.151 134.639 106.1 135.81 106.1Z" fill="#1D4ED8"/>
<path d="M154.91 106.1C156.081 106.1 157.03 105.151 157.03 103.98C157.03 102.809 156.081 101.86 154.91 101.86C153.739 101.86 152.79 102.809 152.79 103.98C152.79 105.151 153.739 106.1 154.91 106.1Z" fill="#1D4ED8"/>
<path d="M174.01 106.1C175.181 106.1 176.13 105.151 176.13 103.98C176.13 102.809 175.181 101.86 174.01 101.86C172.839 101.86 171.89 102.809 171.89 103.98C171.89 105.151 172.839 106.1 174.01 106.1Z" fill="#1D4ED8"/>
<path d="M193.11 106.1C194.281 106.1 195.23 105.151 195.23 103.98C195.23 102.809 194.281 101.86 193.11 101.86C191.939 101.86 190.99 102.809 190.99 103.98C190.99 105.151 191.939 106.1 193.11 106.1Z" fill="#1D4ED8"/>
<path d="M4.23999 120.96C4.23999 122.13 3.29 123.08 2.12 123.08C0.949995 123.08 0 122.13 0 120.96C0 119.79 0.949995 118.84 2.12 118.84C3.29 118.83 4.23999 119.78 4.23999 120.96Z" fill="#1D4ED8"/>
<path d="M23.3401 120.96C23.3401 122.13 22.3901 123.08 21.2201 123.08C20.0501 123.08 19.1001 122.13 19.1001 120.96C19.1001 119.79 20.0501 118.84 21.2201 118.84C22.3901 118.83 23.3401 119.78 23.3401 120.96Z" fill="#1D4ED8"/>
<path d="M42.4402 120.96C42.4402 122.13 41.4902 123.08 40.3202 123.08C39.1502 123.08 38.2002 122.13 38.2002 120.96C38.2002 119.79 39.1502 118.84 40.3202 118.84C41.4902 118.83 42.4402 119.78 42.4402 120.96Z" fill="#1D4ED8"/>
<path d="M61.5399 120.96C61.5399 122.13 60.5899 123.08 59.4199 123.08C58.2499 123.08 57.2998 122.13 57.2998 120.96C57.2998 119.79 58.2499 118.84 59.4199 118.84C60.5899 118.83 61.5399 119.78 61.5399 120.96Z" fill="#1D4ED8"/>
<path d="M80.6399 120.96C80.6399 122.13 79.6899 123.08 78.5199 123.08C77.3499 123.08 76.3999 122.13 76.3999 120.96C76.3999 119.79 77.3499 118.84 78.5199 118.84C79.6899 118.83 80.6399 119.78 80.6399 120.96Z" fill="#1D4ED8"/>
<path d="M99.74 120.96C99.74 122.13 98.79 123.08 97.62 123.08C96.45 123.08 95.5 122.13 95.5 120.96C95.5 119.79 96.45 118.84 97.62 118.84C98.78 118.83 99.74 119.78 99.74 120.96Z" fill="#1D4ED8"/>
<path d="M118.83 120.96C118.83 122.13 117.88 123.08 116.71 123.08C115.54 123.08 114.59 122.13 114.59 120.96C114.59 119.79 115.54 118.84 116.71 118.84C117.88 118.83 118.83 119.78 118.83 120.96Z" fill="#1D4ED8"/>
<path d="M137.93 120.96C137.93 122.13 136.98 123.08 135.81 123.08C134.64 123.08 133.69 122.13 133.69 120.96C133.69 119.79 134.64 118.84 135.81 118.84C136.98 118.84 137.93 119.78 137.93 120.96Z" fill="#1D4ED8"/>
<path d="M157.03 120.96C157.03 122.13 156.08 123.08 154.91 123.08C153.74 123.08 152.79 122.13 152.79 120.96C152.79 119.79 153.74 118.84 154.91 118.84C156.08 118.83 157.03 119.78 157.03 120.96Z" fill="#1D4ED8"/>
<path d="M176.13 120.96C176.13 122.13 175.18 123.08 174.01 123.08C172.84 123.08 171.89 122.13 171.89 120.96C171.89 119.79 172.84 118.84 174.01 118.84C175.18 118.83 176.13 119.78 176.13 120.96Z" fill="#1D4ED8"/>
<path d="M195.23 120.96C195.23 122.13 194.28 123.08 193.11 123.08C191.94 123.08 190.99 122.13 190.99 120.96C190.99 119.79 191.94 118.84 193.11 118.84C194.28 118.83 195.23 119.78 195.23 120.96Z" fill="#1D4ED8"/>
<path d="M4.23999 137.93C4.23999 139.1 3.29 140.05 2.12 140.05C0.949995 140.05 0 139.1 0 137.93C0 136.76 0.949995 135.81 2.12 135.81C3.29 135.81 4.23999 136.76 4.23999 137.93Z" fill="#1D4ED8"/>
<path d="M23.3401 137.93C23.3401 139.1 22.3901 140.05 21.2201 140.05C20.0501 140.05 19.1001 139.1 19.1001 137.93C19.1001 136.76 20.0501 135.81 21.2201 135.81C22.3901 135.81 23.3401 136.76 23.3401 137.93Z" fill="#1D4ED8"/>
<path d="M42.4402 137.93C42.4402 139.1 41.4902 140.05 40.3202 140.05C39.1502 140.05 38.2002 139.1 38.2002 137.93C38.2002 136.76 39.1502 135.81 40.3202 135.81C41.4902 135.81 42.4402 136.76 42.4402 137.93Z" fill="#1D4ED8"/>
<path d="M61.5399 137.93C61.5399 139.1 60.5899 140.05 59.4199 140.05C58.2499 140.05 57.2998 139.1 57.2998 137.93C57.2998 136.76 58.2499 135.81 59.4199 135.81C60.5899 135.81 61.5399 136.76 61.5399 137.93Z" fill="#1D4ED8"/>
<path d="M80.6399 137.93C80.6399 139.1 79.6899 140.05 78.5199 140.05C77.3499 140.05 76.3999 139.1 76.3999 137.93C76.3999 136.76 77.3499 135.81 78.5199 135.81C79.6899 135.81 80.6399 136.76 80.6399 137.93Z" fill="#1D4ED8"/>
<path d="M99.74 137.93C99.74 139.1 98.79 140.05 97.62 140.05C96.45 140.05 95.5 139.1 95.5 137.93C95.5 136.76 96.45 135.81 97.62 135.81C98.78 135.81 99.74 136.76 99.74 137.93Z" fill="#1D4ED8"/>
<path d="M118.83 137.93C118.83 139.1 117.88 140.05 116.71 140.05C115.54 140.05 114.59 139.1 114.59 137.93C114.59 136.76 115.54 135.81 116.71 135.81C117.88 135.81 118.83 136.76 118.83 137.93Z" fill="#1D4ED8"/>
<path d="M137.93 137.93C137.93 139.1 136.98 140.05 135.81 140.05C134.64 140.05 133.69 139.1 133.69 137.93C133.69 136.76 134.64 135.81 135.81 135.81C136.98 135.81 137.93 136.76 137.93 137.93Z" fill="#1D4ED8"/>
<path d="M157.03 137.93C157.03 139.1 156.08 140.05 154.91 140.05C153.74 140.05 152.79 139.1 152.79 137.93C152.79 136.76 153.74 135.81 154.91 135.81C156.08 135.81 157.03 136.76 157.03 137.93Z" fill="#1D4ED8"/>
<path d="M176.13 137.93C176.13 139.1 175.18 140.05 174.01 140.05C172.84 140.05 171.89 139.1 171.89 137.93C171.89 136.76 172.84 135.81 174.01 135.81C175.18 135.81 176.13 136.76 176.13 137.93Z" fill="#1D4ED8"/>
<path d="M195.23 137.93C195.23 139.1 194.28 140.05 193.11 140.05C191.94 140.05 190.99 139.1 190.99 137.93C190.99 136.76 191.94 135.81 193.11 135.81C194.28 135.81 195.23 136.76 195.23 137.93Z" fill="#1D4ED8"/>
<path d="M2.12 157.03C3.29084 157.03 4.23999 156.081 4.23999 154.91C4.23999 153.739 3.29084 152.79 2.12 152.79C0.949151 152.79 0 153.739 0 154.91C0 156.081 0.949151 157.03 2.12 157.03Z" fill="#1D4ED8"/>
<path d="M21.2201 157.03C22.3909 157.03 23.3401 156.081 23.3401 154.91C23.3401 153.739 22.3909 152.79 21.2201 152.79C20.0492 152.79 19.1001 153.739 19.1001 154.91C19.1001 156.081 20.0492 157.03 21.2201 157.03Z" fill="#1D4ED8"/>
<path d="M40.3202 157.03C41.491 157.03 42.4402 156.081 42.4402 154.91C42.4402 153.739 41.491 152.79 40.3202 152.79C39.1493 152.79 38.2002 153.739 38.2002 154.91C38.2002 156.081 39.1493 157.03 40.3202 157.03Z" fill="#1D4ED8"/>
<path d="M59.4199 157.03C60.5907 157.03 61.5399 156.081 61.5399 154.91C61.5399 153.739 60.5907 152.79 59.4199 152.79C58.249 152.79 57.2998 153.739 57.2998 154.91C57.2998 156.081 58.249 157.03 59.4199 157.03Z" fill="#1D4ED8"/>
<path d="M80.6399 154.91C80.6399 156.08 79.6899 157.03 78.5199 157.03C77.3499 157.03 76.3999 156.08 76.3999 154.91C76.3999 153.74 77.3499 152.79 78.5199 152.79C79.6899 152.79 80.6399 153.74 80.6399 154.91Z" fill="#1D4ED8"/>
<path d="M97.6102 157.03C98.7811 157.03 99.7303 156.081 99.7303 154.91C99.7303 153.739 98.7811 152.79 97.6102 152.79C96.4394 152.79 95.4902 153.739 95.4902 154.91C95.4902 156.081 96.4394 157.03 97.6102 157.03Z" fill="#1D4ED8"/>
<path d="M116.71 157.03C117.881 157.03 118.83 156.081 118.83 154.91C118.83 153.739 117.881 152.79 116.71 152.79C115.539 152.79 114.59 153.739 114.59 154.91C114.59 156.081 115.539 157.03 116.71 157.03Z" fill="#1D4ED8"/>
<path d="M135.81 157.03C136.981 157.03 137.93 156.081 137.93 154.91C137.93 153.739 136.981 152.79 135.81 152.79C134.639 152.79 133.69 153.739 133.69 154.91C133.69 156.081 134.639 157.03 135.81 157.03Z" fill="#1D4ED8"/>
<path d="M154.91 157.03C156.081 157.03 157.03 156.081 157.03 154.91C157.03 153.739 156.081 152.79 154.91 152.79C153.739 152.79 152.79 153.739 152.79 154.91C152.79 156.081 153.739 157.03 154.91 157.03Z" fill="#1D4ED8"/>
<path d="M174.01 157.03C175.181 157.03 176.13 156.081 176.13 154.91C176.13 153.739 175.181 152.79 174.01 152.79C172.839 152.79 171.89 153.739 171.89 154.91C171.89 156.081 172.839 157.03 174.01 157.03Z" fill="#1D4ED8"/>
<path d="M193.11 157.03C194.281 157.03 195.23 156.081 195.23 154.91C195.23 153.739 194.281 152.79 193.11 152.79C191.939 152.79 190.99 153.739 190.99 154.91C190.99 156.081 191.939 157.03 193.11 157.03Z" fill="#1D4ED8"/>
<path d="M2.12 174.01C3.29084 174.01 4.23999 173.061 4.23999 171.89C4.23999 170.719 3.29084 169.77 2.12 169.77C0.949151 169.77 0 170.719 0 171.89C0 173.061 0.949151 174.01 2.12 174.01Z" fill="#1D4ED8"/>
<path d="M21.2201 174.01C22.3909 174.01 23.3401 173.061 23.3401 171.89C23.3401 170.719 22.3909 169.77 21.2201 169.77C20.0492 169.77 19.1001 170.719 19.1001 171.89C19.1001 173.061 20.0492 174.01 21.2201 174.01Z" fill="#1D4ED8"/>
<path d="M40.3202 174.01C41.491 174.01 42.4402 173.061 42.4402 171.89C42.4402 170.719 41.491 169.77 40.3202 169.77C39.1493 169.77 38.2002 170.719 38.2002 171.89C38.2002 173.061 39.1493 174.01 40.3202 174.01Z" fill="#1D4ED8"/>
<path d="M59.4199 174.01C60.5907 174.01 61.5399 173.061 61.5399 171.89C61.5399 170.719 60.5907 169.77 59.4199 169.77C58.249 169.77 57.2998 170.719 57.2998 171.89C57.2998 173.061 58.249 174.01 59.4199 174.01Z" fill="#1D4ED8"/>
<path d="M80.6399 171.89C80.6399 173.06 79.6899 174.01 78.5199 174.01C77.3499 174.01 76.3999 173.06 76.3999 171.89C76.3999 170.72 77.3499 169.77 78.5199 169.77C79.6899 169.76 80.6399 170.71 80.6399 171.89Z" fill="#1D4ED8"/>
<path d="M97.6102 174.01C98.7811 174.01 99.7303 173.061 99.7303 171.89C99.7303 170.719 98.7811 169.77 97.6102 169.77C96.4394 169.77 95.4902 170.719 95.4902 171.89C95.4902 173.061 96.4394 174.01 97.6102 174.01Z" fill="#1D4ED8"/>
<path d="M116.71 174.01C117.881 174.01 118.83 173.061 118.83 171.89C118.83 170.719 117.881 169.77 116.71 169.77C115.539 169.77 114.59 170.719 114.59 171.89C114.59 173.061 115.539 174.01 116.71 174.01Z" fill="#1D4ED8"/>
<path d="M135.81 174.01C136.981 174.01 137.93 173.061 137.93 171.89C137.93 170.719 136.981 169.77 135.81 169.77C134.639 169.77 133.69 170.719 133.69 171.89C133.69 173.061 134.639 174.01 135.81 174.01Z" fill="#1D4ED8"/>
<path d="M154.91 174.01C156.081 174.01 157.03 173.061 157.03 171.89C157.03 170.719 156.081 169.77 154.91 169.77C153.739 169.77 152.79 170.719 152.79 171.89C152.79 173.061 153.739 174.01 154.91 174.01Z" fill="#1D4ED8"/>
<path d="M174.01 174.01C175.181 174.01 176.13 173.061 176.13 171.89C176.13 170.719 175.181 169.77 174.01 169.77C172.839 169.77 171.89 170.719 171.89 171.89C171.89 173.061 172.839 174.01 174.01 174.01Z" fill="#1D4ED8"/>
<path d="M193.11 174.01C194.281 174.01 195.23 173.061 195.23 171.89C195.23 170.719 194.281 169.77 193.11 169.77C191.939 169.77 190.99 170.719 190.99 171.89C190.99 173.061 191.939 174.01 193.11 174.01Z" fill="#1D4ED8"/>
<path d="M4.23999 188.86C4.23999 190.03 3.29 190.98 2.12 190.98C0.949995 190.98 0 190.03 0 188.86C0 187.69 0.949995 186.74 2.12 186.74C3.29 186.74 4.23999 187.69 4.23999 188.86Z" fill="#1D4ED8"/>
<path d="M23.3401 188.86C23.3401 190.03 22.3901 190.98 21.2201 190.98C20.0501 190.98 19.1001 190.03 19.1001 188.86C19.1001 187.69 20.0501 186.74 21.2201 186.74C22.3901 186.74 23.3401 187.69 23.3401 188.86Z" fill="#1D4ED8"/>
<path d="M42.4402 188.86C42.4402 190.03 41.4902 190.98 40.3202 190.98C39.1502 190.98 38.2002 190.03 38.2002 188.86C38.2002 187.69 39.1502 186.74 40.3202 186.74C41.4902 186.74 42.4402 187.69 42.4402 188.86Z" fill="#1D4ED8"/>
<path d="M61.5399 188.86C61.5399 190.03 60.5899 190.98 59.4199 190.98C58.2499 190.98 57.2998 190.03 57.2998 188.86C57.2998 187.69 58.2499 186.74 59.4199 186.74C60.5899 186.74 61.5399 187.69 61.5399 188.86Z" fill="#1D4ED8"/>
<path d="M80.6399 188.86C80.6399 190.03 79.6899 190.98 78.5199 190.98C77.3499 190.98 76.3999 190.03 76.3999 188.86C76.3999 187.69 77.3499 186.74 78.5199 186.74C79.6899 186.74 80.6399 187.69 80.6399 188.86Z" fill="#1D4ED8"/>
<path d="M99.74 188.86C99.74 190.03 98.79 190.98 97.62 190.98C96.45 190.98 95.5 190.03 95.5 188.86C95.5 187.69 96.45 186.74 97.62 186.74C98.78 186.74 99.74 187.69 99.74 188.86Z" fill="#1D4ED8"/>
<path d="M118.83 188.86C118.83 190.03 117.88 190.98 116.71 190.98C115.54 190.98 114.59 190.03 114.59 188.86C114.59 187.69 115.54 186.74 116.71 186.74C117.88 186.74 118.83 187.69 118.83 188.86Z" fill="#1D4ED8"/>
<path d="M137.93 188.86C137.93 190.03 136.98 190.98 135.81 190.98C134.64 190.98 133.69 190.03 133.69 188.86C133.69 187.69 134.64 186.74 135.81 186.74C136.98 186.74 137.93 187.69 137.93 188.86Z" fill="#1D4ED8"/>
<path d="M157.03 188.86C157.03 190.03 156.08 190.98 154.91 190.98C153.74 190.98 152.79 190.03 152.79 188.86C152.79 187.69 153.74 186.74 154.91 186.74C156.08 186.74 157.03 187.69 157.03 188.86Z" fill="#1D4ED8"/>
<path d="M176.13 188.86C176.13 190.03 175.18 190.98 174.01 190.98C172.84 190.98 171.89 190.03 171.89 188.86C171.89 187.69 172.84 186.74 174.01 186.74C175.18 186.74 176.13 187.69 176.13 188.86Z" fill="#1D4ED8"/>
<path d="M195.23 188.86C195.23 190.03 194.28 190.98 193.11 190.98C191.94 190.98 190.99 190.03 190.99 188.86C190.99 187.69 191.94 186.74 193.11 186.74C194.28 186.74 195.23 187.69 195.23 188.86Z" fill="#1D4ED8"/>
</svg>
