<svg width="293" height="288" viewBox="0 0 293 288" fill="none" xmlns="http://www.w3.org/2000/svg">
<path d="M127.988 269.78C123.808 269.766 119.646 269.229 115.6 268.18L114.8 267.959L114.06 267.588C87.3151 254.178 64.7511 236.466 46.9961 214.943C32.2984 197.021 20.8393 176.674 13.1341 154.815C3.92008 128.644 -0.5128 101.029 0.0471339 73.2895C0.0581339 72.7075 0.06813 72.2575 0.06813 71.9475C0.06813 58.4635 7.55313 46.6315 19.1371 41.8045C28.0031 38.1105 108.498 5.04752 114.314 2.65852C125.267 -2.82948 136.952 1.75151 138.822 2.55251C143.016 4.26751 217.429 34.7035 233.51 42.3605C250.083 50.2525 254.504 64.4295 254.504 71.5605C254.504 103.853 248.911 134.032 237.881 161.26C228.973 183.3 216.348 203.648 200.555 221.415C170.085 255.705 139.606 267.862 139.312 267.969C135.67 269.222 131.837 269.834 127.985 269.778L127.988 269.78ZM120.82 252.026C123.462 252.618 129.546 253.507 133.511 252.061C138.548 250.224 164.058 236.996 187.897 210.169C220.834 173.1 237.543 126.509 237.57 71.6805C237.511 70.5695 236.722 62.6475 226.231 57.6515C210.462 50.1425 133.116 18.5155 132.337 18.1975L132.123 18.1065C130.502 17.4275 125.344 15.9965 121.788 17.8595L121.076 18.1915C120.214 18.5455 34.7671 53.6405 25.6541 57.4375C19.2791 60.0935 17.0081 66.6735 17.0081 71.9465C17.0081 72.3315 16.9981 72.8925 16.9841 73.6165C16.2551 111.133 24.9361 203.447 120.82 252.025V252.026Z" fill="#3F3D56"/>
<path d="M117.652 10.1275C117.652 10.1275 31.429 45.5415 22.19 49.3915C12.951 53.2415 8.333 62.4785 8.333 71.7175C8.333 80.9565 1.40401 201.503 117.652 259.787C117.652 259.787 128.203 262.706 136.207 259.787C144.211 256.868 245.832 207.592 245.832 71.3315C245.832 71.3315 245.832 57.4745 229.665 49.7755C213.498 42.0765 135.334 10.1285 135.334 10.1285C135.334 10.1285 125.736 5.89153 117.652 10.1275Z" fill="#0F4DC0"/>
<path opacity="0.1" d="M127.097 38.0723V226.986C127.097 226.986 40.1042 185.111 40.8742 75.0223L127.097 38.0723Z" fill="black"/>
<path d="M115.883 180.276C113.19 180.28 110.569 179.41 108.414 177.794L108.28 177.695L80.151 156.159C78.8056 155.176 77.67 153.935 76.8111 152.508C75.9522 151.08 75.3872 149.496 75.1495 147.847C74.9117 146.198 75.0059 144.518 75.4265 142.906C75.8472 141.295 76.5857 139.783 77.5988 138.461C78.6119 137.138 79.8792 136.032 81.326 135.206C82.7729 134.38 84.3701 133.852 86.024 133.653C87.6779 133.453 89.3549 133.586 90.9567 134.044C92.5584 134.502 94.0524 135.275 95.351 136.318L113.571 150.289L156.627 94.1385C158.644 91.5091 161.623 89.7884 164.909 89.3546C168.194 88.9209 171.518 89.8096 174.148 91.8255L173.88 92.1895L174.155 91.8315C176.782 93.8505 178.501 96.8291 178.934 100.114C179.368 103.398 178.481 106.721 176.468 109.353L125.824 175.4C124.653 176.922 123.147 178.153 121.423 178.999C119.698 179.845 117.802 180.282 115.882 180.276L115.883 180.276Z" fill="white"/>
<g clip-path="url(#clip0_130_198)">
<path d="M213 133.5C256.907 133.5 292.5 169.093 292.5 213C292.5 256.907 256.907 292.5 213 292.5C169.093 292.5 133.5 256.907 133.5 213C133.5 169.093 169.093 133.5 213 133.5Z" fill="#0F4DC0" stroke="white"/>
<mask id="mask0_130_198" style="mask-type:luminance" maskUnits="userSpaceOnUse" x="133" y="133" width="160" height="160">
<path d="M213 293C257.183 293 293 257.183 293 213C293 168.817 257.183 133 213 133C168.817 133 133 168.817 133 213C133 257.183 168.817 293 213 293Z" fill="white"/>
</mask>
<g mask="url(#mask0_130_198)">
</g>
<g clip-path="url(#clip1_130_198)">
<path d="M201.567 195.241C206.721 195.241 210.899 191.066 210.899 185.916C210.899 180.765 206.721 176.59 201.567 176.59C196.412 176.59 192.234 180.765 192.234 185.916C192.234 191.066 196.412 195.241 201.567 195.241Z" fill="#FF6584"/>
<path d="M242.957 196.599V207.701L237.752 211.207L230.106 216.354L221.609 222.077L208.276 215.415L191.428 206.999L187.92 205.246L184.411 202.441L195.245 192.775L198.356 189.999C202.031 186.72 206.786 184.908 211.713 184.908H231.256C232.793 184.908 234.314 185.21 235.734 185.798C237.153 186.385 238.443 187.246 239.53 188.332C240.616 189.418 241.478 190.706 242.066 192.125C242.654 193.543 242.957 195.064 242.957 196.599Z" fill="#3F3D56"/>
<path d="M237.798 202.391L242.957 196.789C251.976 230.032 252.713 262.17 242.957 292.909H236.412L236.06 292.557L226.936 283.442L221.64 278.151L221.779 277.131L222.26 273.623L223.317 265.909L224.47 257.493L225.623 249.078L226.776 240.662L227.711 233.834L227.759 233.489L227.929 232.246L229.082 223.83L230.106 216.354L230.235 215.415L231.084 209.221L231.436 206.649L237.752 202.441L237.798 202.391Z" fill="#CCCCCC"/>
<path d="M184.411 202.44H237.752V292.909H184.411C178.586 259.807 177.122 228.91 184.411 202.44Z" fill="#F2F2F2"/>
<path d="M214.941 270.818H205.115V292.91H214.941V270.818Z" fill="#CCCCCC"/>
<path d="M231.084 257.493H190.376V265.909H231.084V257.493Z" fill="#3F3D56"/>
<path d="M234.193 277.601H216.837V281.189H234.193V277.601Z" fill="#3F3D56"/>
<path d="M203.265 277.601H185.909V281.189H203.265V277.601Z" fill="#3F3D56"/>
<path d="M231.708 240H191V248.416H231.708V240Z" fill="#3F3D56"/>
<path d="M231.084 223.83H190.376V232.246H231.084V223.83Z" fill="#3F3D56"/>
<path d="M231.084 206.999H190.376V215.414H231.084V206.999Z" fill="#3F3D56"/>
<path d="M210.803 184.578L232.141 183.535C235.084 183.392 237.973 184.363 240.231 186.254C242.489 188.146 243.949 190.82 244.32 193.74L246.908 214.114L237.817 202.401L237.798 202.391L210.593 188.292L210.054 188.012C208.402 187.156 208.945 184.669 210.803 184.578Z" fill="#3F3D56"/>
<path d="M221.65 191.585H204.294V195.173H221.65V191.585Z" fill="#F2F2F2"/>
<path d="M214.949 268.539H206.874C201.249 246.599 201.249 225.081 206.874 203.984H214.949C220.09 225.873 220.275 247.405 214.949 268.539Z" fill="#F2F2F2"/>
</g>
</g>
<defs>
<clipPath id="clip0_130_198">
<rect width="160" height="160" fill="white" transform="translate(133 133)"/>
</clipPath>
<clipPath id="clip1_130_198">
<rect width="100" height="119" fill="white" transform="translate(150 174)"/>
</clipPath>
</defs>
</svg>
