<svg width="293" height="293" viewBox="0 0 293 293" fill="none" xmlns="http://www.w3.org/2000/svg">
<path d="M127.988 269.78C123.808 269.766 119.646 269.229 115.6 268.18L114.8 267.959L114.06 267.588C87.3151 254.178 64.7511 236.466 46.9961 214.943C32.2984 197.021 20.8393 176.674 13.1341 154.815C3.92008 128.644 -0.5128 101.029 0.0471339 73.2895C0.0581339 72.7075 0.06813 72.2575 0.06813 71.9475C0.06813 58.4635 7.55313 46.6315 19.1371 41.8045C28.0031 38.1105 108.498 5.04752 114.314 2.65852C125.267 -2.82948 136.952 1.75151 138.822 2.55251C143.016 4.26751 217.429 34.7035 233.51 42.3605C250.083 50.2525 254.504 64.4295 254.504 71.5605C254.504 103.853 248.911 134.032 237.881 161.26C228.973 183.3 216.348 203.648 200.555 221.415C170.085 255.705 139.606 267.862 139.312 267.969C135.67 269.222 131.837 269.834 127.985 269.778L127.988 269.78ZM120.82 252.026C123.462 252.618 129.546 253.507 133.511 252.061C138.548 250.224 164.058 236.996 187.897 210.169C220.834 173.1 237.543 126.509 237.57 71.6805C237.511 70.5695 236.722 62.6475 226.231 57.6515C210.462 50.1425 133.116 18.5155 132.337 18.1975L132.123 18.1065C130.502 17.4275 125.344 15.9965 121.788 17.8595L121.076 18.1915C120.214 18.5455 34.7671 53.6405 25.6541 57.4375C19.2791 60.0935 17.0081 66.6735 17.0081 71.9465C17.0081 72.3315 16.9981 72.8925 16.9841 73.6165C16.2551 111.133 24.9361 203.447 120.82 252.025V252.026Z" fill="#3F3D56"/>
<path d="M117.652 10.1275C117.652 10.1275 31.429 45.5415 22.19 49.3915C12.951 53.2415 8.333 62.4785 8.333 71.7175C8.333 80.9565 1.40401 201.503 117.652 259.787C117.652 259.787 128.203 262.706 136.207 259.787C144.211 256.868 245.832 207.592 245.832 71.3315C245.832 71.3315 245.832 57.4745 229.665 49.7755C213.498 42.0765 135.334 10.1285 135.334 10.1285C135.334 10.1285 125.736 5.89153 117.652 10.1275Z" fill="#0F4DC0"/>
<path opacity="0.1" d="M127.097 38.0723V226.986C127.097 226.986 40.1042 185.111 40.8742 75.0223L127.097 38.0723Z" fill="black"/>
<path d="M115.883 180.276C113.19 180.28 110.569 179.41 108.414 177.794L108.28 177.695L80.151 156.159C78.8056 155.176 77.67 153.935 76.8111 152.508C75.9522 151.08 75.3872 149.496 75.1495 147.847C74.9117 146.198 75.0059 144.518 75.4265 142.906C75.8472 141.295 76.5857 139.783 77.5988 138.461C78.6119 137.138 79.8792 136.032 81.326 135.206C82.7729 134.38 84.3701 133.852 86.024 133.653C87.6779 133.453 89.3549 133.586 90.9567 134.044C92.5584 134.502 94.0524 135.275 95.351 136.318L113.571 150.289L156.627 94.1385C158.644 91.5091 161.623 89.7884 164.909 89.3546C168.194 88.9209 171.518 89.8096 174.148 91.8255L173.88 92.1895L174.155 91.8315C176.782 93.8505 178.501 96.8291 178.934 100.114C179.368 103.398 178.481 106.721 176.468 109.353L125.824 175.4C124.653 176.922 123.147 178.153 121.423 178.999C119.698 179.845 117.802 180.282 115.882 180.276L115.883 180.276Z" fill="white"/>
<g clip-path="url(#clip0_130_197)">
<path d="M213 133.5C256.907 133.5 292.5 169.093 292.5 213C292.5 256.907 256.907 292.5 213 292.5C169.093 292.5 133.5 256.907 133.5 213C133.5 169.093 169.093 133.5 213 133.5Z" fill="#0F4DC0" stroke="white"/>
<mask id="mask0_130_197" style="mask-type:luminance" maskUnits="userSpaceOnUse" x="133" y="133" width="160" height="160">
<path d="M213 293C257.183 293 293 257.183 293 213C293 168.817 257.183 133 213 133C168.817 133 133 168.817 133 213C133 257.183 168.817 293 213 293Z" fill="white"/>
</mask>
<g mask="url(#mask0_130_197)">
<path d="M217.715 197.601C225.35 197.601 231.54 191.412 231.54 183.776C231.54 176.141 225.35 169.951 217.715 169.951C210.079 169.951 203.89 176.141 203.89 183.776C203.89 191.412 210.079 197.601 217.715 197.601Z" fill="#FFB9B9"/>
<path d="M205.774 186.917C205.774 186.917 205.146 206.397 202.004 208.911C198.862 211.425 213.315 222.107 213.315 222.107L222.74 207.026V193.201L205.774 186.917Z" fill="#FFB9B9"/>
<path d="M212.058 213.311L204.429 201.791L200.119 207.655L193.835 225.251L198.863 293.747L228.398 294.375L232.169 215.825L222.744 204.514L212.058 213.311Z" fill="#F2F2F2"/>
<path d="M244.107 217.709L249.135 217.081C249.135 217.081 250.391 217.709 251.02 222.108C251.649 226.506 259.187 265.468 259.187 265.468L249.132 313.225L237.821 298.143L244.736 271.752L237.823 245.359L244.107 217.709Z" fill="#090814"/>
<path d="M180.01 217.082H176.239L166.813 267.982L175.61 307.572L184.408 293.119L181.894 277.409L183.148 263.584L187.548 255.414L180.01 217.082Z" fill="#090814"/>
<path d="M209.545 183.776L212.059 183.148C212.059 183.148 213.944 172.462 218.343 173.723C222.742 174.983 234.054 176.236 234.054 171.209C234.054 166.181 223.368 161.784 217.087 162.411C210.806 163.038 200.12 164.925 200.748 174.35C201.376 183.775 205.431 192.946 205.431 192.946L205.761 187.357L209.545 183.776Z" fill="#090814"/>
<path d="M248.507 217.081L228.398 208.912L223.685 205.455L209.545 267.982L200.12 239.703L202.948 203.57L176.87 217.081L185.668 259.813L186.924 276.152L183.153 289.348C183.153 289.348 169.957 298.773 174.356 308.829C178.755 318.884 183.781 319.514 183.781 319.514C183.781 319.514 205.147 299.405 206.406 294.378C207.665 289.351 209.548 280.553 209.548 280.553C209.548 280.553 220.233 320.772 232.798 320.143C245.362 319.514 245.366 306.318 245.366 306.318L242.224 292.493L237.197 278.039L239.711 254.161L248.507 217.081Z" fill="#090814"/>
</g>
</g>
<defs>
<clipPath id="clip0_130_197">
<rect width="160" height="160" fill="white" transform="translate(133 133)"/>
</clipPath>
</defs>
</svg>
