<svg width="340" height="372" viewBox="0 0 340 372" fill="none" xmlns="http://www.w3.org/2000/svg">
<rect width="325" height="372" rx="25" fill="#D6D6E3"/>
<rect x="15" y="13" width="296" height="347" rx="25" fill="white"/>
<path d="M211.455 319.398L227.98 324.451L219.501 352.183C219.501 352.183 218.115 342.902 213.984 341.639C209.853 340.376 202.976 347.131 202.976 347.131L211.455 319.398Z" fill="#090814"/>
<path d="M230.646 325.107L247.172 320.055L255.651 347.788C255.651 347.788 250.016 343.759 245.885 345.022C241.754 346.285 239.125 352.84 239.125 352.84L230.646 325.107Z" fill="#090814"/>
<path d="M239.073 137.094L88.995 137.103C86.6068 137.103 84.3163 136.154 82.6275 134.466C80.9387 132.777 79.9899 130.487 79.9898 128.098C79.9896 125.71 80.9382 123.42 82.6268 121.731C84.3154 120.042 86.6058 119.093 88.994 119.093L239.072 119.085C241.461 119.085 243.751 120.033 245.44 121.722C247.129 123.411 248.077 125.701 248.078 128.089C248.078 130.477 247.129 132.768 245.44 134.457C243.752 136.145 241.462 137.094 239.073 137.094Z" fill="#090814"/>
<path d="M122.01 95.5788L88.993 95.5807C86.6048 95.5808 84.3144 94.6322 82.6256 92.9436C80.9368 91.255 79.9879 88.9647 79.9878 86.5765C79.9877 84.1883 80.9363 81.8978 82.6249 80.209C84.3135 78.5202 86.6038 77.5714 88.992 77.5713L122.009 77.5694C124.397 77.5693 126.688 78.5179 128.377 80.2065C130.065 81.8951 131.014 84.1854 131.014 86.5736C131.015 88.9618 130.066 91.2523 128.377 92.9411C126.689 94.6299 124.398 95.5787 122.01 95.5788Z" fill="#00C96D"/>
<path d="M239.076 178.616L88.9979 178.625C86.6097 178.625 84.3193 177.676 82.6305 175.988C80.9417 174.299 79.9928 172.009 79.9927 169.62C79.9926 167.232 80.9411 164.942 82.6298 163.253C84.3184 161.564 86.6087 160.615 88.9969 160.615L239.075 160.607C241.463 160.607 243.754 161.555 245.443 163.244C247.131 164.933 248.08 167.223 248.08 169.611C248.081 171.999 247.132 174.29 245.443 175.978C243.755 177.667 241.464 178.616 239.076 178.616Z" fill="#090814"/>
<path d="M239.078 220.137L88.9998 220.146C86.6116 220.146 84.3212 219.197 82.6324 217.509C80.9436 215.82 79.9948 213.53 79.9946 211.141C79.9945 208.753 80.9431 206.463 82.6317 204.774C84.3203 203.085 86.6106 202.136 88.9988 202.136L239.077 202.128C241.465 202.128 243.756 203.076 245.445 204.765C247.133 206.454 248.082 208.744 248.082 211.132C248.083 213.52 247.134 215.811 245.445 217.499C243.757 219.188 241.466 220.137 239.078 220.137Z" fill="#090814"/>
<path d="M226.642 257.652C233.729 257.651 240.656 259.752 246.548 263.689C252.441 267.626 257.034 273.221 259.746 279.768C262.458 286.315 263.168 293.519 261.786 300.47C260.404 307.42 256.992 313.804 251.981 318.816C246.97 323.827 240.586 327.239 233.636 328.622C226.686 330.005 219.482 329.296 212.935 326.585C206.387 323.873 200.791 319.281 196.854 313.389C192.917 307.497 190.815 300.57 190.814 293.484C190.814 283.981 194.588 274.867 201.307 268.148C208.026 261.428 217.14 257.652 226.642 257.652Z" fill="#00C96D"/>
<path d="M222.053 312.364C221.434 312.364 220.824 312.22 220.271 311.943C219.718 311.666 219.236 311.264 218.865 310.769L209.089 297.736C208.455 296.89 208.183 295.827 208.332 294.781C208.482 293.735 209.041 292.79 209.886 292.156C210.732 291.522 211.795 291.25 212.842 291.399C213.888 291.548 214.832 292.108 215.466 292.953L221.862 301.479L238.285 276.842C238.571 276.396 238.943 276.013 239.379 275.713C239.815 275.413 240.306 275.203 240.824 275.094C241.342 274.986 241.876 274.982 242.396 275.083C242.915 275.183 243.409 275.386 243.85 275.68C244.29 275.973 244.667 276.351 244.96 276.792C245.252 277.233 245.454 277.727 245.554 278.247C245.653 278.767 245.648 279.301 245.539 279.819C245.43 280.336 245.219 280.827 244.918 281.262L225.37 310.588C225.016 311.118 224.541 311.555 223.984 311.864C223.427 312.173 222.805 312.343 222.168 312.362L222.053 312.364Z" fill="white"/>
</svg>
