<svg width="722" height="720" viewBox="0 0 722 720" fill="none" xmlns="http://www.w3.org/2000/svg">
<g clip-path="url(#clip0_2365_837)">
<path d="M613.309 115.34C611.432 110.884 608.29 107.076 604.271 104.388C600.252 101.699 595.533 100.249 590.698 100.215H139.46C132.973 100.218 126.753 102.796 122.167 107.383C117.58 111.97 115.001 118.189 114.998 124.676V695.539C115.001 702.026 117.58 708.245 122.166 712.832C126.753 717.418 132.973 719.997 139.459 720H590.718C597.203 719.992 603.42 717.412 608.005 712.826C612.591 708.241 615.171 702.024 615.179 695.539V124.676C615.19 121.472 614.559 118.298 613.325 115.341L613.309 115.34ZM609.731 695.54C609.724 700.585 607.717 705.422 604.149 708.989C600.581 712.556 595.743 714.562 590.698 714.567H139.46C134.415 714.567 129.576 712.563 126.008 708.996C122.439 705.429 120.433 700.591 120.431 695.545V124.679C120.438 119.634 122.445 114.798 126.012 111.231C129.579 107.664 134.415 105.657 139.46 105.65H590.718C594.518 105.664 598.228 106.811 601.374 108.943C604.52 111.075 606.96 114.096 608.381 117.62C608.658 118.322 608.896 119.039 609.096 119.767C609.528 121.369 609.747 123.02 609.747 124.679L609.731 695.54Z" fill="#3F3D56"/>
<path d="M519.141 234.994H383.22C380.336 234.994 377.57 233.848 375.531 231.809C373.491 229.77 372.346 227.004 372.346 224.12C372.346 221.236 373.491 218.47 375.531 216.431C377.57 214.392 380.336 213.246 383.22 213.246H519.141C522.025 213.246 524.791 214.392 526.83 216.431C528.869 218.47 530.015 221.236 530.015 224.12C530.015 227.004 528.869 229.77 526.83 231.809C524.791 233.848 522.025 234.994 519.141 234.994Z" fill="#3F3D56"/>
<path d="M519.141 292.08H383.22C380.336 292.08 377.57 290.934 375.531 288.895C373.491 286.856 372.346 284.09 372.346 281.206C372.346 278.322 373.491 275.556 375.531 273.517C377.57 271.478 380.336 270.332 383.22 270.332H519.141C522.025 270.332 524.791 271.478 526.83 273.517C528.869 275.556 530.015 278.322 530.015 281.206C530.015 284.09 528.869 286.856 526.83 288.895C524.791 290.934 522.025 292.08 519.141 292.08Z" fill="#3F3D56"/>
<path d="M313.481 324.585H214.151C210.907 324.582 207.797 323.292 205.503 320.998C203.21 318.705 201.919 315.595 201.916 312.351V195.134C201.919 191.89 203.21 188.781 205.503 186.487C207.797 184.193 210.906 182.903 214.15 182.9H313.48C316.724 182.903 319.834 184.193 322.128 186.486C324.422 188.78 325.713 191.89 325.716 195.134V312.351C325.713 315.595 324.422 318.705 322.129 320.998C319.835 323.292 316.725 324.582 313.481 324.585Z" fill="#006730"/>
<path d="M518.199 408.973H211.019C208.135 408.973 205.369 407.827 203.329 405.788C201.29 403.749 200.145 400.983 200.145 398.099C200.145 395.215 201.29 392.449 203.329 390.41C205.369 388.371 208.135 387.225 211.019 387.225H518.199C521.083 387.225 523.848 388.371 525.888 390.41C527.927 392.449 529.073 395.215 529.073 398.099C529.073 400.983 527.927 403.749 525.888 405.788C523.848 407.827 521.083 408.973 518.199 408.973Z" fill="#CCCCCC"/>
<path d="M518.199 466.058H211.019C208.135 466.058 205.369 464.912 203.329 462.873C201.29 460.834 200.145 458.068 200.145 455.184C200.145 452.3 201.29 449.534 203.329 447.495C205.369 445.456 208.135 444.31 211.019 444.31H518.199C519.627 444.31 521.041 444.591 522.36 445.138C523.679 445.684 524.878 446.485 525.888 447.495C526.897 448.505 527.698 449.703 528.245 451.023C528.791 452.342 529.073 453.756 529.073 455.184C529.073 456.612 528.791 458.026 528.245 459.345C527.698 460.665 526.897 461.863 525.888 462.873C524.878 463.883 523.679 464.684 522.36 465.23C521.041 465.777 519.627 466.058 518.199 466.058Z" fill="#CCCCCC"/>
<path d="M518.199 523.144H211.019C208.135 523.144 205.369 521.998 203.329 519.959C201.29 517.92 200.145 515.154 200.145 512.27C200.145 509.386 201.29 506.62 203.329 504.581C205.369 502.542 208.135 501.396 211.019 501.396H518.199C521.083 501.396 523.848 502.542 525.888 504.581C527.927 506.62 529.073 509.386 529.073 512.27C529.073 515.154 527.927 517.92 525.888 519.959C523.848 521.998 521.083 523.144 518.199 523.144Z" fill="#CCCCCC"/>
<path d="M518.199 580.231H211.019C208.135 580.231 205.369 579.085 203.329 577.046C201.29 575.007 200.145 572.241 200.145 569.357C200.145 566.473 201.29 563.707 203.329 561.668C205.369 559.629 208.135 558.483 211.019 558.483H518.199C521.083 558.483 523.848 559.629 525.888 561.668C527.927 563.707 529.073 566.473 529.073 569.357C529.073 572.241 527.927 575.007 525.888 577.046C523.848 579.085 521.083 580.231 518.199 580.231Z" fill="#CCCCCC"/>
<path d="M518.199 637.317H211.019C208.135 637.317 205.369 636.171 203.329 634.132C201.29 632.093 200.145 629.327 200.145 626.443C200.145 623.559 201.29 620.793 203.329 618.754C205.369 616.715 208.135 615.569 211.019 615.569H518.199C521.083 615.569 523.848 616.715 525.888 618.754C527.927 620.793 529.073 623.559 529.073 626.443C529.073 629.327 527.927 632.093 525.888 634.132C523.848 636.171 521.083 637.317 518.199 637.317Z" fill="#CCCCCC"/>
<path d="M616.684 209.882C674.641 209.882 721.625 162.898 721.625 104.941C721.625 46.9837 674.641 0 616.684 0C558.727 0 511.743 46.9837 511.743 104.941C511.743 162.898 558.727 209.882 616.684 209.882Z" fill="#006730"/>
<path d="M606.284 144.975C603.923 144.979 601.624 144.215 599.735 142.799L599.619 142.711L574.956 123.845C572.648 122.076 571.138 119.464 570.757 116.582C570.376 113.7 571.155 110.784 572.924 108.477C574.692 106.17 577.305 104.659 580.187 104.278C583.069 103.897 585.984 104.676 588.292 106.445L604.266 118.695L642.015 69.4479C642.89 68.3061 643.981 67.3479 645.227 66.6279C646.473 65.908 647.848 65.4405 649.274 65.2521C650.701 65.0636 652.15 65.158 653.54 65.5298C654.93 65.9016 656.233 66.5435 657.375 67.4189L657.141 67.7439L657.382 67.4189C659.685 69.1894 661.192 71.8013 661.571 74.6815C661.951 77.5617 661.173 80.4749 659.407 82.7819L615.008 140.682C613.98 142.016 612.66 143.095 611.148 143.837C609.636 144.578 607.974 144.961 606.291 144.956L606.284 144.975Z" fill="white"/>
</g>
<defs>
<clipPath id="clip0_2365_837">
<rect width="606.625" height="720" fill="white" transform="translate(115)"/>
</clipPath>
</defs>
</svg>
