<svg data-w-id="c504b31f-e838-8c3a-a03e-fdecb60a935a" viewBox="0 0 100 101" fill="none" width="100" height="100"
     class="feature-icon-1">
    <g clip-path="url(#clip0_34_3648)" class="feature-icon-1-path-4">
        <path d="M35.336 23.6682V29.3445L36.748 29.5356C38.3932 29.7593 39.9707 30.2277 41.4364 30.9314C43.1048 31.7307 44.5518 32.7163 45.7519 33.8698L42.3988 37.2602C41.3735 36.2512 40.3109 35.438 39.2274 34.8298C37.6335 33.9327 35.9348 33.4783 34.1778 33.4783C31.7731 33.4783 29.8344 33.984 28.413 34.9813C26.8401 36.0881 26.0082 37.7798 26.0082 39.87C26.0082 41.5431 26.5581 42.9295 27.6463 43.9921C28.5435 44.8613 29.7249 45.6279 31.1579 46.2734C32.4722 46.8652 33.8936 47.4268 35.3849 47.9464C36.7853 48.4334 38.2557 49.0067 39.7493 49.6475C41.1381 50.2487 42.4127 51.006 43.5336 51.9008C44.5821 52.7373 45.4466 53.8488 46.0944 55.2003C46.7469 56.5635 47.0778 58.3018 47.0778 60.3687C47.0778 64.034 45.8498 66.8303 43.3262 68.9135C41.5855 70.3489 39.3509 71.3136 36.6851 71.7819L35.336 72.0196V77.8381H32.57V72.1734L31.0344 72.0825C28.5528 71.9357 26.3414 71.3881 24.461 70.456C22.5805 69.524 20.7979 68.1631 19.1505 66.4039L22.464 63.0903C23.5895 64.3067 24.8268 65.3436 26.1643 66.1871C28.0914 67.4082 30.361 68.0257 32.9079 68.0257C35.4548 68.0257 37.5939 67.4548 39.1854 66.327C40.9191 65.0919 41.8372 63.2721 41.8372 61.0631C41.8372 59.3084 41.3269 57.8358 40.3202 56.6893C39.4278 55.671 38.2394 54.8182 36.79 54.1541C35.5037 53.5668 34.0707 53.0099 32.5281 52.502C31.102 52.0336 29.6386 51.4837 28.1776 50.8685C26.8214 50.2953 25.5701 49.5589 24.4633 48.6804C23.4264 47.8579 22.5712 46.8 21.9187 45.5324C21.2803 44.2927 20.9587 42.622 20.9587 40.5667C20.9587 38.1736 21.5086 36.2139 22.6364 34.5758C23.7875 32.9074 25.3208 31.6584 27.3271 30.759C28.4992 30.2324 29.8018 29.8525 31.1999 29.6265L32.5724 29.4051V23.6682H35.3383M36.9671 22.0371H30.9389V28.0163C29.408 28.2633 27.9796 28.6781 26.6583 29.27C24.3911 30.2859 22.6038 31.747 21.2919 33.6484C19.98 35.5522 19.3252 37.8591 19.3252 40.5667C19.3252 42.8946 19.7051 44.796 20.467 46.278C21.229 47.7577 22.224 48.9857 23.4497 49.9574C24.68 50.9314 26.0432 51.7353 27.5438 52.3691C29.0468 53.0029 30.5381 53.5645 32.0201 54.0492C33.4974 54.5385 34.8629 55.0652 36.1142 55.6361C37.3609 56.207 38.3535 56.9177 39.0969 57.7635C39.8402 58.6094 40.2084 59.7092 40.2084 61.0631C40.2084 62.7548 39.5513 64.0667 38.2417 64.9964C36.9298 65.9262 35.1519 66.3945 32.9102 66.3945C30.6686 66.3945 28.7089 65.8656 27.0382 64.8077C25.3651 63.7498 23.8738 62.375 22.5665 60.6809L16.9182 66.3293C18.9897 68.8249 21.264 70.6867 23.7409 71.9124C25.8311 72.9493 28.2312 73.5459 30.9412 73.7067V79.4646H36.9694V73.3828C39.9288 72.8631 42.3941 71.7912 44.3654 70.1648C47.2595 67.7763 48.7112 64.5071 48.7112 60.3617C48.7112 58.0338 48.3267 56.0765 47.5694 54.4896C46.8075 52.9027 45.8008 51.6118 44.5542 50.6192C43.3075 49.6265 41.9211 48.8016 40.3995 48.1422C38.8732 47.4874 37.3842 46.9072 35.9232 46.3992C34.4621 45.8912 33.099 45.3506 31.829 44.7797C30.5614 44.2088 29.5454 43.5517 28.7811 42.813C28.0238 42.072 27.6393 41.0887 27.6393 39.863C27.6393 38.2971 28.2102 37.1134 29.352 36.3095C30.4938 35.5079 32.1017 35.1048 34.1778 35.1048C35.6552 35.1048 37.0766 35.4869 38.4281 36.2466C39.7843 37.0062 41.0962 38.1294 42.3638 39.609L48.0122 33.8977C46.4859 32.0779 44.5285 30.5982 42.1401 29.4541C40.509 28.6758 38.7846 28.1608 36.9671 27.9138V22.0301V22.0371Z"
              fill="#0F4DC0" class="feature-icon-1-path-1"></path>
        <path style="transform: translate3d(0px, 0px, 0px) scale3d(1, 1, 1) rotateX(0deg) rotateY(0deg) rotateZ(0deg) skew(0deg, 0deg); transform-style: preserve-3d;"
              d="M72.6353 32.002V56.2313L75.4199 53.4467L82.7367 46.1299L85.957 49.3456L70.361 64.9392L54.7651 49.3456L57.9854 46.1299L65.3022 53.4467L68.0868 56.2313V32.002H72.6353ZM74.2664 30.3709H66.4556V52.2933L57.9854 43.8231L52.4582 49.3456L70.361 67.2461L88.2639 49.3456L82.7367 43.8231L74.2664 52.2933V30.3709Z"
              fill="#ED3594" class="feature-icon-1-path-2"></path>
        <path d="M49.9998 100.707C36.6432 100.707 24.0881 95.5056 14.6439 86.0613C5.19964 76.6194 -0.00134277 64.062 -0.00134277 50.7077C-0.00134277 37.3534 5.19964 24.796 14.6439 15.3518C24.0881 5.90752 36.6432 0.706543 49.9998 0.706543C63.3565 0.706543 75.9115 5.90752 85.3558 15.3518C94.8 24.796 100.001 37.3511 100.001 50.7077C100.001 64.0643 94.8 76.6194 85.3558 86.0637C75.9115 95.5079 63.3565 100.709 49.9998 100.709V100.707ZM49.9998 2.33767C23.3285 2.33767 1.62979 24.0364 1.62979 50.7077C1.62979 77.379 23.3285 99.0778 49.9998 99.0778C76.6712 99.0778 98.3699 77.379 98.3699 50.7077C98.3699 24.0364 76.6688 2.33767 49.9998 2.33767Z"
              fill="#0F4DC0" class="feature-icon-1-path-3"></path>
    </g>
</svg>
