<svg width="200" height="202" viewBox="0 0 200 202" fill="none" xmlns="http://www.w3.org/2000/svg">
<path d="M99.9897 3.64005e-08C113.121 -0.000354263 126.123 2.58569 138.255 7.61049C150.386 12.6353 161.41 20.0004 170.695 29.2853C179.98 38.5703 187.345 49.5932 192.37 61.7247C197.396 73.8561 199.982 86.8586 199.982 99.9897C200.231 113.141 197.884 126.212 193.073 138.454C188.262 150.696 181.083 161.869 171.947 171.332C162.811 180.795 151.898 188.362 139.832 193.6C127.767 198.838 114.786 201.644 101.634 201.857C88.4827 202.07 75.4182 199.686 63.1895 194.841C50.9607 189.996 39.808 182.786 30.3705 173.624C20.9329 164.462 13.3959 153.528 8.19136 141.448C2.98679 129.368 0.216929 116.379 0.0404688 103.227L0 99.9897L0.0404688 97.1892C0.768923 71.1655 11.6188 46.452 30.2835 28.3027C48.9482 10.1534 73.9557 -0.000358877 99.9897 3.64005e-08ZM100.092 129.988L98.8215 130.058C96.3893 130.345 94.147 131.514 92.5199 133.344C90.8927 135.175 89.9939 137.538 89.9939 139.987C89.9939 142.436 90.8927 144.8 92.5199 146.631C94.147 148.461 96.3893 149.63 98.8215 149.917L99.9924 149.987L101.263 149.917C103.695 149.63 105.938 148.461 107.565 146.631C109.192 144.8 110.091 142.436 110.091 139.987C110.091 137.538 109.192 135.175 107.565 133.344C105.938 131.514 103.695 130.345 101.263 130.058L100.092 129.988ZM99.9924 42.6781C97.5436 42.6784 95.1801 43.5774 93.3501 45.2045C91.5201 46.8316 90.3508 49.0737 90.0641 51.5057L89.9939 52.6765V107.309L90.0641 108.48C90.3509 110.912 91.5203 113.154 93.3506 114.782C95.1809 116.409 97.5447 117.307 99.9937 117.307C102.443 117.307 104.807 116.409 106.637 114.782C108.467 113.154 109.637 110.912 109.923 108.48L109.993 107.309V52.6765L109.923 51.5057C109.636 49.0728 108.466 46.83 106.635 45.2027C104.804 43.5755 102.442 42.6771 99.9924 42.6781Z" fill="#991B1B"/>
</svg>
