<svg width="150" height="36" viewBox="0 0 150 36" fill="none" xmlns="http://www.w3.org/2000/svg">
    <path fill-rule="evenodd" clip-rule="evenodd"
          d="M34.3316 0L36.4973 14.7402L21.4973 36L15.5214 34.6232L6.49733 18.9921L0 6.64117L34.3316 0ZM32.3663 1.70079L1.28342 7.37008L15.7219 31.0191L19.6925 31.5051L32.3663 1.70079ZM24.0642 8.38245L17.4064 24.0135L9.46524 11.0551L24.0642 8.38245ZM22.3396 10.8526L15.8824 13.7278L17.9278 20.4094L22.3396 10.8526ZM65.0936 10.9741V22.2317L54.9465 10.9741H49.7727V25.9573H53.5829V14.7402L63.7299 25.9573H68.9438V10.9741H65.0936ZM86.8717 25.9573H91.0829L83.3824 10.9741H78.2086L70.5481 25.9573H74.7594L76.3636 22.7582H85.2674L86.8717 25.9573ZM77.7674 19.9235L80.8155 13.8493L83.8235 19.9235H77.7674ZM109.051 17.8583C109.813 17.0079 110.214 15.9955 110.214 14.9426C110.214 12.7559 109.171 11.0146 105.802 11.0146H92.7273V25.9977H106.283C109.652 25.9977 111.136 24.1755 111.136 21.6243C111.136 19.883 110.334 18.6682 109.051 17.8583ZM96.5374 16.9269V13.8088H104.679H104.84H105C105.04 13.8088 105.04 13.8088 105.08 13.8088H105.241C105.922 13.8898 106.404 14.2137 106.404 15.3071C106.404 16.4409 105.882 16.7649 105.201 16.8459H105.04H104.88H104.639H104.358H96.5374V16.9269ZM105.361 23.0011H96.5374V19.8425H105.602H105.842H106.003H106.163C106.845 19.9235 107.366 20.2475 107.366 21.3813C107.366 22.5962 106.805 22.8796 106.123 22.9606H105.963H105.722L105.361 23.0011ZM116.591 22.7177V10.9741H112.781V25.9573H128.102V22.7177H116.591ZM145.789 25.9573H150L142.299 10.9741H137.126L129.465 25.9573H133.676L135.281 22.7582H144.184L145.789 25.9573ZM136.684 19.9235L139.733 13.8493L142.741 19.9235H136.684Z"
          fill="#32253E"/>
</svg>
