<svg width="140" height="30" viewBox="0 0 140 30" fill="none" xmlns="http://www.w3.org/2000/svg">
    <g clip-path="url(#clip0_209_30806)">
        <path d="M44.561 4.4165C42.9403 4.4165 41.3785 4.62014 40.7424 4.79228C39.8166 5.0526 39.5857 5.45776 39.4114 6.29749L35.7376 23.2494C35.6788 23.5958 35.6222 23.8855 35.6222 24.1752C35.6222 25.0149 36.1722 25.5629 37.0686 25.5629C38.0532 25.5629 38.4583 24.9268 38.6599 23.9422L39.7011 19.1117C40.4233 19.1978 41.3785 19.2859 42.7388 19.2859C48.7281 19.2859 52.4586 16.0467 52.4586 11.1574C52.4586 6.8748 49.4776 4.4165 44.561 4.4165ZM42.594 16.5085C41.6682 16.5085 40.9439 16.4791 40.2805 16.3931L42.2182 7.39543C42.8249 7.30935 43.7234 7.19179 44.6492 7.19179C47.8317 7.19179 49.4524 8.697 49.4524 11.1847C49.4503 14.3672 47.1348 16.5085 42.594 16.5085Z"
              fill="#32253E"/>
        <path d="M138.809 19.9783C138.318 19.9783 137.999 20.268 137.392 20.9335C136.322 22.0335 135.656 22.6402 134.818 22.6402C134.067 22.6402 133.662 22.0335 133.662 21.0489C133.662 20.4989 133.777 19.8334 133.922 19.1113L134.993 14.0771H138.205C139.216 14.0771 139.825 13.4977 139.825 12.4565C139.825 11.8771 139.45 11.4446 138.582 11.4446H135.57L136.091 9.10177C136.149 8.75538 136.206 8.43628 136.206 8.14658C136.206 7.33625 135.656 6.75684 134.76 6.75684C133.804 6.75684 133.372 7.39293 133.168 8.3775L132.503 11.4446H131.143C130.101 11.4446 129.495 12.024 129.495 13.0653C129.495 13.6447 129.9 14.0771 130.767 14.0771H131.953L130.882 19.0525C130.767 19.6025 130.622 20.4989 130.622 21.4247C130.622 23.7675 131.837 25.4743 134.441 25.4743C135.946 25.4743 137.275 24.7227 138.289 23.8242C139.273 22.9572 139.995 21.8866 139.995 21.1917C139.995 20.5283 139.475 19.9783 138.809 19.9783Z"
              fill="#32253E"/>
        <path d="M72.2738 6.12363C72.2738 5.28391 71.6944 4.73389 70.798 4.73389C69.8428 4.73389 69.4104 5.36998 69.2068 6.35455L65.5918 23.1616C65.5057 23.508 65.4469 23.7977 65.4469 24.0874C65.4469 24.9272 66.0263 25.4751 66.8933 25.4751C67.8779 25.4751 68.3104 24.839 68.514 23.8544L72.129 7.04943C72.1878 6.70094 72.2738 6.41334 72.2738 6.12363Z"
              fill="#32253E"/>
        <path d="M123.911 11.1555C119.282 11.1555 116.129 15.7551 116.129 20.1237C116.129 20.2056 116.131 20.2875 116.133 20.3673C115.406 21.4694 114.478 22.6114 113.842 22.6114C113.381 22.6114 113.206 22.1769 113.206 21.5114C113.206 20.701 113.437 19.3407 113.698 18.1546L116.099 7.04503C116.158 6.69865 116.215 6.40894 116.215 6.11924C116.215 5.27951 115.665 4.72949 114.768 4.72949C113.784 4.72949 113.381 5.36558 113.177 6.35016L111.875 12.3668C111.18 11.6446 110.166 11.1513 108.634 11.1513C105.561 11.1513 102.468 13.5172 101.263 17.1469C99.9366 20.5772 98.7505 22.6072 97.8142 22.6072C97.4678 22.6072 97.2642 22.3175 97.2642 21.8263C97.2642 20.3799 98.0745 16.8509 98.4209 15.1442C98.5363 14.5081 98.5951 14.2478 98.5951 13.872C98.5951 12.5998 96.4832 11.0946 93.7352 11.0946C90.5569 11.0946 87.6787 13.1078 86.2365 16.0973C84.0931 19.8844 82.1261 22.6072 81.152 22.6072C80.7174 22.6072 80.5726 22.0572 80.4571 21.5366L79.7371 17.55L84.1624 13.935C84.5676 13.5886 85.0882 13.0952 85.0882 12.4592C85.0882 11.6782 84.5676 11.1576 83.7866 11.1576C83.2072 11.1576 82.716 11.504 82.2247 11.9091L75.572 17.4051L77.7994 7.04923C77.8582 6.70284 77.9443 6.41314 77.9443 6.12343C77.9443 5.28371 77.3648 4.73369 76.4684 4.73369C75.5133 4.73369 75.0808 5.36978 74.8772 6.35436L71.2622 23.1614C71.1761 23.5078 71.1173 23.7975 71.1173 24.0872C71.1173 24.927 71.6967 25.4749 72.5637 25.4749C73.5483 25.4749 73.9808 24.8388 74.1844 23.8542L74.6483 21.6856L77.3669 19.4876L78.0324 22.8423C78.2927 24.1733 78.9876 25.4749 80.7804 25.4749C82.5648 25.4749 83.9693 23.8458 85.3758 21.6436C85.802 23.9508 87.4436 25.4749 89.7214 25.4749C92.0075 25.4749 93.5694 24.1145 94.5812 22.2923V22.3511C94.5812 24.2321 95.5364 25.4749 97.2138 25.4749C98.7316 25.4749 99.9912 24.5596 101.116 22.6156C101.755 24.3098 103.182 25.4749 105.168 25.4749C107.511 25.4749 109.188 24.0578 110.259 22.0908V22.265C110.259 24.3475 111.3 25.477 113.007 25.477C114.514 25.477 115.795 24.6016 116.888 23.1782C117.72 24.6016 119.21 25.477 121.224 25.477C125.853 25.477 129.006 20.8774 129.006 16.4793C129.004 13.3829 127.123 11.1555 123.911 11.1555ZM95.0704 17.0294C94.2307 20.6444 92.4379 22.6996 90.412 22.6996C89.0517 22.6996 88.3001 21.6583 88.3001 20.0964C88.3001 17.0294 90.5275 13.7313 93.5064 13.7313C94.4028 13.7313 95.0977 13.9917 95.7044 14.3674L95.0704 17.0294ZM111.183 15.4969C110.257 19.7501 108.145 22.6996 105.831 22.6996C104.559 22.6996 103.806 21.715 103.806 20.0964C103.806 17.0021 105.947 13.7901 108.81 13.7901C109.91 13.7901 110.748 14.1659 111.357 14.6571L111.183 15.4969ZM121.568 22.6996C119.89 22.6996 119.196 21.4841 119.196 19.9516C119.196 17.1448 121.133 13.935 123.564 13.935C125.242 13.935 125.936 15.1505 125.936 16.683C125.936 19.517 123.999 22.6996 121.568 22.6996Z"
              fill="#32253E"/>
        <path d="M59.6613 11.1558C55.0324 11.1558 51.8792 15.7554 51.8792 20.124C51.8792 23.2478 53.7602 25.4752 56.97 25.4752C61.599 25.4752 64.7522 20.8756 64.7522 16.4775C64.7522 13.3831 62.8712 11.1558 59.6613 11.1558ZM57.3185 22.6999C55.6412 22.6999 54.9463 21.4844 54.9463 19.9519C54.9463 17.1451 56.884 13.9352 59.315 13.9352C60.9923 13.9352 61.6872 15.1508 61.6872 16.6832C61.6851 19.5173 59.7474 22.6999 57.3185 22.6999Z"
              fill="#32253E"/>
        <path d="M15.4896 6.20976C18.438 6.20976 20.8281 4.81966 20.8281 3.10488C20.8281 1.3901 18.438 0 15.4896 0C12.5412 0 10.1511 1.3901 10.1511 3.10488C10.1511 4.81966 12.5412 6.20976 15.4896 6.20976Z"
              fill="#32253E"/>
        <path d="M15.4896 29.6043C18.438 29.6043 20.8281 28.2142 20.8281 26.4994C20.8281 24.7846 18.438 23.3945 15.4896 23.3945C12.5412 23.3945 10.1511 24.7846 10.1511 26.4994C10.1511 28.2142 12.5412 29.6043 15.4896 29.6043Z"
              fill="#32253E"/>
        <path d="M8.05057 10.5072C9.52477 7.95392 9.5152 5.18853 8.0292 4.33057C6.54321 3.4726 4.14349 4.84694 2.6693 7.40026C1.1951 9.95357 1.20467 12.719 2.69067 13.5769C4.17667 14.4349 6.57638 13.0605 8.05057 10.5072Z"
              fill="#32253E"/>
        <path d="M28.308 22.2034C29.7822 19.6501 29.7735 16.8851 28.2885 16.0278C26.8035 15.1704 24.4046 16.5452 22.9304 19.0985C21.4562 21.6518 21.465 24.4167 22.95 25.2741C24.435 26.1315 26.8339 24.7567 28.308 22.2034Z"
              fill="#32253E"/>
        <path d="M8.02963 25.2734C9.51563 24.4155 9.5252 21.6501 8.051 19.0968C6.57681 16.5435 4.17709 15.1691 2.6911 16.0271C1.2051 16.885 1.19553 19.6504 2.66973 22.2037C4.14392 24.7571 6.54363 26.1314 8.02963 25.2734Z"
              fill="#32253E"/>
        <path d="M28.2898 13.5772C29.7748 12.7198 29.7835 9.95491 28.3093 7.4016C26.8351 4.84829 24.4362 3.47347 22.9512 4.33086C21.4662 5.18825 21.4575 7.95317 22.9317 10.5065C24.4059 13.0598 26.8048 14.4346 28.2898 13.5772Z"
              fill="#32253E"/>
    </g>
    <defs>
        <clipPath id="clip0_209_30806">
            <rect width="140" height="29.6213" fill="white"/>
        </clipPath>
    </defs>
</svg>
