<svg width="114" height="29" viewBox="0 0 114 29" fill="none" xmlns="http://www.w3.org/2000/svg">
    <path d="M87.4152 4.46413H89.946V24.5282H87.4152V4.46413ZM82.3764 4.46413H84.8844V24.5282H82.3764V4.46413ZM101.87 18.3038C101.87 21.815 99.6132 22.8866 97.2648 22.8866C95.4636 22.8866 94.392 21.9518 94.392 20.5382C94.392 18.4862 97.3104 17.8022 101.87 17.369V18.3038ZM104.15 18.9422L104.173 15.4766C104.219 11.2585 102.44 9.34334 98.268 9.34334C95.3952 9.34334 92.4996 11.1445 92.2944 14.3594H94.8936C95.0076 12.5125 96.1932 11.3953 98.2908 11.3953C100.183 11.3953 101.665 12.2845 101.665 15.0206V15.3854C95.5776 16.0466 91.5876 17.0954 91.5876 20.6066C91.5876 23.3426 93.9132 24.893 96.7176 24.893C99.3624 24.893 100.89 24.0494 101.802 22.499C101.825 23.183 101.893 23.867 102.007 24.5282H104.538C104.219 23.1146 104.128 21.4274 104.15 18.9194V18.9422ZM113.248 9.57134C111.287 9.63974 109.805 10.5517 109.052 12.2389V9.63974H106.59V24.5282H109.098V16.7078C109.098 13.4017 110.261 12.1477 112.586 12.1477C113.065 12.1705 113.521 12.1933 114 12.2845V9.59414C113.749 9.57134 113.498 9.57134 113.248 9.57134ZM63.3612 5.92334H60.8304V9.63974H58.482V11.6689H60.8304V20.789C60.8304 23.8898 61.4916 24.5282 64.3416 24.5282H66.1884V22.4078H64.9116C63.4752 22.4078 63.3612 22.0202 63.3612 20.4926V11.6689H66.1884V9.63974H63.3612V5.92334ZM51.2088 13.0369L48.8832 12.5125C46.9908 12.0793 45.6 11.2129 45.6 9.43454C45.6 7.17734 48.3132 6.49334 49.8636 6.49334C51.87 6.49334 54.1956 7.29134 54.8568 9.59414H57.5928C56.7948 5.74094 53.6028 4.12213 50.0004 4.12213C46.7628 4.12213 42.75 5.74094 42.75 9.59414C42.75 12.9229 45.486 14.4734 48.2448 15.0662L50.7528 15.5906C53.2836 16.1834 55.062 17.0042 55.062 19.1474C55.062 21.131 53.3748 22.5218 50.388 22.5218C47.2644 22.5218 45.372 21.0854 44.8476 18.3038H42.0888C42.6132 22.2938 45.6 24.893 50.3196 24.893C54.3096 24.893 57.9576 22.7954 57.9576 18.8738C57.9576 14.8382 54.264 13.6754 51.2088 13.0141V13.0369ZM69.2436 15.773C69.4716 12.7633 71.5236 11.5549 73.7352 11.5549C76.4256 11.5549 77.9304 13.6525 78.0216 15.773H69.2436ZM73.7352 9.38894C69.6768 9.38894 66.5076 12.3985 66.5076 17.1182C66.5076 21.5186 69.1068 24.893 73.8036 24.893C77.4288 24.893 79.8228 22.7726 80.4612 20.219H77.9076C77.2692 21.6782 76.038 22.6814 73.8264 22.6814C71.6148 22.6814 69.312 21.131 69.2436 17.939H80.6892C81.0084 13.1965 78.318 9.41174 73.758 9.41174L73.7352 9.38894ZM33.6756 7.38254L7.0908 20.9258L4.7652 22.0886L0 24.5282V27.4466L4.7424 25.0298L8.8008 22.955L28.4088 12.9685C29.2524 19.3526 24.7608 25.2122 18.3768 26.0558C17.8752 26.1242 17.3508 26.1698 16.8264 26.1698C14.8428 26.1698 12.882 25.6454 11.1264 24.665L10.9896 24.7562L8.4816 26.0102C14.8428 30.6386 23.7576 29.225 28.386 22.841C30.1416 20.4242 31.0992 17.5058 31.0992 14.4962C31.0992 14.1314 31.0992 13.7666 31.0536 13.4017C30.9852 12.3529 31.5324 11.3725 32.4672 10.8937L33.6756 10.2553V7.38254ZM28.9332 3.98533L24.8748 6.03734L5.2896 16.0238C4.446 9.63974 8.9604 3.78013 15.3444 2.93653C17.8296 2.61733 20.3604 3.09613 22.5492 4.32733L24.8748 3.14173L25.2168 2.95933C18.8556 -1.66908 9.9408 -0.232675 5.3124 6.12854C3.534 8.56814 2.5992 11.4865 2.5992 14.4962C2.5992 14.861 2.5992 15.2258 2.622 15.5906C2.7132 16.6166 2.166 17.6198 1.2312 18.0986L0 18.7142V21.6326L3.6024 19.7858L4.7652 19.193L5.928 18.623L26.562 8.08934L28.8876 6.90374L33.6756 4.46413V1.54573L28.9332 3.98533Z"
          fill="#32253E"/>
</svg>
