<?xml version="1.0" encoding="UTF-8"?>
<svg xmlns="http://www.w3.org/2000/svg" xmlns:xlink="http://www.w3.org/1999/xlink" version="1.1" viewBox="0 0 24 24">
  <defs>
    <style>
      .cls-1 {
        fill: none;
      }

      .cls-2 {
        fill: #0052b4;
      }

      .cls-3 {
        fill: #ffda44;
      }

      .cls-4 {
        clip-path: url(#clippath);
      }
    </style>
    <clipPath id="clippath">
      <rect class="cls-1" y="0" width="24" height="24"/>
    </clipPath>
  </defs>
  <!-- Generator: Adobe Illustrator 28.6.0, SVG Export Plug-In . SVG Version: 1.2.0 Build 709)  -->
  <g>
    <g id="Layer_1">
      <g class="cls-4">
        <path class="cls-2" d="M12,24c6.6,0,12-5.4,12-12S18.6,0,12,0,0,5.4,0,12s5.4,12,12,12Z"/>
      </g>
      <path class="cls-3" d="M9,7.5c2.5-2.1,6.1-1.7,8.2.7l.5-1.2c-2.5-2.6-6.6-2.8-9.4-.4-1.2,1-1.9,2.3-2.3,3.6h-1.5l-.5,1.2h1.8c0,.4,0,.8,0,1.2h-1.3l-.5,1.2h2c.2,1,.7,1.9,1.4,2.7,2.5,3,6.9,3.4,9.8.9v-1.6c-.2.3-.5.5-.7.7-2.5,2.1-6.1,1.7-8.2-.7-.5-.6-.9-1.3-1.1-2h7.7l.5-1.2H7c0-.4,0-.8,0-1.2h8.9l.5-1.2H7.2c.3-1,.9-2,1.8-2.7Z"/>
    </g>
  </g>
</svg>