<svg width="25" height="25" viewBox="0 0 25 25" fill="none" xmlns="http://www.w3.org/2000/svg">
<g clip-path="url(#clip0_1052_1273)">
<path fill-rule="evenodd" clip-rule="evenodd" d="M12.6475 0.807617C6.01866 0.807617 0.647461 6.20284 0.647461 12.8613C0.647461 19.5197 6.01866 24.915 12.6475 24.915C19.2763 24.915 24.6475 19.5197 24.6475 12.8613C24.6475 6.20284 19.2715 0.807617 12.6475 0.807617Z" fill="#2775CA"/>
<path d="M15.9929 14.6452C15.9929 12.8854 14.9417 12.2827 12.8441 12.032C11.3465 11.8295 11.0441 11.4293 11.0441 10.7254C11.0441 10.0215 11.5433 9.56824 12.5417 9.56824C13.4441 9.56824 13.9433 9.86717 14.1929 10.6241C14.2409 10.7736 14.3945 10.8749 14.5433 10.8749H15.3449C15.5465 10.8749 15.6953 10.7254 15.6953 10.5229V10.4747C15.4937 9.37056 14.5961 8.51716 13.4441 8.41591V7.21055C13.4441 7.00804 13.2953 6.85858 13.0457 6.81036H12.2969C12.0953 6.81036 11.9465 6.95983 11.8985 7.21055V8.3677C10.4009 8.5702 9.45047 9.57306 9.45047 10.8266C9.45047 12.4852 10.4489 13.1361 12.5513 13.3868C13.9529 13.6376 14.3993 13.9413 14.3993 14.7417C14.3993 15.542 13.6985 16.0965 12.7481 16.0965C11.4473 16.0965 10.9961 15.542 10.8473 14.7899C10.7993 14.5874 10.6457 14.491 10.4969 14.491H9.64727C9.44567 14.491 9.29688 14.6404 9.29688 14.8429V14.8911C9.49847 16.1447 10.2953 17.0512 11.9465 17.3019V18.5072C11.9465 18.7097 12.0953 18.8592 12.3449 18.9074H13.0937C13.2953 18.9074 13.4441 18.758 13.4921 18.5072V17.3019C14.9945 17.056 15.9929 16.0001 15.9929 14.6452Z" fill="white"/>
<path d="M10.0935 19.891C6.19592 18.4879 4.19432 14.1148 5.64392 10.248C6.39272 8.13622 8.04392 6.53067 10.0935 5.77852C10.2951 5.67727 10.3911 5.52781 10.3911 5.27709V4.57316C10.3911 4.37065 10.2903 4.22119 10.0935 4.17297C10.0455 4.17297 9.94472 4.17297 9.89192 4.22119C5.13992 5.72549 2.54312 10.8025 4.04072 15.5709C4.94312 18.3818 7.08872 20.5419 9.89192 21.4483C10.0935 21.5495 10.2903 21.4483 10.3431 21.2458C10.3911 21.1976 10.3911 21.1445 10.3911 21.0433V20.3394C10.3959 20.1947 10.2471 19.9922 10.0935 19.891ZM15.3927 4.22119C15.1911 4.11994 14.9943 4.22119 14.9415 4.42369C14.8935 4.4719 14.8935 4.52494 14.8935 4.62619V5.33013C14.8935 5.53263 15.0423 5.73031 15.1911 5.83156C19.0887 7.23943 21.0903 11.6077 19.6407 15.4745C18.8919 17.5863 17.2407 19.1918 15.1911 19.944C14.9895 20.0452 14.8935 20.1947 14.8935 20.4454V21.1494C14.8935 21.3519 14.9943 21.5013 15.1911 21.5495C15.2391 21.5495 15.3399 21.5495 15.3927 21.5013C20.1447 19.997 22.7415 14.92 21.2439 10.1516C20.3463 7.28764 18.1479 5.12762 15.3927 4.22119Z" fill="white"/>
<g transform="translate(-1,0)">  
  <!-- White circle background for the network logo -->
  <path d="M19.6758 13.3806C22.7112 13.3806 25.1758 15.8529 25.1758 18.9074C25.1758 21.9618 22.7112 24.4342 19.6758 24.4342C16.6404 24.4342 14.1758 21.9618 14.1758 18.9074C14.1758 15.8529 16.6404 13.3806 19.6758 13.3806Z" 
        fill="white" 
        stroke="#2775CA" 
        stroke-width="0.2"/>

  <!-- Chain logo-->
  <g transform="translate(16.54,13.80) scale(0.008)">
    <polygon fill="#343434" points="392.07,0 383.5,29.11 383.5,873.74 392.07,882.29 784.13,650.54"/>
    <polygon fill="#8C8C8C" points="392.07,0 0,650.54 392.07,882.29 392.07,472.33"/>
    <polygon fill="#3C3C3B" points="392.07,956.52 387.24,962.41 387.24,1263.28 392.07,1277.38 784.37,724.89"/>
    <polygon fill="#8C8C8C" points="392.07,1277.38 392.07,956.52 0,724.89"/>
    <polygon fill="#141414" points="392.07,882.29 784.13,650.54 392.07,472.33"/>
    <polygon fill="#393939" points="0,650.54 392.07,882.29 392.07,472.33"/>
  </g>
</g>
</g>
<defs>
<clipPath id="clip0_1052_1273">
<rect width="24" height="24.1073" fill="white" transform="translate(0.675781 0.807617)"/>
</clipPath>
</defs>
</svg>
