<svg width="25" height="25" viewBox="0 0 25 25" fill="none" xmlns="http://www.w3.org/2000/svg">
<g clip-path="url(#clip0_4_2)">
<path d="M12.5 25C19.4036 25 25 19.4036 25 12.5C25 5.59644 19.4036 0 12.5 0C5.59644 0 0 5.59644 0 12.5C0 19.4036 5.59644 25 12.5 25Z" fill="#009393"/>
<path fill-rule="evenodd" clip-rule="evenodd" d="M12.5153 13.3934C14.665 13.3934 16.4616 13.03 16.9006 12.5444C16.5278 12.1325 15.1794 11.8081 13.4669 11.7194V12.7453C13.1603 12.7612 12.8416 12.7691 12.515 12.7691C12.1884 12.7691 11.8697 12.7612 11.5625 12.7453V11.7194C9.85062 11.8081 8.50156 12.1325 8.12875 12.5444C8.56844 13.03 10.3653 13.3934 12.515 13.3934H12.5153ZM16.3347 8.56437V9.97718H13.4669V10.9569C15.4812 11.0616 16.9928 11.4922 17.0041 12.0075V13.0819C16.9928 13.5972 15.4812 14.0269 13.4669 14.1319V16.5362H11.5628V14.1319C9.54844 14.0272 8.0375 13.5972 8.02625 13.0819V12.0075C8.0375 11.4922 9.54844 11.0616 11.5628 10.9569V9.97718H8.695V8.56437H16.335H16.3347ZM7.56719 6.31593H17.6347C17.8753 6.31593 18.0969 6.4425 18.2169 6.64812L21.1497 11.6844C21.3016 11.9456 21.2566 12.2753 21.0397 12.4869L12.9666 20.3675C12.7047 20.6228 12.2841 20.6228 12.0228 20.3675L3.95969 12.4975C3.73812 12.2806 3.69625 11.9416 3.85969 11.6791L6.995 6.6325C7.11719 6.43625 7.33406 6.31625 7.5675 6.31625L7.56719 6.31593Z" fill="white"/>
<path d="M19.5 14C22.5354 14 25 16.4723 25 19.5268C25 22.5812 22.5354 25.0536 19.5 25.0536C16.4646 25.0536 14 22.5812 14 19.5268C14 16.4723 16.4646 14 19.5 14Z" fill="#6C00F6" stroke="white"/>
<path d="M20.7933 16.8342L19.1189 17.8001V20.8149L18.1949 21.3529L17.2653 20.8145V19.7381L18.1949 19.205L18.7926 19.5533V18.6824L18.1896 18.3385L16.5156 19.3155V21.2478L18.1953 22.2195L19.8693 21.2478V18.2334L20.7989 17.695L21.7279 18.2334V19.3048L20.7989 19.8479L20.1959 19.4967V20.3632L20.7933 20.7091L22.4839 19.7431V17.7998L20.7933 16.8342Z" fill="white"/>
</g>
<defs>
<clipPath id="clip0_4_2">
<rect width="25" height="25" fill="white"/>
</clipPath>
</defs>
</svg>
