<svg width="25" height="21" viewBox="0 0 25 21" fill="none" xmlns="http://www.w3.org/2000/svg">
<g clip-path="url(#clip0_1_6)">
<path fill-rule="evenodd" clip-rule="evenodd" d="M5.51408 0.194214H19.831C20.1726 0.194214 20.4882 0.371233 20.6585 0.65842L24.8297 7.68962C25.0459 8.05426 24.9818 8.51448 24.6732 8.81016L13.1921 19.8131C12.8202 20.1695 12.2219 20.1695 11.85 19.8131L0.38446 8.82502C0.0687558 8.52248 0.0096385 8.04881 0.241791 7.68192L4.70036 0.635861C4.87401 0.361449 5.18214 0.194214 5.51408 0.194214ZM17.9824 3.3334V5.30624H13.9041V6.67408C16.7684 6.82025 18.9174 7.42061 18.9334 8.1402L18.9333 9.64032C18.9173 10.3599 16.7684 10.9602 13.9041 11.1064V14.4632H11.1961V11.1064C8.33174 10.9602 6.18273 10.3599 6.16678 9.64032L6.1669 8.1402C6.18282 7.42061 8.33174 6.82025 11.1961 6.67408V5.30624H7.11775V3.3334H17.9824ZM12.5501 10.0758C15.6068 10.0758 18.1618 9.56818 18.787 8.89025C18.2568 8.31536 16.3389 7.86293 13.9041 7.73867V9.17079C13.4677 9.19306 13.0147 9.2048 12.5501 9.2048C12.0855 9.2048 11.6325 9.19306 11.1961 9.17079V7.73867C8.76124 7.86293 6.84338 8.31536 6.31316 8.89025C6.93843 9.56818 9.49334 10.0758 12.5501 10.0758Z" fill="#009393"/>
<path d="M19.5 9C22.5354 9 25 11.4723 25 14.5268C25 17.5812 22.5354 20.0536 19.5 20.0536C16.4646 20.0536 14 17.5812 14 14.5268C14 11.4723 16.4646 9 19.5 9Z" fill="#6C00F6" stroke="white"/>
<path d="M20.7933 11.8342L19.1189 12.8001V15.8149L18.1949 16.3529L17.2653 15.8145V14.7381L18.1949 14.205L18.7926 14.5533V13.6824L18.1896 13.3385L16.5156 14.3155V16.2478L18.1953 17.2195L19.8693 16.2478V13.2334L20.7989 12.695L21.7279 13.2334V14.3048L20.7989 14.8479L20.1959 14.4967V15.3632L20.7933 15.7091L22.4839 14.7431V12.7998L20.7933 11.8342Z" fill="white"/>
</g>
<defs>
<clipPath id="clip0_1_6">
<rect width="25" height="20.2703" fill="white"/>
</clipPath>
</defs>
</svg>
