<svg width="25" height="25" viewBox="0 0 25 25" fill="none" xmlns="http://www.w3.org/2000/svg">
<g clip-path="url(#clip0_4_15)">
<path d="M12.5 25C19.4036 25 25 19.4036 25 12.5C25 5.59644 19.4036 0 12.5 0C5.59644 0 0 5.59644 0 12.5C0 19.4036 5.59644 25 12.5 25Z" fill="#009393"/>
<path fill-rule="evenodd" clip-rule="evenodd" d="M12.5153 13.3934C14.665 13.3934 16.4616 13.03 16.9006 12.5444C16.5278 12.1325 15.1794 11.8081 13.4669 11.7194V12.7453C13.1603 12.7613 12.8416 12.7691 12.515 12.7691C12.1884 12.7691 11.8697 12.7613 11.5625 12.7453V11.7194C9.85062 11.8081 8.50156 12.1325 8.12875 12.5444C8.56844 13.03 10.3653 13.3934 12.515 13.3934H12.5153ZM16.3347 8.56438V9.97719H13.4669V10.9569C15.4812 11.0616 16.9928 11.4922 17.0041 12.0075V13.0819C16.9928 13.5972 15.4812 14.0269 13.4669 14.1319V16.5363H11.5628V14.1319C9.54844 14.0272 8.0375 13.5972 8.02625 13.0819V12.0075C8.0375 11.4922 9.54844 11.0616 11.5628 10.9569V9.97719H8.695V8.56438H16.335H16.3347ZM7.56719 6.31594H17.6347C17.8753 6.31594 18.0969 6.4425 18.2169 6.64813L21.1497 11.6844C21.3016 11.9456 21.2566 12.2753 21.0397 12.4869L12.9666 20.3675C12.7047 20.6228 12.2841 20.6228 12.0228 20.3675L3.95969 12.4975C3.73812 12.2806 3.69625 11.9416 3.85969 11.6791L6.995 6.6325C7.11719 6.43625 7.33406 6.31625 7.5675 6.31625L7.56719 6.31594Z" fill="white"/>
</g>
<defs>
<clipPath id="clip0_4_15">
<rect width="25" height="25" fill="white"/>
</clipPath>
</defs>
</svg>
