<svg width="190" height="43" viewBox="0 0 190 43" fill="none" xmlns="http://www.w3.org/2000/svg">
    <g id="Layer_1" clip-path="url(#clip0_14_149)">
        <path id="Vector"
              d="M60.1533 9.58145C57.6373 8.25157 54.7423 7.58704 51.4681 7.58704C48.194 7.58704 45.299 8.25157 42.783 9.58145C40.2671 10.9113 38.3104 12.7318 36.913 15.0446C35.5148 17.3565 34.8161 20.0359 34.8161 23.0805C34.8161 26.125 35.514 28.7462 36.913 31.0581C38.3104 33.37 40.2671 35.1913 42.783 36.5212C45.299 37.8511 48.1932 38.5156 51.4681 38.5156C54.7431 38.5156 57.6373 37.8511 60.1533 36.5212C62.6692 35.1913 64.625 33.3618 66.0232 31.0294C67.4206 28.6978 68.1193 26.029 68.1193 23.0222C68.1193 20.0154 67.4198 17.3565 66.0232 15.0446C64.625 12.7318 62.6692 10.9105 60.1533 9.58145ZM58.8953 27.7921C58.1771 29.1605 57.1783 30.2303 55.9008 31.0007C54.6224 31.7719 53.1452 32.1566 51.4681 32.1566C49.7911 32.1566 48.313 31.7719 47.0355 31.0007C45.7571 30.2303 44.7601 29.1605 44.041 27.7921C43.3228 26.4244 42.9632 24.8534 42.9632 23.0805C42.9632 21.3076 43.3228 19.679 44.041 18.3106C44.7601 16.943 45.7571 15.8732 47.0355 15.102C48.313 14.3316 49.7911 13.946 51.4681 13.946C53.1452 13.946 54.6224 14.3316 55.9008 15.102C57.1783 15.8732 58.1771 16.943 58.8953 18.3106C59.6144 19.679 59.9739 21.2501 59.9739 23.0222C59.9739 24.7943 59.6144 26.4244 58.8953 27.7912V27.7921Z"
              fill="#0F4DC0"/>
        <path id="Vector_2"
              d="M86.7849 8.8874C85.2473 9.48547 83.9103 10.497 82.7722 11.9221C82.2639 12.5595 81.8372 13.3184 81.4844 14.1864V8.51083H73.6382V37.5902H81.5448V25.161C81.5448 22.7712 81.9341 20.8252 82.7127 19.3214C83.4912 17.8184 84.5588 16.7108 85.9171 15.9971C87.2737 15.2841 88.8912 14.9272 90.7688 14.9272H92.3855V7.98987H91.3068C89.8296 7.98987 88.3217 8.2885 86.7849 8.88575V8.8874Z"
              fill="#0F4DC0"/>
        <path id="Vector_3"
              d="M110.605 37.591V14.6401H118.092V8.51162H110.605V0.822754H102.699V8.51162H97.4284V14.6401H102.699V37.591H110.605Z"
              fill="#0F4DC0"/>
        <path id="Vector_4"
              d="M138.249 32.5619C136.292 32.5619 134.565 32.1862 133.068 31.4347C131.57 30.6832 130.392 29.5847 129.534 28.1391C129.047 27.3203 128.703 26.4031 128.493 25.3932H151.964V22.7917C151.964 19.7857 151.305 17.1456 149.987 14.8714C148.67 12.5981 146.843 10.8153 144.506 9.52402C142.171 8.23352 139.505 7.58704 136.511 7.58704C133.516 7.58704 130.67 8.24254 128.215 9.55274C125.759 10.8637 123.821 12.6842 122.405 15.0158C120.987 17.3483 120.278 20.0367 120.278 23.0805C120.278 26.1242 121.017 28.8036 122.494 31.1164C123.972 33.4291 126.029 35.2414 128.664 36.5507C131.299 37.8609 134.353 38.5164 137.827 38.5164C140.703 38.5164 143.327 38.0439 145.704 37.1004C148.079 36.1561 150.026 34.8558 151.544 33.1977L147.351 28.5157C144.875 31.2132 141.841 32.5627 138.247 32.5627L138.249 32.5619ZM129.295 17.9061C129.993 16.5 130.962 15.4203 132.2 14.6688C133.438 13.9173 134.875 13.5416 136.513 13.5416C138.151 13.5416 139.418 13.9083 140.556 14.6401C141.694 15.3727 142.592 16.3941 143.251 17.7035C143.677 18.551 143.963 19.4961 144.114 20.5364H128.45C128.622 19.5781 128.901 18.6987 129.295 17.9053V17.9061Z"
              fill="#0F4DC0"/>
        <path id="Vector_5"
              d="M190 42.8228L174.45 23.2601L189.176 4.78534L177.391 9.26395L170.348 18.0998L163.325 9.26395L151.618 4.78534L166.252 23.2388L150.642 42.8228L162.427 38.3442L170.349 28.4049L178.23 38.3442L190 42.8228Z"
              fill="#0F4DC0"/>
        <path id="Vector_6"
              d="M16.7464 30.0088L8.20573 8.5116H0L12.8177 37.591H20.4846L33.3618 8.5116H25.3958L16.7464 30.0088Z"
              fill="#0F4DC0"/>
    </g>
    <defs>
        <clipPath id="clip0_14_149">
            <rect width="190" height="42" fill="white" transform="translate(0 0.822754)"/>
        </clipPath>
    </defs>
</svg>
