<svg xmlns="http://www.w3.org/2000/svg" width="731" height="490" viewBox="0 0 292 196" font-family="Arial, sans-serif">
  <defs>
    <marker id="ah" viewBox="0 0 8 6" refX="8" refY="3"
      markerWidth="4" markerHeight="3" orient="auto">
      <path d="M0.5,0.5 L7,3 L0.5,5.5" fill="none" stroke="#94A3B8"
        stroke-width="1.2" stroke-linejoin="round" stroke-linecap="round"/>
    </marker>
    <filter id="shadow" x="-6%" y="-8%" width="112%" height="128%">
      <feDropShadow dx="0" dy="0.5" stdDeviation="0.8"
        flood-color="#000" flood-opacity="0.05"/>
    </filter>
  </defs>
  <rect width="292" height="196" fill="#F8F9FB" rx="3"/>
  <text x="146" y="11" text-anchor="middle" font-size="6" font-weight="700" fill="#1E293B">TokenRelayer Architecture</text>
  <rect x="71" y="16" width="150" height="10" rx="3" fill="#fff" stroke="#E2E5EA" stroke-width="0.4"/>
  <rect x="76" y="18.5" width="5" height="5" rx="2.5" fill="#fff" stroke="#E2E5EA" stroke-width="0.4"/>
  <text x="84" y="22.5" font-size="3.5" fill="#1E293B">Actor</text>
  <rect x="116" y="18.5" width="5" height="5" rx="1.5" fill="#fff" stroke="#E2E5EA" stroke-width="0.4"/>
  <rect x="117" y="19.5" width="0.8" height="3" rx="0.4" fill="#3B82F6"/>
  <text x="124" y="22.5" font-size="3.5" fill="#1E293B">Protocol</text>
  <rect x="164" y="18.5" width="5" height="5" rx="1.5" fill="#fff" stroke="#E2E5EA" stroke-width="0.4"/>
  <rect x="165" y="19.5" width="0.8" height="3" rx="0.4" fill="#F59E0B"/>
  <text x="172" y="22.5" font-size="3.5" fill="#1E293B">External</text>
  <rect x="32.7" y="84.0" width="230.8" height="40.0" rx="5" fill="#EDEEF2"/>
  <text x="260.5" y="89.0" text-anchor="end" font-size="3.5" fill="#94A3B8" font-weight="500">Core Protocol</text>
  <rect x="32.7" y="146.0" width="230.8" height="40.0" rx="5" fill="#EDEEF2"/>
  <text x="260.5" y="151.0" text-anchor="end" font-size="3.5" fill="#94A3B8" font-weight="500">External Dependencies</text>
  <path d="M59.8,46.0 C59.8,70.0 102.3,70.0 102.3,94.0" fill="none" stroke="#94A3B8" stroke-width="0.5" marker-end="url(#ah)"/>
  <path d="M148.0,46.0 C148.0,70.0 102.3,70.0 102.3,94.0" fill="none" stroke="#94A3B8" stroke-width="0.5" marker-end="url(#ah)"/>
  <path d="M234.4,46.0 C234.4,70.0 102.3,70.0 102.3,94.0" fill="none" stroke="#94A3B8" stroke-width="0.5" marker-end="url(#ah)"/>
  <path d="M102.3,114.0 C102.3,135.0 79.1,135.0 79.1,156.0" fill="none" stroke="#94A3B8" stroke-width="0.5" marker-end="url(#ah)"/>
  <path d="M102.3,114.0 C102.3,135.0 195.5,135.0 195.5,156.0" fill="none" stroke="#94A3B8" stroke-width="0.5" marker-end="url(#ah)"/>
  <path d="M102.3,114.0 C102.3,135.0 79.1,135.0 79.1,156.0" fill="none" stroke="#94A3B8" stroke-width="0.5" marker-end="url(#ah)"/>
  <g filter="url(#shadow)">
    <rect x="30.0" y="32.0" width="59.6" height="14" rx="7" fill="#fff" stroke="#E2E5EA" stroke-width="0.5"/>
    <text x="59.8" y="40.8" text-anchor="middle" font-size="4.8" font-weight="600" fill="#1E293B">User</text>
  </g>
  <g filter="url(#shadow)">
    <rect x="111.6" y="32.0" width="72.8" height="14" rx="7" fill="#fff" stroke="#E2E5EA" stroke-width="0.5"/>
    <text x="148.0" y="40.8" text-anchor="middle" font-size="4.8" font-weight="600" fill="#1E293B">Relayer Bot</text>
  </g>
  <g filter="url(#shadow)">
    <rect x="206.4" y="32.0" width="56.0" height="14" rx="7" fill="#fff" stroke="#E2E5EA" stroke-width="0.5"/>
    <text x="234.4" y="40.8" text-anchor="middle" font-size="4.8" font-weight="600" fill="#1E293B">Owner</text>
  </g>
  <g filter="url(#shadow)">
    <rect x="63.5" y="94.0" width="77.6" height="20" rx="3" fill="#fff" stroke="#E2E5EA" stroke-width="0.5"/>
    <rect x="66.5" y="97.0" width="1.4" height="14" rx="0.6" fill="#3B82F6"/>
    <text x="102.3" y="103.5" text-anchor="middle" font-size="4.8" font-weight="600" fill="#1E293B">TokenRelayer</text>
    <text x="102.3" y="108.5" text-anchor="middle" font-size="3.5" fill="#64748B">Relay + Forward</text>
  </g>
  <g filter="url(#shadow)">
    <rect x="42.7" y="156.0" width="72.8" height="20" rx="3" fill="#fff" stroke="#E2E5EA" stroke-width="0.5"/>
    <rect x="45.7" y="159.0" width="1.4" height="14" rx="0.6" fill="#F59E0B"/>
    <text x="79.1" y="165.5" text-anchor="middle" font-size="4.8" font-weight="600" fill="#1E293B">ERC20 Token</text>
    <text x="79.1" y="170.5" text-anchor="middle" font-size="3.5" fill="#64748B">Permit Token</text>
  </g>
  <g filter="url(#shadow)">
    <rect x="137.5" y="156.0" width="116.0" height="20" rx="3" fill="#fff" stroke="#E2E5EA" stroke-width="0.5"/>
    <rect x="140.5" y="159.0" width="1.4" height="14" rx="0.6" fill="#F59E0B"/>
    <text x="195.5" y="165.5" text-anchor="middle" font-size="4.8" font-weight="600" fill="#1E293B">Destination Contract</text>
    <text x="195.5" y="170.5" text-anchor="middle" font-size="3.5" fill="#64748B">Immutable Target</text>
  </g>
  <rect x="52.6" y="65.0" width="56.8" height="6.0" rx="1" fill="#F8F9FB"/>
  <text x="81.0" y="70.0" font-size="4" fill="#1E293B" font-weight="500" text-anchor="middle">signs permit + payload</text>
  <rect x="102.7" y="57.0" width="44.8" height="6.0" rx="1" fill="#F8F9FB"/>
  <text x="125.1" y="62.0" font-size="4" fill="#1E293B" font-weight="500" text-anchor="middle">submits execute()</text>
  <rect x="143.5" y="65.0" width="49.6" height="6.0" rx="1" fill="#F8F9FB"/>
  <text x="168.3" y="70.0" font-size="4" fill="#1E293B" font-weight="500" text-anchor="middle">withdraw tokens/ETH</text>
  <rect x="63.5" y="130.0" width="54.4" height="6.0" rx="1" fill="#F8F9FB"/>
  <text x="90.7" y="135.0" font-size="4" fill="#1E293B" font-weight="500" text-anchor="middle">permit + transferFrom</text>
  <rect x="125.3" y="130.0" width="47.2" height="6.0" rx="1" fill="#F8F9FB"/>
  <text x="148.9" y="135.0" font-size="4" fill="#1E293B" font-weight="500" text-anchor="middle">forward call + ETH</text>
  <rect x="69.5" y="122.0" width="42.4" height="6.0" rx="1" fill="#F8F9FB"/>
  <text x="90.7" y="127.0" font-size="4" fill="#1E293B" font-weight="500" text-anchor="middle">approve + revoke</text>
</svg>