<?xml version="1.0" encoding="utf-8"?>
<!-- Generator: Adobe Illustrator 27.9.0, SVG Export Plug-In . SVG Version: 6.00 Build 0)  -->
<svg version="1.1" xmlns="http://www.w3.org/2000/svg" xmlns:xlink="http://www.w3.org/1999/xlink" x="0px" y="0px"
     viewBox="0 0 562.4 182.9" style="enable-background:new 0 0 562.4 182.9;" xml:space="preserve">
<style type="text/css">
	.st0{fill:#32253E;}
</style>
    <g id="Layer_1">
	<g>
		<g>
			<path class="st0" d="M89.2,49.9C70.3,49.5,54,65.1,53.6,84c-0.3,12.9,6.3,24.2,16.4,30.6c0.5,0.3,1.1,0.1,1.4-0.4l7.9-15.7
				c1.2-2.3,1-5.1-0.4-7.2c-1.2-1.9-1.9-4.1-1.9-6.5c0.1-6.1,4.9-11.2,11-11.5c7-0.4,12.8,5.5,12.3,12.6c-0.4,5.7-5,10.3-10.7,10.7
				c0,0-0.1,0-0.1,0c-2.6,0.2-4.9,1.7-6.1,4l-7.9,15.7c-0.3,0.5,0,1.1,0.5,1.3c4,1.5,8.3,2.3,12.8,2.3c19.2-0.1,34.8-15.8,34.8-35
				C123.7,65.8,108.3,50.2,89.2,49.9z"/>
            <circle class="st0" cx="65.3" cy="131.6" r="11.7"/>
		</g>
        <g>
			<path class="st0" d="M185.4,91.7c0.3,2,1.3,3.6,2.9,5.1c1.6,1.4,3.6,2.2,5.8,2.2c1.6,0,3.1-0.4,4.5-1.1c1.4-0.7,2.4-1.5,3-2.2
				l0.9-1.1l3.8,3.8c-0.1,0.1-0.3,0.4-0.5,0.6c-0.2,0.3-0.7,0.7-1.5,1.4c-0.8,0.7-1.6,1.2-2.4,1.7c-0.9,0.5-2,0.9-3.4,1.4
				c-1.4,0.4-2.8,0.6-4.3,0.6c-3.9,0-7.3-1.5-10.2-4.3c-2.8-2.9-4.3-6.3-4.3-10.4c0-3.9,1.4-7.2,4.2-10c2.8-2.8,6.1-4.2,10-4.2
				c3.9,0,7.1,1.3,9.7,3.9c2.6,2.6,3.9,5.8,3.9,9.7l-0.3,2.9L185.4,91.7L185.4,91.7z M188.5,82c-1.4,1.2-2.4,2.8-2.9,4.8h16.1
				c-0.3-2-1.2-3.5-2.6-4.8s-3.2-1.9-5.3-1.9C191.7,80.2,189.9,80.8,188.5,82z"/>
            <path class="st0" d="M218.6,78.7l0.4-0.4c0.2-0.2,0.5-0.4,1.1-0.8c0.5-0.4,1.1-0.7,1.8-1.1c0.6-0.3,1.4-0.6,2.3-0.8
				c0.9-0.3,1.9-0.4,2.9-0.4c3.4,0,6.1,1.1,8.1,3.3c2.1,2.2,3.1,5.1,3.1,8.9v16.2h-5.8V87.5c0-2-0.6-3.6-1.9-5c-1.3-1.3-2.8-2-4.7-2
				c-2.2,0-3.9,0.7-5.3,2.1c-1.3,1.4-2,3.4-2,6v15h-5.8V75.9h5.8L218.6,78.7L218.6,78.7z"/>
            <path class="st0" d="M260.1,75.6c1,0.3,1.8,0.5,2.5,0.9c0.7,0.4,1.3,0.7,1.9,1.1c0.5,0.4,0.9,0.7,1.2,0.9l0.4,0.4v-13h5.8v37.5
				H266v-3.2c-0.3,0.3-0.6,0.6-1.1,1.1c-0.5,0.4-1.5,1-3.1,1.7c-1.6,0.7-3.1,1-4.8,1c-3.7,0-6.9-1.4-9.5-4.2c-2.7-2.8-4-6.2-4-10.2
				c0-4,1.3-7.4,4-10.2c2.7-2.8,5.9-4.2,9.5-4.2C258.1,75.2,259.1,75.4,260.1,75.6z M263.5,96.2c1.7-1.8,2.6-4,2.6-6.5
				s-0.8-4.7-2.6-6.5c-1.7-1.8-3.6-2.7-5.8-2.7c-2.2,0-4.1,0.9-5.8,2.7c-1.7,1.8-2.6,4-2.6,6.5s0.8,4.7,2.6,6.5
				c1.7,1.8,3.6,2.7,5.8,2.7C259.8,98.9,261.8,98,263.5,96.2z"/>
            <path class="st0" d="M317.7,103.6H312V66h5.8V103.6z"/>
            <path class="st0" d="M393.6,87.4c0-2.3-0.5-4-1.6-5.2c-1.1-1.2-2.4-1.8-4.2-1.8c-1.8,0-3.3,0.7-4.5,2.2s-1.8,3.4-1.8,5.9v15h-5.8
				V87.5c0-2.3-0.5-4-1.6-5.2c-1.1-1.2-2.4-1.8-4.2-1.8c-1.8,0-3.3,0.7-4.5,2.2s-1.8,3.4-1.8,5.9v15h-5.8V75.9h5.8v2.9
				c0.2-0.3,0.5-0.6,0.9-1c0.4-0.4,1.2-0.9,2.6-1.5c1.3-0.7,2.6-0.9,4-0.9c1.1,0,2.2,0.1,3.2,0.5c1,0.3,1.8,0.7,2.4,1.2
				c0.6,0.5,1.1,0.9,1.6,1.4c0.4,0.5,0.8,0.8,0.9,1.2l0.3,0.4c0.1-0.1,0.2-0.3,0.4-0.5c0.2-0.2,0.5-0.6,1.2-1.1
				c0.6-0.5,1.2-1,1.9-1.4c0.7-0.4,1.6-0.8,2.7-1.1c1.1-0.3,2.2-0.5,3.4-0.5c3.2,0,5.8,1,7.6,3.1s2.8,5.1,2.8,9v16.2h-5.8
				L393.6,87.4L393.6,87.4z"/>
            <path class="st0" d="M291.9,104.3c-7,0-12.8-5.7-12.8-12.8V75.9h5.8v15.7c0,3.8,3.1,7.3,6.9,7.3s6.9-3.5,6.9-7.3V75.9h5.8v15.7
				C304.6,98.6,298.9,104.3,291.9,104.3z"/>
            <path class="st0" d="M337.8,104.3c-7,0-12.8-5.7-12.8-12.8V75.9h5.8v15.7c0,3.8,3.1,7.3,6.9,7.3s6.9-3.5,6.9-7.3V75.9h5.8v15.7
				C350.6,98.6,344.9,104.3,337.8,104.3z"/>
            <path class="st0" d="M153.3,92v11.5h-6.3V66h16.2c3.9,0,7.1,1.3,9.7,3.8c2.6,2.5,3.9,5.5,3.9,9c0,3.5-1.3,7-3.9,9.4
				c-2.6,2.5-5.8,3.8-9.7,3.8h-6.5V89c0-1.5,1.2-2.7,2.7-2.7h3.8c2,0,3.7-0.7,5.1-2.1c1.4-1.4,2.1-3.1,2.1-5.1c0-2-0.7-3.8-2.1-5.1
				c-1.4-1.4-3.1-2.1-5.1-2.1h-9.8v14.4V92z"/>
		</g>
	</g>
        <g>
	</g>
</g>
    <g id="Layer_2">
	<g>
		<path class="st0" d="M424.8,66h-14.1v37.6h4V70h10.5c5,0,9.1,4.2,8.7,9.3c-0.3,4.6-4.4,8.1-9,8.1h-3c-1.5,0-2.7,1.2-2.7,2.7v1.3h6
			c7.2,0,13.1-6.1,12.7-13.4C437.6,71.2,431.7,66,424.8,66z"/>
        <path class="st0" d="M463.7,80.5c-2.4-3.1-5.9-5-9.9-5c-7.1,0-12.9,6.4-12.9,14.2c0,7.9,5.8,14.2,12.9,14.2c4,0,7.5-2,9.9-5v4.6h4
			V75.9h-4V80.5z M454.4,100c-5.1,0-9.3-4.6-9.3-10.2s4.2-10.2,9.3-10.2c5.1,0,9.3,4.6,9.3,10.2S459.6,100,454.4,100z"/>
        <polygon class="st0"
                 points="499.6,75.9 484.8,114.9 480.5,114.9 484.9,102.8 473.2,75.9 478,75.9 487,97.2 494.8,75.9 		"/>
	</g>
</g>
</svg>
