<?xml version="1.0" encoding="UTF-8"?>
<svg version="1.1" xmlns="http://www.w3.org/2000/svg" width="512" height="512">
    <path d="M0 0 C10.87216824 9.87242863 18.28658391 25.9937509 23.88671875 39.29296875 C23.88671875 39.95296875 23.88671875 40.61296875 23.88671875 41.29296875 C24.9540625 41.36773437 26.02140625 41.4425 27.12109375 41.51953125 C56.81468513 43.98218993 81.77242477 56.4760592 102.88671875 77.29296875 C103.67820312 78.0715625 104.4696875 78.85015625 105.28515625 79.65234375 C124.41351612 99.6532253 135.24156193 128.08391797 135.15414429 155.58161926 C135.1586754 156.65117959 135.16320651 157.72073992 135.16787493 158.82271117 C135.18043493 162.37119181 135.17890403 165.91951731 135.17724609 169.46801758 C135.18323651 172.02669978 135.19004324 174.58538018 135.19760132 177.14405823 C135.21338851 183.35182367 135.21970731 189.55953323 135.22082607 195.76731686 C135.22178004 200.8179179 135.22590759 205.86850652 135.23222733 210.91910362 C135.24981707 225.27065965 135.25906951 239.62218589 135.25756638 253.97375277 C135.25744651 255.1315535 135.25744651 255.1315535 135.25732422 256.31274414 C135.25724246 257.08556454 135.2571607 257.85838493 135.25707646 258.65462413 C135.25626374 271.17590773 135.27540365 283.697071 135.30360095 296.21831981 C135.33239346 309.10657212 135.34613782 321.99476584 135.3444134 334.8830511 C135.34375179 342.10624228 135.3491432 349.32930722 135.3707695 356.55246925 C135.39098684 363.34797179 135.39024295 370.14316461 135.37573624 376.93869591 C135.37365322 379.42381048 135.37831853 381.90894191 135.39045715 384.39402771 C135.50889265 410.33319181 130.52538182 430.13864464 111.99609375 449.2421875 C94.10482386 465.96826964 72.76034725 469.62523121 49.17480469 469.54693604 C47.63827238 469.5492461 46.10174118 469.55242625 44.56521225 469.55639052 C40.38245563 469.56467228 36.1997913 469.56064368 32.01703453 469.55441809 C27.49072039 469.54986725 22.96442142 469.55689033 18.43811035 469.56237793 C9.58664852 469.57124563 0.73522072 469.56936164 -8.11624241 469.56355265 C-15.31354106 469.55902581 -22.51083021 469.55842767 -29.70812988 469.56060028 C-30.73462528 469.56090675 -31.76112069 469.56121321 -32.81872201 469.56152897 C-34.9043843 469.56216845 -36.99004658 469.56281688 -39.07570887 469.56347415 C-58.6078321 469.56916976 -78.13993653 469.56263163 -97.67205667 469.55187342 C-114.41158886 469.54293861 -131.15109331 469.54449087 -147.890625 469.55371094 C-167.35547721 469.56442717 -186.82031295 469.56862051 -206.28516769 469.56248641 C-208.36292267 469.56184935 -210.44067764 469.56122061 -212.51843262 469.56060028 C-213.54058184 469.56029173 -214.56273106 469.55998318 -215.6158545 469.55966528 C-222.79993731 469.5579424 -229.98400963 469.56084465 -237.16809082 469.56555939 C-245.9296102 469.57118326 -254.69109376 469.56962016 -263.45260906 469.5589979 C-267.91814837 469.55376144 -272.38362808 469.55164972 -276.84916687 469.5582962 C-280.94498508 469.56429995 -285.04068903 469.56090836 -289.13649702 469.5503411 C-290.6100718 469.54812569 -292.08365643 469.54920098 -293.55722475 469.55409268 C-318.31896663 469.62992142 -339.13833796 464.0386988 -357.18359375 446.44140625 C-370.65861648 432.5032631 -377.4411609 414.57004935 -377.38070679 395.3473053 C-377.3852379 394.27834139 -377.38976901 393.20937748 -377.39443743 392.10802072 C-377.40704839 388.54340481 -377.40546315 384.97894233 -377.40380859 381.41430664 C-377.40979607 378.8510824 -377.41660212 376.28785997 -377.42416382 373.72463989 C-377.43998097 367.4933984 -377.4462715 361.26221263 -377.44738857 355.03095294 C-377.44834151 349.95932957 -377.45246406 344.88771861 -377.45878983 339.81609917 C-377.47639397 325.40667817 -377.48563051 310.99728688 -377.48412888 296.58785505 C-377.48404897 295.81209286 -377.48396905 295.03633068 -377.48388672 294.23706055 C-377.48380496 293.46033996 -377.4837232 292.68361938 -377.48363896 291.88336181 C-377.48282728 279.3154153 -377.50193719 266.74758898 -377.53016345 254.1796772 C-377.55898135 241.2451749 -377.57269873 228.31073102 -377.5709759 215.37619585 C-377.57031485 208.12659562 -377.57568064 200.87712124 -377.597332 193.62755013 C-377.61759085 186.80089721 -377.61677962 179.97451268 -377.60229874 173.14784622 C-377.60021998 170.65431898 -377.60485525 168.16077482 -377.61701965 165.66727638 C-377.77654293 130.67675272 -367.9406649 100.84819101 -343.11328125 75.29296875 C-329.37384773 61.51099828 -312.7023261 51.69245212 -294.11328125 45.98046875 C-293.33130371 45.7378833 -292.54932617 45.49529785 -291.74365234 45.24536133 C-279.15175654 41.59177433 -266.83275147 41.055003 -253.84073448 41.29366112 C-249.30884099 41.36761392 -244.7765342 41.3759489 -240.24414062 41.39648438 C-234.53468225 41.42587105 -228.82728438 41.47329476 -223.11889648 41.59106445 C-200.59153832 42.03371324 -182.82845297 42.05229063 -163.64030457 28.96578979 C-159.36768908 26.13743398 -154.82783376 23.80869764 -150.30078125 21.41796875 C-148.49669987 20.42965478 -146.69313069 19.44040358 -144.890625 18.44921875 C-137.22712429 14.25047823 -129.51960747 10.13356509 -121.80883789 6.02246094 C-115.86631212 2.85204096 -109.93959944 -0.34255941 -104.04296875 -3.59765625 C-67.36213987 -23.78421158 -33.60669295 -27.1462566 0 0 Z M-87.98828125 13.29296875 C-89.27240846 13.96671147 -90.55683729 14.63987961 -91.84155273 15.3125 C-101.1077424 20.17688426 -110.30654371 25.16393964 -119.4765625 30.20703125 C-125.91303642 33.74208947 -132.38740103 37.20579945 -138.86328125 40.66796875 C-141.25136351 41.94519768 -143.6393666 43.22257456 -146.02734375 44.5 C-146.61872635 44.81631882 -147.21010895 45.13263763 -147.81941223 45.45854187 C-153.96488731 48.74665685 -160.1022948 52.0496898 -166.23828125 55.35546875 C-167.30272461 55.92894043 -168.36716797 56.50241211 -169.46386719 57.09326172 C-171.60778962 58.2484568 -173.75166993 59.40373006 -175.89550781 60.55908203 C-181.30073562 63.4716714 -186.70706693 66.38221105 -192.11328125 69.29296875 C-194.27995314 70.45962571 -196.44661981 71.62629238 -198.61328125 72.79296875 C-218.11328125 83.29296875 -237.61328125 93.79296875 -257.11328125 104.29296875 C-257.11328125 104.62296875 -257.11328125 104.95296875 -257.11328125 105.29296875 C-244.11617794 105.59680457 -231.11994563 105.82647083 -218.11998844 105.96652699 C-212.08057052 106.03381626 -206.04361575 106.12476975 -200.00561523 106.27368164 C-163.78528882 108.08173627 -163.78528882 108.08173627 -131.47312927 93.97183228 C-127.32909279 91.02364594 -122.80053044 88.77013771 -118.30078125 86.41796875 C-116.49669987 85.42965478 -114.69313069 84.44040358 -112.890625 83.44921875 C-106.40463734 79.89562356 -99.88510997 76.40521248 -93.36328125 72.91796875 C-90.97522024 71.6407001 -88.58720653 70.36334304 -86.19921875 69.0859375 C-85.60781601 68.76960861 -85.01641327 68.45327972 -84.40708923 68.12736511 C-76.12011379 63.69343789 -67.84758427 59.23268827 -59.57421875 54.7734375 C-55.16492938 52.39698489 -50.75324813 50.0250514 -46.33984375 47.65625 C-33.87675514 40.96354265 -21.45241427 34.21181078 -9.11328125 27.29296875 C-10.77208944 19.71140278 -17.23510764 14.60187863 -23.48828125 10.48046875 C-32.97058475 4.80425651 -41.69433329 2.11970943 -52.67578125 1.98046875 C-53.41119141 1.95146484 -54.14660156 1.92246094 -54.90429688 1.89257812 C-67.01869305 1.75739602 -77.55877851 7.75432678 -87.98828125 13.29296875 Z M-6.6328125 50.58984375 C-7.60189796 51.10676285 -7.60189796 51.10676285 -8.59056091 51.63412476 C-10.7055925 52.76437814 -12.81568737 53.90352755 -14.92578125 55.04296875 C-16.39330822 55.82972422 -17.86108344 56.61601683 -19.32910156 57.40185547 C-28.22536142 62.17053978 -37.09760657 66.98370933 -45.94897461 71.83520508 C-53.27079456 75.846443 -60.62590042 79.79435552 -67.98828125 83.73046875 C-80.72184132 90.53847391 -93.42492466 97.40102826 -106.11328125 104.29296875 C-106.11328125 104.62296875 -106.11328125 104.95296875 -106.11328125 105.29296875 C-60.90328125 105.29296875 -15.69328125 105.29296875 30.88671875 105.29296875 C29.50106 101.1359925 28.2055093 97.68473635 26.27294922 93.83837891 C25.49236649 92.27744003 25.49236649 92.27744003 24.6960144 90.68496704 C23.85842087 89.02526382 23.85842087 89.02526382 23.00390625 87.33203125 C22.42963898 86.1863266 21.8553717 85.04062195 21.26370239 83.86019897 C19.74493585 80.8302626 18.22137793 77.8027609 16.69677734 74.77575684 C15.13867576 71.68009782 13.58516215 68.58213846 12.03125 65.484375 C8.98727908 59.41845301 5.93874852 53.35483962 2.88671875 47.29296875 C-0.92218092 47.29296875 -3.37349685 48.81997834 -6.6328125 50.58984375 Z M-330.984375 94.8046875 C-336.77684821 101.5749727 -342.2005687 109.28969308 -346.11328125 117.29296875 C-345.78328125 117.95296875 -345.45328125 118.61296875 -345.11328125 119.29296875 C-344.54222656 118.91785156 -343.97117187 118.54273438 -343.3828125 118.15625 C-334.74989944 112.70749565 -326.10651568 108.65272191 -315.90283203 107.49389648 C-304.09586682 106.09730413 -295.33346677 101.03093085 -285.19433594 95.07128906 C-280.24024835 92.21189334 -275.18785516 89.54020566 -270.13555908 86.85928345 C-267.18699617 85.29320529 -264.24415101 83.71643315 -261.30078125 82.140625 C-260.42167587 81.67039162 -260.42167587 81.67039162 -259.52481079 81.19065857 C-252.79751264 77.59154659 -246.08003186 73.9742159 -239.36328125 70.35546875 C-238.23180664 69.74590332 -237.10033203 69.13633789 -235.93457031 68.50830078 C-233.32734186 67.10343497 -230.72023199 65.69834981 -228.11328125 64.29296875 C-228.11328125 63.96296875 -228.11328125 63.63296875 -228.11328125 63.29296875 C-267.62849459 62.6851383 -301.73508907 64.4780798 -330.984375 94.8046875 Z M36.88671875 66.29296875 C37.42039062 67.4325 37.9540625 68.57203125 38.50390625 69.74609375 C38.85759277 70.50156494 39.2112793 71.25703613 39.57568359 72.03540039 C40.37574641 73.72692883 41.18623166 75.41356163 42.00634766 77.09545898 C44.22211309 81.65354495 46.26370514 86.19032583 48.04296875 90.9375 C51.23935681 100.00940667 51.23935681 100.00940667 57.95996094 106.28857422 C62.79470234 107.47513378 67.62863244 107.36585646 72.57714844 107.26025391 C83.23304861 107.41119372 92.94387288 113.06716465 101.88671875 118.29296875 C102.54671875 118.62296875 103.20671875 118.95296875 103.88671875 119.29296875 C98.32781098 100.54202612 79.87986179 84.39253191 63.45019531 75.11816406 C58.87701142 72.66067026 54.17166573 70.64468347 49.32421875 68.79296875 C48.65753174 68.53749268 47.99084473 68.2820166 47.30395508 68.01879883 C43.72102742 66.72340816 40.699269 66.00025856 36.88671875 66.29296875 Z M-342.36328125 145.41796875 C-351.5465295 156.33960967 -355.43621878 168.90219886 -355.37397766 182.95700073 C-355.37780321 183.88797927 -355.38162876 184.81895781 -355.38557023 185.77814782 C-355.39583002 188.87543192 -355.39192148 191.9725282 -355.38793945 195.06982422 C-355.39228981 197.29958262 -355.39747404 199.52933954 -355.40342712 201.75909424 C-355.41679343 207.80044642 -355.41739842 213.84173595 -355.41486382 219.88310003 C-355.41379252 224.93270689 -355.41868156 229.98230114 -355.42346925 235.03190529 C-355.43518956 247.62857035 -355.43434403 260.22519716 -355.42791244 272.82186164 C-355.42274464 283.74232359 -355.43399775 294.6626963 -355.45301066 305.5831406 C-355.47241803 316.81693865 -355.48034901 328.0506957 -355.4768874 339.28451455 C-355.47507691 345.58315976 -355.47768749 351.88172323 -355.49160194 358.18035507 C-355.50420088 364.10492888 -355.50221649 370.02932441 -355.48919106 375.95389557 C-355.48683026 378.12301062 -355.48954208 380.2921383 -355.49781418 382.46123886 C-355.72659874 397.65021849 -355.72659874 397.65021849 -352.11328125 412.29296875 C-351.68789063 413.39769531 -351.2625 414.50242187 -350.82421875 415.640625 C-343.74676324 430.02317348 -333.2845836 438.84246784 -318.40234375 444.56640625 C-313.756841 446.04091736 -309.46771959 446.41958841 -304.59975433 446.42718983 C-303.95629787 446.42954206 -303.3128414 446.43189429 -302.64988625 446.4343178 C-300.49097971 446.44098155 -298.33213372 446.44055037 -296.17321777 446.44013977 C-294.61074244 446.44344004 -293.04826795 446.44716595 -291.48579454 446.45128125 C-287.18958993 446.46129095 -282.89339928 446.46501639 -278.59718466 446.46767056 C-273.96439109 446.47157669 -269.33160854 446.48115484 -264.69882202 446.48988342 C-253.50905336 446.50963948 -242.3192838 446.51971312 -231.12950206 446.52861121 C-225.85831185 446.53299567 -220.58712264 446.53836208 -215.31593323 446.54360008 C-197.79017088 446.56061178 -180.26440916 446.57510545 -162.73863983 446.58234882 C-158.19131978 446.58425868 -153.64399972 446.58617902 -149.09667969 446.58813477 C-147.96648362 446.58861851 -146.83628755 446.58910225 -145.67184311 446.58960065 C-127.3677091 446.59789909 -109.06364048 446.62323315 -90.75953501 446.65571544 C-71.96155635 446.68880183 -53.1636109 446.70679903 -34.36560297 446.70999306 C-23.81349285 446.71215673 -13.26147808 446.72088445 -2.70939636 446.74645424 C6.27819667 446.76818281 15.26567118 446.77620104 24.25328749 446.76648746 C28.83617845 446.76194898 33.41882499 446.76380262 38.00168228 446.7832489 C42.20399573 446.80092585 46.40588728 446.79984637 50.6082055 446.78435161 C52.12174143 446.78198239 53.63530694 446.78626324 55.14879781 446.79818026 C72.25365122 446.92442911 86.15949928 442.28416564 98.78515625 430.55078125 C108.78530836 419.80712341 113.07420627 406.67194448 112.984375 392.2734375 C112.98296005 391.41486649 112.9815451 390.55629547 112.98008728 389.67170715 C112.97450932 386.94125826 112.96196089 384.21089268 112.94921875 381.48046875 C112.9442009 379.62435015 112.93963849 377.76823025 112.93554688 375.91210938 C112.92454711 371.37236395 112.90729768 366.83268045 112.88671875 362.29296875 C111.87797699 362.28710251 110.86923523 362.28123627 109.82992554 362.27519226 C100.2686413 362.21768611 90.70757844 362.144782 81.14652061 362.05725384 C76.2324631 362.01275001 71.31848468 361.97345125 66.40429688 361.9465332 C61.65140007 361.92029903 56.89881104 361.8797586 52.14610672 361.82978249 C50.34351082 361.81324852 48.54086187 361.80165121 46.73820114 361.79535484 C23.2214833 361.70499858 2.95129197 356.3674426 -14.6953125 339.87109375 C-28.89353328 324.73244155 -35.85392201 305.38977473 -35.57910156 284.79394531 C-34.86002661 265.45305314 -27.80116323 247.59992914 -13.9296875 233.875 C4.29092828 217.17066293 24.12730483 212.69465037 48.04296875 212.68359375 C49.92583611 212.66857259 51.80869049 212.65183738 53.69152832 212.63348389 C58.59040004 212.59023928 63.48909421 212.56990772 68.38812256 212.55474854 C73.40989499 212.53502084 78.4314799 212.49306977 83.453125 212.453125 C93.26426445 212.37828892 103.075361 212.32771723 112.88671875 212.29296875 C112.96164069 206.95852628 113.01568046 201.62439929 113.05151367 196.28955078 C113.06647324 194.4799261 113.08684832 192.67033685 113.11303711 190.86083984 C113.38101398 171.85024545 110.87162045 156.89889517 97.3046875 142.58203125 C82.91804814 128.96236943 66.67043719 126.97516568 47.55371094 127.03900146 C46.03397854 127.03669261 44.51424726 127.03351326 42.99451828 127.02954698 C38.84898785 127.02124862 34.70355027 127.02530153 30.55801964 127.03151941 C26.07533535 127.03606333 21.59266652 127.02905056 17.10998535 127.02355957 C8.34046885 127.01468457 -0.42901333 127.01657913 -9.19853115 127.02238485 C-16.32819843 127.0269088 -23.45785611 127.02751108 -30.58752441 127.02533722 C-31.6037668 127.02503075 -32.62000918 127.02472429 -33.66704679 127.02440853 C-35.7317756 127.02376906 -37.79650442 127.02312063 -39.86123323 127.02246335 C-59.20443747 127.0167656 -78.54762272 127.02330924 -97.89082384 127.03406408 C-114.4741004 127.04299909 -131.05734895 127.04144689 -147.640625 127.03222656 C-166.91646663 127.02151412 -186.19229164 127.01731487 -205.46813583 127.02345109 C-207.52510325 127.02408816 -209.58207067 127.0247169 -211.63903809 127.02533722 C-212.65100227 127.02564577 -213.66296645 127.02595432 -214.70559621 127.02627222 C-221.82346958 127.02799624 -228.94133237 127.02509039 -236.0592041 127.02037811 C-244.73811825 127.01475846 -253.41699623 127.01630851 -262.09590626 127.0269396 C-266.52067873 127.03218172 -270.94539099 127.03427802 -275.37016296 127.0276413 C-279.42648112 127.02164941 -283.48268367 127.02501 -287.53899145 127.0355964 C-289.00047743 127.03781676 -290.46197333 127.03672509 -291.92345285 127.03184482 C-312.0417659 126.96985701 -327.97446881 130.50138134 -342.36328125 145.41796875 Z M-1.11328125 252.29296875 C-10.61858062 263.7321678 -15.35370921 277.42752255 -14.11328125 292.29296875 C-11.93100614 307.1654487 -5.58431628 320.17260908 6.59375 329.328125 C21.62709379 339.23120881 35.38450157 340.60207447 53.0234375 340.48828125 C54.56107437 340.48533374 56.09871325 340.48329767 57.63635254 340.48217773 C63.28233892 340.47177246 68.9282821 340.44385021 74.57421875 340.41796875 C87.21734375 340.37671875 99.86046875 340.33546875 112.88671875 340.29296875 C112.88671875 305.31296875 112.88671875 270.33296875 112.88671875 234.29296875 C93.45796875 234.20015625 93.45796875 234.20015625 73.63671875 234.10546875 C69.5694043 234.07815674 65.50208984 234.05084473 61.31152344 234.02270508 C57.61807629 234.01266262 57.61807629 234.01266262 53.92462158 234.00663757 C52.29845709 234.00207559 50.6723018 233.99161895 49.04620361 233.97624207 C29.44723475 233.80041315 12.81111732 237.35500911 -1.11328125 252.29296875 Z "
          fill="#58667e" transform="translate(377.11328125,31.70703125)"/>
    <path d="M0 0 C6.87938894 5.78860295 10.50947329 12.9784224 11.37890625 21.87890625 C11.82953242 32.06114015 10.21959904 39.30555523 3.6875 47.25 C-2.20284443 53.56827544 -7.9526346 57.55018298 -16.76953125 58.3359375 C-28.19121147 58.59233685 -35.72311244 56.77232744 -44.2109375 48.859375 C-51.34796257 41.4418555 -53.41854205 34.35067356 -53.36352539 24.11523438 C-53.13343273 15.18968427 -50.29827254 8.32677832 -44.19140625 1.82421875 C-30.80624988 -9.3181485 -14.25425901 -9.46845859 0 0 Z M-30 21 C-31.45147903 23.90295805 -31.37239025 25.77261779 -31 29 C-29.18689858 31.92937654 -27.12704101 34.43647949 -24 36 C-21.03604618 36.40417552 -18.91095074 36.56382171 -16.30859375 34.953125 C-12.98294982 32.22850106 -11.17584802 30.54746256 -10.6875 26.25 C-11.07779027 22.19098115 -12.49587378 20.16698316 -15 17 C-21.31544762 13.84227619 -25.92566086 15.81447745 -30 21 Z "
          fill="#58667e" transform="translate(437,293)"/>
</svg>
