<svg width="18" height="18" viewBox="0 0 18 18" fill="none" xmlns="http://www.w3.org/2000/svg">
    <g clip-path="url(#clip0_1117_995)">
        <path d="M9.12109 17.8751C13.8155 17.8751 17.6211 14.0695 17.6211 9.37512C17.6211 4.6807 13.8155 0.875122 9.12109 0.875122C4.42667 0.875122 0.621094 4.6807 0.621094 9.37512C0.621094 14.0695 4.42667 17.8751 9.12109 17.8751Z"
              fill="url(#paint0_linear_1117_995)"/>
        <path d="M6.375 9.99634L7.38367 12.7879C7.38367 12.7879 7.50975 13.0493 7.64504 13.0493C7.78033 13.0493 9.78846 10.9604 9.78846 10.9604L12.0211 6.64734L6.41183 9.27667L6.37571 9.99705L6.375 9.99634Z"
              fill="#C8DAEA"/>
        <path d="M7.71236 10.7125L7.51899 12.7702C7.51899 12.7702 7.43824 13.4006 8.06795 12.7702C8.69766 12.1398 9.30186 11.6538 9.30186 11.6538"
              fill="#A9C6D8"/>
        <path d="M6.39326 10.0962L4.31856 9.42046C4.31856 9.42046 4.07064 9.31988 4.15068 9.0918C4.16697 9.04505 4.20026 9.00467 4.29943 8.93596C4.75914 8.6158 12.8072 5.72296 12.8072 5.72296C12.8072 5.72296 13.0346 5.64646 13.1685 5.69746C13.2358 5.718 13.2868 5.77396 13.3016 5.84338C13.3158 5.90359 13.3222 5.96521 13.3193 6.02613C13.3193 6.07925 13.3123 6.12884 13.3073 6.20605C13.2584 6.99725 11.7915 12.8991 11.7915 12.8991C11.7915 12.8991 11.7036 13.2448 11.3891 13.2561C11.2333 13.261 11.0817 13.2023 10.9691 13.0939C10.3521 12.5633 8.21935 11.1297 7.74831 10.8145C7.72706 10.7996 7.71289 10.7762 7.70935 10.7507C7.70297 10.7174 7.7391 10.6763 7.7391 10.6763C7.7391 10.6763 11.4529 7.3755 11.5513 7.02913C11.5591 7.00221 11.5301 6.98875 11.4911 7.0008C11.2446 7.09146 6.96914 9.79163 6.49668 10.0898C6.46268 10.1005 6.42656 10.1026 6.39185 10.0962H6.39326Z"
              fill="white"/>
    </g>
    <defs>
        <linearGradient id="paint0_linear_1117_995" x1="9.12109" y1="17.8751" x2="9.12109" y2="0.875122"
                        gradientUnits="userSpaceOnUse">
            <stop stop-color="#1D93D2"/>
            <stop offset="1" stop-color="#38B0E3"/>
        </linearGradient>
        <clipPath id="clip0_1117_995">
            <rect width="17" height="17" fill="white" transform="translate(0.621094 0.875122)"/>
        </clipPath>
    </defs>
</svg>
