<svg viewBox="0 0 132 24" xmlns="http://www.w3.org/2000/svg" width="132">
    <path d="M122.466 19.6645L117.541 8.35146H120.839L124.202 16.465L128.089 8.35146H131.333L123.667 23.9342H120.369L122.466 19.6645ZM110.473 17.3222C110.764 17.2559 111.045 17.1512 111.309 17.0109C111.563 16.8754 111.8 16.7085 112.013 16.5141C112.226 16.3192 112.41 16.0949 112.559 15.848C112.716 15.5886 112.837 15.3095 112.919 15.0181C113.009 14.7001 113.053 14.371 113.05 14.0407C113.054 13.7068 113.009 13.3741 112.919 13.0525C112.837 12.761 112.716 12.482 112.559 12.2226C112.409 11.9746 112.225 11.7486 112.013 11.551C111.803 11.3549 111.565 11.1895 111.309 11.0596C111.043 10.9261 110.763 10.8252 110.473 10.7593C110.169 10.6895 109.858 10.6547 109.545 10.6556C109.235 10.6545 108.925 10.6893 108.622 10.7593C108.336 10.8253 108.059 10.9261 107.798 11.0596C107.542 11.1912 107.305 11.3565 107.094 11.551C106.879 11.7475 106.693 11.9737 106.542 12.2226C106.386 12.4814 106.267 12.7607 106.187 13.0525C106.101 13.3747 106.059 13.7071 106.062 14.0407C106.059 14.3707 106.101 14.6995 106.187 15.0181C106.267 15.3098 106.386 15.5891 106.542 15.848C106.692 16.0959 106.878 16.3203 107.094 16.5141C107.308 16.7069 107.544 16.8737 107.798 17.0109C108.058 17.1512 108.335 17.2559 108.622 17.3222C108.925 17.3923 109.235 17.4271 109.545 17.4259C109.858 17.4269 110.169 17.3921 110.473 17.3222ZM107.148 19.8556C106.643 19.7269 106.156 19.5323 105.701 19.2768C104.815 18.7786 104.084 18.0456 103.588 17.1584C103.333 16.6997 103.138 16.2096 103.01 15.7006C102.74 14.6067 102.74 13.4639 103.01 12.37C103.138 11.8625 103.332 11.3742 103.588 10.9177C104.087 10.0336 104.817 9.30287 105.701 8.80466C106.156 8.54919 106.643 8.35461 107.148 8.2259C107.689 8.08877 108.245 8.02089 108.803 8.02388C109.104 8.0232 109.405 8.04144 109.703 8.07848C109.978 8.11251 110.25 8.16726 110.517 8.24228C110.764 8.31244 111.007 8.39815 111.243 8.4989C111.465 8.59305 111.678 8.70441 111.882 8.83196C112.074 8.95202 112.253 9.09104 112.417 9.24691C112.571 9.39257 112.713 9.54953 112.843 9.71647V8.35146H115.977V19.73H112.843V18.365C112.643 18.6164 112.413 18.8436 112.16 19.0421C111.881 19.2617 111.574 19.4451 111.249 19.5881C110.886 19.7471 110.507 19.8644 110.118 19.9375C109.685 20.0196 109.244 20.0598 108.803 20.0576C108.245 20.0606 107.689 19.9927 107.148 19.8556ZM95.7705 11.2343C96.2194 11.2425 96.6674 11.1911 97.1028 11.0814C97.4421 10.9957 97.7588 10.8374 98.031 10.6173C98.2767 10.4124 98.4648 10.1471 98.577 9.84749C98.6992 9.50798 98.7584 9.14902 98.7517 8.78826C98.7587 8.42925 98.6995 8.07202 98.577 7.73448C98.4645 7.43809 98.2762 7.1764 98.031 6.97555C97.7575 6.75879 97.4411 6.60247 97.1028 6.51691C96.6674 6.40735 96.2194 6.35594 95.7705 6.36403H92.6911V11.2343L95.7705 11.2343ZM89.4479 3.67773H96.0763C97.1174 3.67773 98.0201 3.80513 98.7844 4.05993C99.5488 4.31474 100.178 4.66781 100.674 5.11917C101.166 5.56669 101.546 6.12418 101.782 6.74624C102.03 7.40201 102.154 8.09812 102.148 8.79917C102.156 9.4986 102.031 10.1932 101.782 10.8467C101.542 11.4635 101.163 12.0166 100.674 12.4628C100.178 12.9179 99.5488 13.2728 98.7844 13.5275C98.02 13.7825 97.1173 13.9099 96.0763 13.9097H92.6911V19.73H89.4479V3.67773ZM75.5213 8.35146H78.6335V9.71645C78.8256 9.45151 79.0534 9.21448 79.3105 9.01211C79.5826 8.79861 79.8796 8.61894 80.1951 8.47704C80.5426 8.32164 80.9073 8.208 81.2816 8.13852C81.6974 8.06033 82.1197 8.02194 82.5428 8.02386C83.2017 8.01443 83.8567 8.12545 84.4757 8.35146C85.0271 8.5546 85.5268 8.87716 85.9389 9.29603C86.3531 9.73012 86.6663 10.2503 86.8562 10.8194C87.0753 11.4737 87.1824 12.1604 87.1729 12.8505V19.73H84.0607V13.6585C84.0682 13.2147 84.0055 12.7725 83.8751 12.3481C83.7671 11.9978 83.5867 11.6742 83.3454 11.3981C83.1136 11.1417 82.8233 10.945 82.4992 10.8248C82.1318 10.6919 81.7432 10.6272 81.3526 10.6337C80.9602 10.6275 80.5699 10.6923 80.2005 10.8248C79.8743 10.944 79.582 11.1408 79.3488 11.3981C79.1076 11.6742 78.9271 11.9978 78.8191 12.3481C78.6887 12.7725 78.626 13.2147 78.6335 13.6585V19.73H75.5213V8.35146ZM67.8629 17.2894C68.16 17.2176 68.4477 17.1113 68.7202 16.9727C68.9794 16.8402 69.2169 16.669 69.4245 16.4649C69.6301 16.2636 69.8082 16.0359 69.9541 15.7879C70.1029 15.5324 70.2133 15.2565 70.2817 14.9689C70.356 14.6577 70.3926 14.3388 70.3909 14.0189C70.3928 13.7008 70.3562 13.3836 70.2817 13.0743C70.144 12.5043 69.8467 11.9853 69.4245 11.5783C69.2141 11.376 68.9772 11.2033 68.7202 11.065C68.45 10.9201 68.1617 10.8118 67.8629 10.7429C67.5388 10.6685 67.2072 10.6318 66.8747 10.6337C66.5458 10.6322 66.2178 10.6689 65.8974 10.7429C65.6001 10.8111 65.3136 10.9195 65.0456 11.065C64.7909 11.2043 64.5558 11.3769 64.3467 11.5783C64.1408 11.7766 63.9659 12.0048 63.828 12.2553C63.6872 12.5126 63.5772 12.7857 63.5004 13.0689C63.4179 13.3787 63.3775 13.6983 63.3803 14.0189C63.3785 14.3395 63.4188 14.6589 63.5004 14.9689C63.5752 15.2545 63.6852 15.5296 63.828 15.7879C63.9676 16.0373 64.1423 16.2653 64.3467 16.465C64.5531 16.6681 64.7886 16.8393 65.0456 16.9727C65.3159 17.1119 65.6018 17.2183 65.8974 17.2894C66.2173 17.3671 66.5455 17.4056 66.8747 17.4041C67.2075 17.406 67.5394 17.3675 67.8629 17.2894V17.2894ZM65.0401 19.8501C64.4786 19.7194 63.9344 19.5234 63.4185 19.2659C62.9333 19.024 62.4833 18.7173 62.0808 18.3541C61.6908 18.0012 61.3526 17.595 61.0762 17.1475C60.796 16.6919 60.581 16.1994 60.4374 15.6842C60.1389 14.5941 60.1389 13.4437 60.4374 12.3536C60.5804 11.84 60.7955 11.3491 61.0762 10.8958C61.3546 10.4497 61.6926 10.0438 62.0808 9.68918C62.4822 9.32311 62.9324 9.01441 63.4185 8.7719C63.9344 8.51455 64.4786 8.31848 65.0401 8.18769C66.2549 7.91105 67.5163 7.91105 68.7311 8.18769C69.2894 8.31731 69.8301 8.51345 70.3417 8.7719C70.8257 9.01801 71.2755 9.32639 71.6794 9.68918C72.0737 10.0425 72.4173 10.4485 72.7004 10.8958C72.9843 11.3482 73.2013 11.8392 73.3447 12.3536C73.6432 13.4437 73.6432 14.5941 73.3447 15.6842C73.2007 16.2001 72.9837 16.6928 72.7004 17.1475C72.4193 17.5962 72.0755 18.0025 71.6794 18.3541C71.2744 18.714 70.8248 19.0204 70.3417 19.2659C69.8319 19.5239 69.293 19.72 68.7365 19.8501C67.5199 20.1267 66.2567 20.1267 65.0401 19.8501ZM52.896 17.2894C53.1931 17.2176 53.4808 17.1113 53.7532 16.9727C54.0124 16.8402 54.2499 16.669 54.4575 16.4649C54.6631 16.2636 54.8412 16.0359 54.9871 15.7879C55.136 15.5325 55.2464 15.2565 55.3147 14.9689C55.389 14.6577 55.4256 14.3388 55.4239 14.0189C55.4258 13.7008 55.3892 13.3836 55.3147 13.0743C55.177 12.5043 54.8797 11.9853 54.4575 11.5783C54.2471 11.376 54.0102 11.2033 53.7532 11.065C53.483 10.9201 53.1947 10.8117 52.896 10.7429C52.5719 10.6685 52.2402 10.6318 51.9077 10.6337C51.5788 10.6322 51.2508 10.6689 50.9304 10.7429C50.6331 10.8111 50.3466 10.9195 50.0786 11.065C49.8239 11.2043 49.5889 11.3769 49.3797 11.5783C49.1738 11.7766 48.9989 12.0048 48.861 12.2553C48.7203 12.5127 48.6103 12.7857 48.5335 13.0688C48.451 13.3787 48.4106 13.6982 48.4133 14.0189C48.4115 14.3394 48.4519 14.6589 48.5335 14.9689C48.6083 15.2544 48.7183 15.5295 48.861 15.7879C49.0006 16.0372 49.1753 16.2652 49.3797 16.4649C49.5861 16.668 49.8217 16.8392 50.0786 16.9727C50.3489 17.1119 50.6348 17.2182 50.9304 17.2894C51.2503 17.3671 51.5785 17.4056 51.9077 17.4041C52.2405 17.406 52.5724 17.3675 52.896 17.2894ZM50.0732 19.8501C49.5116 19.7195 48.9674 19.5234 48.4516 19.2659C47.9664 19.024 47.5164 18.7173 47.1139 18.3541C46.7239 18.0012 46.3856 17.595 46.1092 17.1475C45.8291 16.6919 45.614 16.1994 45.4704 15.6842C45.1719 14.5941 45.1719 13.4438 45.4704 12.3537C45.6134 11.84 45.8285 11.3492 46.1092 10.8959C46.3876 10.4498 46.7256 10.0438 47.1139 9.68924C47.5153 9.32319 47.9654 9.0145 48.4516 8.77196C48.9674 8.51461 49.5117 8.31854 50.0732 8.18774C51.2879 7.9111 52.5493 7.9111 53.7641 8.18774C54.3224 8.31734 54.8632 8.51348 55.3748 8.77196C55.8588 9.01804 56.3085 9.32642 56.7125 9.68924C57.1068 10.0425 57.4504 10.4485 57.7335 10.8959C58.0174 11.3482 58.2344 11.8392 58.3778 12.3537C58.6762 13.4438 58.6762 14.5941 58.3778 15.6842C58.2338 16.2002 58.0168 16.6929 57.7335 17.1475C57.4524 17.5963 57.1085 18.0026 56.7125 18.3541C56.3074 18.7141 55.8579 19.0205 55.3748 19.2659C54.8649 19.5239 54.326 19.72 53.7695 19.8501C52.5529 20.1267 51.2898 20.1267 50.0732 19.8501ZM25.5098 3.67773H28.7857L34.3877 12.2389L40.0114 3.67773H43.2874V19.73H40.0442V8.72273L35.3923 15.8207H33.4049L28.753 8.72273V19.73H25.5098V3.67773Z"
          class="mp-MoonPayLogo-module-txt"></path>
    <path fill="#7d00ff" d="M18.0302 6.55195C18.6781 6.55195 19.3115 6.35982 19.8502 5.99985C20.3889 5.63988 20.8088 5.12824 21.0568 4.52964C21.3047 3.93103 21.3696 3.27234 21.2432 2.63686C21.1168 2.00139 20.8048 1.41766 20.3466 0.959512C19.8885 0.501359 19.3047 0.189353 18.6693 0.0629484C18.0338 -0.0634558 17.3751 0.00141943 16.7765 0.24937C16.1779 0.497321 15.6663 0.91721 15.3063 1.45594C14.9463 1.99467 14.7542 2.62805 14.7542 3.27597C14.7542 3.70619 14.8389 4.1322 15.0035 4.52967C15.1681 4.92714 15.4094 5.28829 15.7136 5.5925C16.0178 5.89671 16.379 6.13801 16.7765 6.30263C17.1739 6.46726 17.5999 6.55197 18.0302 6.55195ZM7.9852 21.3061C6.40588 21.3061 4.86202 20.8378 3.54886 19.9604C2.2357 19.0829 1.21222 17.8358 0.607839 16.3767C0.00345898 14.9176 -0.154674 13.312 0.153438 11.7631C0.46155 10.2141 1.22207 8.79127 2.33882 7.67452C3.45557 6.55777 4.8784 5.79726 6.42737 5.48915C7.97635 5.18104 9.58191 5.33918 11.041 5.94356C12.5001 6.54795 13.7472 7.57143 14.6246 8.88459C15.5021 10.1978 15.9704 11.7416 15.9704 13.3209C15.9704 14.3696 15.7639 15.4079 15.3626 16.3768C14.9613 17.3456 14.3731 18.2259 13.6316 18.9674C12.8901 19.7089 12.0098 20.297 11.041 20.6983C10.0722 21.0996 9.03384 21.3061 7.9852 21.3061Z"
          class="mp-MoonPayLogo-module-icon"></path>
</svg>
