<svg width="174" height="174" viewBox="0 0 174 174" fill="none" xmlns="http://www.w3.org/2000/svg">
    <g clip-path="url(#clip0_92_54)">
        <path d="M163.705 44.9232C163.705 64.0857 148.173 79.6279 129 79.6279C109.827 79.6279 94.2953 64.0967 94.2953 44.9232C94.2953 25.7498 109.837 10.2295 129 10.2295C148.162 10.2295 163.705 25.7607 163.705 44.9232Z"
              fill="#321D47"/>
        <path d="M142.584 52.9186H135.191L133.802 49.5279H124.417L123.028 52.9186H115.634L124.483 32.7607H133.725L142.584 52.9186ZM129.12 37.9998L126.67 44.0154H131.559L129.12 37.9998Z"
              fill="white"/>
        <path d="M129.109 28.484C131.942 28.484 134.239 26.1873 134.239 23.3543C134.239 20.5212 131.942 18.2246 129.109 18.2246C126.276 18.2246 123.98 20.5212 123.98 23.3543C123.98 26.1873 126.276 28.484 129.109 28.484Z"
              fill="#E6007A"/>
        <path d="M129.109 71.6871C131.942 71.6871 134.239 69.3905 134.239 66.5574C134.239 63.7244 131.942 61.4277 129.109 61.4277C126.276 61.4277 123.98 63.7244 123.98 66.5574C123.98 69.3905 126.276 71.6871 129.109 71.6871Z"
              fill="#E6007A"/>
        <path d="M110.166 38.7545C112.999 38.7545 115.295 36.4579 115.295 33.6248C115.295 30.7918 112.999 28.4951 110.166 28.4951C107.333 28.4951 105.036 30.7918 105.036 33.6248C105.036 36.4579 107.333 38.7545 110.166 38.7545Z"
              fill="#E6007A"/>
        <path d="M148.064 38.7545C150.897 38.7545 153.194 36.4579 153.194 33.6248C153.194 30.7918 150.897 28.4951 148.064 28.4951C145.231 28.4951 142.934 30.7918 142.934 33.6248C142.934 36.4579 145.231 38.7545 148.064 38.7545Z"
              fill="#E6007A"/>
        <path d="M110.166 61.5919C112.999 61.5919 115.295 59.2953 115.295 56.4622C115.295 53.6292 112.999 51.3325 110.166 51.3325C107.333 51.3325 105.036 53.6292 105.036 56.4622C105.036 59.2953 107.333 61.5919 110.166 61.5919Z"
              fill="#E6007A"/>
        <path d="M148.064 61.5919C150.897 61.5919 153.194 59.2953 153.194 56.4622C153.194 53.6292 150.897 51.3325 148.064 51.3325C145.231 51.3325 142.934 53.6292 142.934 56.4622C142.934 59.2953 145.231 61.5919 148.064 61.5919Z"
              fill="#E6007A"/>
    </g>
    <g clip-path="url(#clip1_92_54)">
        <path d="M45 164C64.33 164 80 148.33 80 129C80 109.67 64.33 94 45 94C25.67 94 10 109.67 10 129C10 148.33 25.67 164 45 164Z"
              fill="#0052FF"/>
        <path d="M45.1548 153.322C58.7205 153.322 69.7172 142.344 69.7172 128.802C69.7172 115.261 58.7205 104.283 45.1548 104.283C32.2847 104.283 21.7265 114.164 20.6779 126.741H53.1439V130.864H20.6779C21.7265 143.441 32.2847 153.322 45.1548 153.322Z"
              fill="white"/>
    </g>
    <g clip-path="url(#clip2_92_54)">
        <path d="M164 129C164 109.67 148.33 94 129 94C109.67 94 94 109.67 94 129C94 148.33 109.67 164 129 164C148.33 164 164 148.33 164 129Z"
              fill="#6C00F6"/>
        <path d="M136.545 113.363L126.778 118.973V136.481L121.389 139.605L115.966 136.478V130.228L121.389 127.132L124.875 129.153V124.096L121.358 122.099L111.593 127.773V138.994L121.391 144.637L131.156 138.994V121.489L136.578 118.362L141.998 121.489V127.712L136.578 130.866L133.061 128.826V133.859L136.545 135.868L146.407 130.258V118.973L136.545 113.363Z"
              fill="white"/>
    </g>
    <circle cx="45" cy="45" r="35" fill="#D9D9D9"/>
    <path d="M45.3467 20L45.0112 21.1394V54.2005L45.3467 54.5351L60.6929 45.4638L45.3467 20Z" fill="#343434"/>
    <path d="M45.3466 20L30 45.4638L45.3466 54.5351V38.4882V20Z" fill="#8C8C8C"/>
    <path d="M45.3467 57.4406L45.1576 57.6712V69.448L45.3467 69.9999L60.7023 48.374L45.3467 57.4406Z" fill="#3C3C3B"/>
    <path d="M45.3466 69.9999V57.4406L30 48.374L45.3466 69.9999Z" fill="#8C8C8C"/>
    <path d="M45.3467 54.5352L60.6929 45.4639L45.3467 38.4883V54.5352Z" fill="#141414"/>
    <path d="M30 45.4639L45.3466 54.5352V38.4883L30 45.4639Z" fill="#393939"/>
    <defs>
        <clipPath id="clip0_92_54">
            <rect width="70" height="70" fill="white" transform="translate(94 10)"/>
        </clipPath>
        <clipPath id="clip1_92_54">
            <rect width="70" height="70" fill="white" transform="translate(10 94)"/>
        </clipPath>
        <clipPath id="clip2_92_54">
            <rect width="70" height="70" fill="white" transform="translate(94 94)"/>
        </clipPath>
    </defs>
</svg>
