<svg width="25" height="25" xmlns="http://www.w3.org/2000/svg" version="1.1"
     id="Logo" x="0px"
     y="0px" viewBox="0 0 1326.1 1410.3" style="enable-background:new 0 0 1326.1 1410.3;" xml:space="preserve">
    <style type="text/css">
	.st0{fill:#FFFFFF;}
</style>
    <circle cx="663.05" cy="705.15" r="663.05" fill="#E6007A"/>
    <g transform="translate(663.05 705.15) scale(0.8) translate(-663.05 -705.15)">
        <ellipse class="st0" cx="663" cy="147.9" rx="254.3" ry="147.9"/>
        <ellipse class="st0" cx="663" cy="1262.3" rx="254.3" ry="147.9"/>
        <ellipse transform="matrix(0.5 -0.866 0.866 0.5 -279.1512 369.5916)" class="st0" cx="180.5" cy="426.5"
                 rx="254.3" ry="148"/>
        <ellipse transform="matrix(0.5 -0.866 0.866 0.5 -279.1552 1483.9517)" class="st0" cx="1145.6" cy="983.7"
                 rx="254.3" ry="147.9"/>
        <ellipse transform="matrix(0.866 -0.5 0.5 0.866 -467.6798 222.044)" class="st0" cx="180.5" cy="983.7" rx="148"
                 ry="254.3"/>
        <ellipse transform="matrix(0.866 -0.5 0.5 0.866 -59.8007 629.9254)" class="st0" cx="1145.6" cy="426.6"
                 rx="147.9" ry="254.3"/>
    </g>
    <g transform="translate(963.05 1005.15) scale(55) translate(-19 -18.4983)">
            <path d="M26 19.4983C26 22.5351 23.5386 24.9983 20.5 24.9983C17.4614 24.9983 15 22.5369 15 19.4983C15 16.4597 17.4631 14 20.5 14C23.5369 14 26 16.4614 26 19.4983Z"
                  fill="#321D47"/>
        <path d="M22.6529 20.7654H21.4811L21.261 20.228H19.7737L19.5536 20.7654H18.3818L19.7841 17.5708H21.2488L22.6529 20.7654ZM20.5191 18.401L20.1308 19.3544H20.9056L20.5191 18.401Z"
              fill="white"/>
        <path d="M20.5173 16.893C20.9663 16.893 21.3303 16.529 21.3303 16.0801C21.3303 15.6311 20.9663 15.2671 20.5173 15.2671C20.0684 15.2671 19.7044 15.6311 19.7044 16.0801C19.7044 16.529 20.0684 16.893 20.5173 16.893Z"
              fill="#E6007A"/>
        <path d="M20.5173 23.7398C20.9663 23.7398 21.3303 23.3759 21.3303 22.9269C21.3303 22.4779 20.9663 22.1139 20.5173 22.1139C20.0684 22.1139 19.7044 22.4779 19.7044 22.9269C19.7044 23.3759 20.0684 23.7398 20.5173 23.7398Z"
              fill="#E6007A"/>
        <path d="M17.5151 18.5206C17.9641 18.5206 18.3281 18.1567 18.3281 17.7077C18.3281 17.2587 17.9641 16.8947 17.5151 16.8947C17.0661 16.8947 16.7022 17.2587 16.7022 17.7077C16.7022 18.1567 17.0661 18.5206 17.5151 18.5206Z"
              fill="#E6007A"/>
        <path d="M23.5213 18.5206C23.9703 18.5206 24.3342 18.1567 24.3342 17.7077C24.3342 17.2587 23.9703 16.8947 23.5213 16.8947C23.0723 16.8947 22.7083 17.2587 22.7083 17.7077C22.7083 18.1567 23.0723 18.5206 23.5213 18.5206Z"
              fill="#E6007A"/>
        <path d="M17.5151 22.1399C17.9641 22.1399 18.3281 21.776 18.3281 21.327C18.3281 20.878 17.9641 20.514 17.5151 20.514C17.0661 20.514 16.7022 20.878 16.7022 21.327C16.7022 21.776 17.0661 22.1399 17.5151 22.1399Z"
              fill="#E6007A"/>
        <path d="M23.5213 22.1399C23.9703 22.1399 24.3342 21.776 24.3342 21.327C24.3342 20.878 23.9703 20.514 23.5213 20.514C23.0723 20.514 22.7083 20.878 22.7083 21.327C22.7083 21.776 23.0723 22.1399 23.5213 22.1399Z"
              fill="#E6007A"/>
        </g>
</svg>
