<svg xmlns="http://www.w3.org/2000/svg" width="32" height="32" viewBox="0 0 32 32">
    <g fill="none" fill-rule="evenodd">
        <circle cx="16" cy="16" r="16" fill="#627EEA"/>
        <g fill="#FFF" fill-rule="nonzero">
            <path fill-opacity=".602" d="M16.498 4v8.87l7.497 3.35z"/>
            <path d="M16.498 4L9 16.22l7.498-3.35z"/>
            <path fill-opacity=".602" d="M16.498 21.968v6.027L24 17.616z"/>
            <path d="M16.498 27.995v-6.028L9 17.616z"/>
            <path fill-opacity=".2" d="M16.498 20.573l7.497-4.353-7.497-3.348z"/>
            <path fill-opacity=".602" d="M9 16.22l7.498 4.353v-7.701z"/>
        </g>
        <g transform="translate(4.8,6.2)">
            <!-- White circle background for the network logo -->
            <path d="M19.6758 13.3806C22.7112 13.3806 25.1758 15.8529 25.1758 18.9074C25.1758 21.9618 22.7112 24.4342 19.6758 24.4342C16.6404 24.4342 14.1758 21.9618 14.1758 18.9074C14.1758 15.8529 16.6404 13.3806 19.6758 13.3806Z"
                  fill="white" stroke="#2775CA" stroke-width="0.2"/>

            <!-- Chain logo scaled and positioned -->
            <g transform="translate(19.6758,18.9074) scale(0.095) translate(-73,-73)">
                <circle cx="73" cy="73" r="73" fill="#0052FF"/>
                <path d="M73.323 123.729C101.617 123.729 124.553 100.832 124.553 72.5875C124.553 44.343 101.617 21.4463 73.323 21.4463C46.4795 21.4463 24.4581 42.0558 22.271 68.2887H89.9859V76.8864H22.271C24.4581 103.119 46.4795 123.729 73.323 123.729Z"
                      fill="white"/>
            </g>
        </g>
    </g>
    <defs>
        <clipPath id="clip0_1052_1273">
            <rect width="24" height="24.1073" fill="white" transform="translate(0.675781 0.807617)"/>
        </clipPath>
    </defs>
</svg>
