<svg xmlns="http://www.w3.org/2000/svg" width="32" height="32" viewBox="0 0 32 32">
    <g fill="none" fill-rule="evenodd">
        <circle cx="16" cy="16" r="16" fill="#627EEA"/>
        <g fill="#FFF" fill-rule="nonzero">
            <path fill-opacity=".602" d="M16.498 4v8.87l7.497 3.35z"/>
            <path d="M16.498 4L9 16.22l7.498-3.35z"/>
            <path fill-opacity=".602" d="M16.498 21.968v6.027L24 17.616z"/>
            <path d="M16.498 27.995v-6.028L9 17.616z"/>
            <path fill-opacity=".2" d="M16.498 20.573l7.497-4.353-7.497-3.348z"/>
            <path fill-opacity=".602" d="M9 16.22l7.498 4.353v-7.701z"/>
        </g>
        <g transform="translate(4.8,6.2)">
            <!-- White circle background for the network logo -->
            <path d="M19.6758 13.3806C22.7112 13.3806 25.1758 15.8529 25.1758 18.9074C25.1758 21.9618 22.7112 24.4342 19.6758 24.4342C16.6404 24.4342 14.1758 21.9618 14.1758 18.9074C14.1758 15.8529 16.6404 13.3806 19.6758 13.3806Z"
                  fill="white" stroke="#2775CA" stroke-width="0.2"/>

            <!-- Chain logo scaled and positioned -->
            <g transform="translate(19.6758,18.9074) scale(0.0055) translate(-1248,-1248)">
                <path style="fill-rule:evenodd;clip-rule:evenodd;fill:#F0B90B;"
                      d="M1248,0c689.3,0,1248,558.7,1248,1248s-558.7,1248-1248,1248   S0,1937.3,0,1248S558.7,0,1248,0L1248,0z"/>
                <path style="fill:#FFFFFF;"
                      d="M685.9,1248l0.9,330l280.4,165v193.2l-444.5-260.7v-524L685.9,1248L685.9,1248z M685.9,918v192.3   l-163.3-96.6V821.4l163.3-96.6l164.1,96.6L685.9,918L685.9,918z M1084.3,821.4l163.3-96.6l164.1,96.6L1247.6,918L1084.3,821.4   L1084.3,821.4z"/>
                <path style="fill:#FFFFFF;"
                      d="M803.9,1509.6v-193.2l163.3,96.6v192.3L803.9,1509.6L803.9,1509.6z M1084.3,1812.2l163.3,96.6   l164.1-96.6v192.3l-164.1,96.6l-163.3-96.6V1812.2L1084.3,1812.2z M1645.9,821.4l163.3-96.6l164.1,96.6v192.3l-164.1,96.6V918   L1645.9,821.4L1645.9,821.4L1645.9,821.4z M1809.2,1578l0.9-330l163.3-96.6v524l-444.5,260.7v-193.2L1809.2,1578L1809.2,1578   L1809.2,1578z"/>
                <polygon style="fill:#FFFFFF;"
                         points="1692.1,1509.6 1528.8,1605.3 1528.8,1413 1692.1,1316.4 1692.1,1509.6  "/>
                <path style="fill:#FFFFFF;"
                      d="M1692.1,986.4l0.9,193.2l-281.2,165v330.8l-163.3,95.7l-163.3-95.7v-330.8l-281.2-165V986.4   L968,889.8l279.5,165.8l281.2-165.8l164.1,96.6H1692.1L1692.1,986.4z M803.9,656.5l443.7-261.6l444.5,261.6l-163.3,96.6   l-281.2-165.8L967.2,753.1L803.9,656.5L803.9,656.5z"/>
            </g>
        </g>
    </g>
    <defs>
        <clipPath id="clip0_1052_1273">
            <rect width="24" height="24.1073" fill="white" transform="translate(0.675781 0.807617)"/>
        </clipPath>
    </defs>
</svg>
