<svg width="192" height="192" viewBox="0 0 192 192" fill="none" xmlns="http://www.w3.org/2000/svg">
<g clip-path="url(#clip0_8034_3)">
<mask id="mask0_8034_3" style="mask-type:luminance" maskUnits="userSpaceOnUse" x="0" y="0" width="192" height="192">
<path d="M192 0H0V192H192V0Z" fill="white"/>
</mask>
<g mask="url(#mask0_8034_3)">
<path d="M192 0H0V192H192V0Z" fill="#2973FF"/>
<path opacity="0.8" d="M52.2178 115.03V145.883C52.2178 147.782 53.8252 148.571 54.3253 148.75C54.8254 148.965 56.5042 149.43 58.0044 148.033L81.345 125.603C83.3327 123.694 85.251 121.685 86.6926 119.336C87.3711 118.231 87.6524 117.61 87.6524 117.61C89.0813 114.707 89.0813 111.912 87.6877 109.117C85.6168 104.96 80.3297 100.732 72.3637 96.7188L58.7546 104.316C54.7183 106.608 52.2178 110.658 52.2178 115.03Z" fill="white"/>
<path d="M38.7979 46.4063V78.7648C38.7979 82.814 41.5125 86.3975 45.3704 87.5442C58.5155 91.3426 81.412 99.5124 86.9488 111.517C87.6627 113.095 88.0915 114.635 88.2353 116.248C91.9143 109.547 93.593 101.843 92.8072 94.0301C91.7352 82.9574 85.8769 72.8879 76.7329 66.4735L44.1202 43.647C43.5487 43.217 42.8698 43.002 42.1912 43.002C41.6196 43.002 41.1197 43.1095 40.5838 43.3962C39.5122 44.0054 38.7979 45.1163 38.7979 46.4063Z" fill="white"/>
<path opacity="0.8" d="M139.03 115.03V145.883C139.03 147.782 137.424 148.571 136.922 148.75C136.423 148.965 134.743 149.43 133.244 148.033L109.36 125.081C107.734 123.519 106.181 121.866 104.957 119.972C103.987 118.473 103.596 117.61 103.596 117.61C102.167 114.707 102.167 111.912 103.56 109.117C105.632 104.96 110.918 100.732 118.883 96.7188L132.493 104.316C136.566 106.608 139.03 110.658 139.03 115.03Z" fill="white"/>
<path d="M152.473 46.4043V78.7627C152.473 82.812 149.758 86.3955 145.899 87.5422C132.755 91.3406 109.858 99.5107 104.322 111.515C103.606 113.093 103.178 114.633 103.035 116.246C99.3567 109.545 97.6777 101.841 98.4631 94.0282C99.5337 82.9553 105.392 72.886 114.538 66.4716L147.151 43.645C147.722 43.215 148.401 43 149.079 43C149.651 43 150.151 43.1075 150.686 43.3942C151.758 44.0034 152.473 45.1143 152.473 46.4043Z" fill="white"/>
</g>
</g>
<defs>
<clipPath id="clip0_8034_3">
<rect width="192" height="192" rx="30" fill="white"/>
</clipPath>
</defs>
</svg>
