<svg width="25" height="25" viewBox="0 0 25 25" fill="none" xmlns="http://www.w3.org/2000/svg">
    <g clip-path="url(#clip0_1052_1273)">
        <path fill-rule="evenodd" clip-rule="evenodd"
              d="M12.6475 0.807617C6.01866 0.807617 0.647461 6.20284 0.647461 12.8613C0.647461 19.5197 6.01866 24.915 12.6475 24.915C19.2763 24.915 24.6475 19.5197 24.6475 12.8613C24.6475 6.20284 19.2715 0.807617 12.6475 0.807617Z"
              fill="#0B53BF"/>
        <path d="M15.9929 14.6452C15.9929 12.8854 14.9417 12.2827 12.8441 12.032C11.3465 11.8295 11.0441 11.4293 11.0441 10.7254C11.0441 10.0215 11.5433 9.56824 12.5417 9.56824C13.4441 9.56824 13.9433 9.86717 14.1929 10.6241C14.2409 10.7736 14.3945 10.8749 14.5433 10.8749H15.3449C15.5465 10.8749 15.6953 10.7254 15.6953 10.5229V10.4747C15.4937 9.37056 14.5961 8.51716 13.4441 8.41591V7.21055C13.4441 7.00804 13.2953 6.85858 13.0457 6.81036H12.2969C12.0953 6.81036 11.9465 6.95983 11.8985 7.21055V8.3677C10.4009 8.5702 9.45047 9.57306 9.45047 10.8266C9.45047 12.4852 10.4489 13.1361 12.5513 13.3868C13.9529 13.6376 14.3993 13.9413 14.3993 14.7417C14.3993 15.542 13.6985 16.0965 12.7481 16.0965C11.4473 16.0965 10.9961 15.542 10.8473 14.7899C10.7993 14.5874 10.6457 14.491 10.4969 14.491H9.64727C9.44567 14.491 9.29688 14.6404 9.29688 14.8429V14.8911C9.49847 16.1447 10.2953 17.0512 11.9465 17.3019V18.5072C11.9465 18.7097 12.0953 18.8592 12.3449 18.9074H13.0937C13.2953 18.9074 13.4441 18.758 13.4921 18.5072V17.3019C14.9945 17.056 15.9929 16.0001 15.9929 14.6452Z"
              fill="white"/>
        <path d="M10.0935 19.891C6.19592 18.4879 4.19432 14.1148 5.64392 10.248C6.39272 8.13622 8.04392 6.53067 10.0935 5.77852C10.2951 5.67727 10.3911 5.52781 10.3911 5.27709V4.57316C10.3911 4.37065 10.2903 4.22119 10.0935 4.17297C10.0455 4.17297 9.94472 4.17297 9.89192 4.22119C5.13992 5.72549 2.54312 10.8025 4.04072 15.5709C4.94312 18.3818 7.08872 20.5419 9.89192 21.4483C10.0935 21.5495 10.2903 21.4483 10.3431 21.2458C10.3911 21.1976 10.3911 21.1445 10.3911 21.0433V20.3394C10.3959 20.1947 10.2471 19.9922 10.0935 19.891ZM15.3927 4.22119C15.1911 4.11994 14.9943 4.22119 14.9415 4.42369C14.8935 4.4719 14.8935 4.52494 14.8935 4.62619V5.33013C14.8935 5.53263 15.0423 5.73031 15.1911 5.83156C19.0887 7.23943 21.0903 11.6077 19.6407 15.4745C18.8919 17.5863 17.2407 19.1918 15.1911 19.944C14.9895 20.0452 14.8935 20.1947 14.8935 20.4454V21.1494C14.8935 21.3519 14.9943 21.5013 15.1911 21.5495C15.2391 21.5495 15.3399 21.5495 15.3927 21.5013C20.1447 19.997 22.7415 14.92 21.2439 10.1516C20.3463 7.28764 18.1479 5.12762 15.3927 4.22119Z"
              fill="white"/>
        <g transform="translate(-1,0)">
            <!-- Chain logo scaled and positioned -->
            <g transform="translate(19.6758,18.9074) scale(0.0073) translate(-751.5,-752)">
                <rect x="287" y="258" width="928" height="844" fill="white"/>
                <path fill-rule="evenodd" clip-rule="evenodd"
                      d="M1502.5 752C1502.5 1166.77 1166.27 1503 751.5 1503C336.734 1503 0.5 1166.77 0.5 752C0.5 337.234 336.734 1 751.5 1C1166.27 1 1502.5 337.234 1502.5 752ZM538.688 1050.86H392.94C362.314 1050.86 347.186 1050.86 337.962 1044.96C327.999 1038.5 321.911 1027.8 321.173 1015.99C320.619 1005.11 328.184 991.822 343.312 965.255L703.182 330.935C718.495 303.999 726.243 290.531 736.021 285.55C746.537 280.2 759.083 280.2 769.599 285.55C779.377 290.531 787.126 303.999 802.438 330.935L876.42 460.079L876.797 460.738C893.336 489.635 901.723 504.289 905.385 519.669C909.443 536.458 909.443 554.169 905.385 570.958C901.695 586.455 893.393 601.215 876.604 630.549L687.573 964.702L687.084 965.558C670.436 994.693 661.999 1009.46 650.306 1020.6C637.576 1032.78 622.263 1041.63 605.474 1046.62C590.161 1050.86 573.004 1050.86 538.688 1050.86ZM906.75 1050.86H1115.59C1146.4 1050.86 1161.9 1050.86 1171.13 1044.78C1181.09 1038.32 1187.36 1027.43 1187.92 1015.63C1188.45 1005.1 1181.05 992.33 1166.55 967.307C1166.05 966.455 1165.55 965.588 1165.04 964.706L1060.43 785.75L1059.24 783.735C1044.54 758.877 1037.12 746.324 1027.59 741.472C1017.08 736.121 1004.71 736.121 994.199 741.472C984.605 746.453 976.857 759.552 961.544 785.934L857.306 964.891L856.949 965.507C841.69 991.847 834.064 1005.01 834.614 1015.81C835.352 1027.62 841.44 1038.5 851.402 1044.96C860.443 1050.86 875.94 1050.86 906.75 1050.86Z"
                      fill="#E84142"/>
            </g>
        </g>
    </g>
    <defs>
        <clipPath id="clip0_1052_1273">
            <rect width="24" height="24.1073" fill="white" transform="translate(0.675781 0.807617)"/>
        </clipPath>
    </defs>
</svg>
