<svg width="25" height="25" viewBox="0 0 25 25" fill="none" xmlns="http://www.w3.org/2000/svg">
    <g clip-path="url(#clip0_4_2)">
        <path d="M12.5 25C19.4036 25 25 19.4036 25 12.5C25 5.59644 19.4036 0 12.5 0C5.59644 0 0 5.59644 0 12.5C0 19.4036 5.59644 25 12.5 25Z"
              fill="#009393"/>
        <path fill-rule="evenodd" clip-rule="evenodd"
              d="M12.5153 13.3934C14.665 13.3934 16.4616 13.03 16.9006 12.5444C16.5278 12.1325 15.1794 11.8081 13.4669 11.7194V12.7453C13.1603 12.7612 12.8416 12.7691 12.515 12.7691C12.1884 12.7691 11.8697 12.7612 11.5625 12.7453V11.7194C9.85062 11.8081 8.50156 12.1325 8.12875 12.5444C8.56844 13.03 10.3653 13.3934 12.515 13.3934H12.5153ZM16.3347 8.56437V9.97718H13.4669V10.9569C15.4812 11.0616 16.9928 11.4922 17.0041 12.0075V13.0819C16.9928 13.5972 15.4812 14.0269 13.4669 14.1319V16.5362H11.5628V14.1319C9.54844 14.0272 8.0375 13.5972 8.02625 13.0819V12.0075C8.0375 11.4922 9.54844 11.0616 11.5628 10.9569V9.97718H8.695V8.56437H16.335H16.3347ZM7.56719 6.31593H17.6347C17.8753 6.31593 18.0969 6.4425 18.2169 6.64812L21.1497 11.6844C21.3016 11.9456 21.2566 12.2753 21.0397 12.4869L12.9666 20.3675C12.7047 20.6228 12.2841 20.6228 12.0228 20.3675L3.95969 12.4975C3.73812 12.2806 3.69625 11.9416 3.85969 11.6791L6.995 6.6325C7.11719 6.43625 7.33406 6.31625 7.5675 6.31625L7.56719 6.31593Z"
              fill="white"/>
        <g transform="translate(-1,0)">
            <!-- White circle background for the network logo -->
            <path d="M19.6758 13.3806C22.7112 13.3806 25.1758 15.8529 25.1758 18.9074C25.1758 21.9618 22.7112 24.4342 19.6758 24.4342C16.6404 24.4342 14.1758 21.9618 14.1758 18.9074C14.1758 15.8529 16.6404 13.3806 19.6758 13.3806Z"
                  fill="white" stroke="#2775CA" stroke-width="0.2"/>

            <!-- Chain logo scaled and positioned -->
            <g transform="translate(19.6758,18.9074) scale(0.0073) translate(-751.5,-752)">
                <rect x="287" y="258" width="928" height="844" fill="white"/>
                <path fill-rule="evenodd" clip-rule="evenodd"
                      d="M1502.5 752C1502.5 1166.77 1166.27 1503 751.5 1503C336.734 1503 0.5 1166.77 0.5 752C0.5 337.234 336.734 1 751.5 1C1166.27 1 1502.5 337.234 1502.5 752ZM538.688 1050.86H392.94C362.314 1050.86 347.186 1050.86 337.962 1044.96C327.999 1038.5 321.911 1027.8 321.173 1015.99C320.619 1005.11 328.184 991.822 343.312 965.255L703.182 330.935C718.495 303.999 726.243 290.531 736.021 285.55C746.537 280.2 759.083 280.2 769.599 285.55C779.377 290.531 787.126 303.999 802.438 330.935L876.42 460.079L876.797 460.738C893.336 489.635 901.723 504.289 905.385 519.669C909.443 536.458 909.443 554.169 905.385 570.958C901.695 586.455 893.393 601.215 876.604 630.549L687.573 964.702L687.084 965.558C670.436 994.693 661.999 1009.46 650.306 1020.6C637.576 1032.78 622.263 1041.63 605.474 1046.62C590.161 1050.86 573.004 1050.86 538.688 1050.86ZM906.75 1050.86H1115.59C1146.4 1050.86 1161.9 1050.86 1171.13 1044.78C1181.09 1038.32 1187.36 1027.43 1187.92 1015.63C1188.45 1005.1 1181.05 992.33 1166.55 967.307C1166.05 966.455 1165.55 965.588 1165.04 964.706L1060.43 785.75L1059.24 783.735C1044.54 758.877 1037.12 746.324 1027.59 741.472C1017.08 736.121 1004.71 736.121 994.199 741.472C984.605 746.453 976.857 759.552 961.544 785.934L857.306 964.891L856.949 965.507C841.69 991.847 834.064 1005.01 834.614 1015.81C835.352 1027.62 841.44 1038.5 851.402 1044.96C860.443 1050.86 875.94 1050.86 906.75 1050.86Z"
                      fill="#E84142"/>
            </g>
        </g>
    </g>
    <defs>
        <clipPath id="clip0_4_2">
            <rect width="25" height="25" fill="white"/>
        </clipPath>
    </defs>
</svg>
