<svg width="25" height="25" viewBox="0 0 25 25" fill="none" xmlns="http://www.w3.org/2000/svg">
    <g clip-path="url(#clip0_4_2)">
        <path d="M12.5 25C19.4036 25 25 19.4036 25 12.5C25 5.59644 19.4036 0 12.5 0C5.59644 0 0 5.59644 0 12.5C0 19.4036 5.59644 25 12.5 25Z"
              fill="#009393"/>
        <path fill-rule="evenodd" clip-rule="evenodd"
              d="M12.5153 13.3934C14.665 13.3934 16.4616 13.03 16.9006 12.5444C16.5278 12.1325 15.1794 11.8081 13.4669 11.7194V12.7453C13.1603 12.7612 12.8416 12.7691 12.515 12.7691C12.1884 12.7691 11.8697 12.7612 11.5625 12.7453V11.7194C9.85062 11.8081 8.50156 12.1325 8.12875 12.5444C8.56844 13.03 10.3653 13.3934 12.515 13.3934H12.5153ZM16.3347 8.56437V9.97718H13.4669V10.9569C15.4812 11.0616 16.9928 11.4922 17.0041 12.0075V13.0819C16.9928 13.5972 15.4812 14.0269 13.4669 14.1319V16.5362H11.5628V14.1319C9.54844 14.0272 8.0375 13.5972 8.02625 13.0819V12.0075C8.0375 11.4922 9.54844 11.0616 11.5628 10.9569V9.97718H8.695V8.56437H16.335H16.3347ZM7.56719 6.31593H17.6347C17.8753 6.31593 18.0969 6.4425 18.2169 6.64812L21.1497 11.6844C21.3016 11.9456 21.2566 12.2753 21.0397 12.4869L12.9666 20.3675C12.7047 20.6228 12.2841 20.6228 12.0228 20.3675L3.95969 12.4975C3.73812 12.2806 3.69625 11.9416 3.85969 11.6791L6.995 6.6325C7.11719 6.43625 7.33406 6.31625 7.5675 6.31625L7.56719 6.31593Z"
              fill="white"/>
        <g transform="translate(-1,0)">
            <path d="M26 19.4983C26 22.5351 23.5386 24.9983 20.5 24.9983C17.4614 24.9983 15 22.5369 15 19.4983C15 16.4597 17.4631 14 20.5 14C23.5369 14 26 16.4614 26 19.4983Z"
                  fill="#321D47"/>
            <path d="M22.6529 20.7654H21.4811L21.261 20.228H19.7737L19.5536 20.7654H18.3818L19.7841 17.5708H21.2488L22.6529 20.7654ZM20.5191 18.401L20.1308 19.3544H20.9056L20.5191 18.401Z"
                  fill="white"/>
            <path d="M20.5173 16.893C20.9663 16.893 21.3303 16.529 21.3303 16.0801C21.3303 15.6311 20.9663 15.2671 20.5173 15.2671C20.0684 15.2671 19.7044 15.6311 19.7044 16.0801C19.7044 16.529 20.0684 16.893 20.5173 16.893Z"
                  fill="#E6007A"/>
            <path d="M20.5173 23.7398C20.9663 23.7398 21.3303 23.3759 21.3303 22.9269C21.3303 22.4779 20.9663 22.1139 20.5173 22.1139C20.0684 22.1139 19.7044 22.4779 19.7044 22.9269C19.7044 23.3759 20.0684 23.7398 20.5173 23.7398Z"
                  fill="#E6007A"/>
            <path d="M17.5151 18.5206C17.9641 18.5206 18.3281 18.1567 18.3281 17.7077C18.3281 17.2587 17.9641 16.8947 17.5151 16.8947C17.0661 16.8947 16.7022 17.2587 16.7022 17.7077C16.7022 18.1567 17.0661 18.5206 17.5151 18.5206Z"
                  fill="#E6007A"/>
            <path d="M23.5213 18.5206C23.9703 18.5206 24.3342 18.1567 24.3342 17.7077C24.3342 17.2587 23.9703 16.8947 23.5213 16.8947C23.0723 16.8947 22.7083 17.2587 22.7083 17.7077C22.7083 18.1567 23.0723 18.5206 23.5213 18.5206Z"
                  fill="#E6007A"/>
            <path d="M17.5151 22.1399C17.9641 22.1399 18.3281 21.776 18.3281 21.327C18.3281 20.878 17.9641 20.514 17.5151 20.514C17.0661 20.514 16.7022 20.878 16.7022 21.327C16.7022 21.776 17.0661 22.1399 17.5151 22.1399Z"
                  fill="#E6007A"/>
            <path d="M23.5213 22.1399C23.9703 22.1399 24.3342 21.776 24.3342 21.327C24.3342 20.878 23.9703 20.514 23.5213 20.514C23.0723 20.514 22.7083 20.878 22.7083 21.327C22.7083 21.776 23.0723 22.1399 23.5213 22.1399Z"
                  fill="#E6007A"/>
        </g>
    </g>
    <defs>
        <clipPath id="clip0_4_2">
            <rect width="25" height="25" fill="white"/>
        </clipPath>
    </defs>
</svg>
